<mxfile host="Electron" agent="Mozilla/5.0 (X11; Linux x86_64) AppleWebKit/537.36 (KHTML, like Gecko) draw.io/26.2.2 Chrome/134.0.6998.178 Electron/35.1.2 Safari/537.36" version="26.2.2">
  <diagram name="PÃ¡gina-1" id="8lAzSqhpOws8KDjhu80-">
    <mxGraphModel dx="1961" dy="993" grid="1" gridSize="10" guides="1" tooltips="1" connect="1" arrows="1" fold="1" page="1" pageScale="1" pageWidth="1169" pageHeight="827" math="0" shadow="0">
      <root>
        <mxCell id="0" />
        <mxCell id="1" parent="0" />
        <mxCell id="szdLHGiIxJaR-g91UcTa-1" value="&lt;font style=&quot;font-size: 18px;&quot;&gt;&lt;b&gt;MEF Configuracion&lt;/b&gt;&lt;/font&gt;" style="text;html=1;align=center;verticalAlign=middle;whiteSpace=wrap;rounded=0;" parent="1" vertex="1">
          <mxGeometry x="40" y="50" width="210" height="30" as="geometry" />
        </mxCell>
        <mxCell id="szdLHGiIxJaR-g91UcTa-35" value="&lt;b&gt;&lt;font style=&quot;font-size: 18px;&quot;&gt;MEF Leds&lt;/font&gt;&lt;/b&gt;" style="text;html=1;align=center;verticalAlign=middle;whiteSpace=wrap;rounded=0;" parent="1" vertex="1">
          <mxGeometry x="1190" y="40" width="90" height="30" as="geometry" />
        </mxCell>
        <mxCell id="szdLHGiIxJaR-g91UcTa-36" value="APAGADO" style="rounded=1;whiteSpace=wrap;html=1;" parent="1" vertex="1">
          <mxGeometry x="1240" y="240" width="100" height="40" as="geometry" />
        </mxCell>
        <mxCell id="szdLHGiIxJaR-g91UcTa-38" value="TITILA" style="rounded=1;whiteSpace=wrap;html=1;" parent="1" vertex="1">
          <mxGeometry x="1440" y="240" width="90" height="40" as="geometry" />
        </mxCell>
        <mxCell id="szdLHGiIxJaR-g91UcTa-39" value="" style="curved=1;endArrow=classic;html=1;rounded=0;entryX=0;entryY=0.5;entryDx=0;entryDy=0;exitX=1;exitY=0.5;exitDx=0;exitDy=0;" parent="1" source="szdLHGiIxJaR-g91UcTa-36" target="szdLHGiIxJaR-g91UcTa-38" edge="1">
          <mxGeometry width="50" height="50" relative="1" as="geometry">
            <mxPoint x="1340" y="360" as="sourcePoint" />
            <mxPoint x="1390" y="310" as="targetPoint" />
            <Array as="points">
              <mxPoint x="1380" y="250" />
            </Array>
          </mxGeometry>
        </mxCell>
        <mxCell id="szdLHGiIxJaR-g91UcTa-40" value="" style="curved=1;endArrow=classic;html=1;rounded=0;entryX=1;entryY=1;entryDx=0;entryDy=0;exitX=0;exitY=1;exitDx=0;exitDy=0;" parent="1" source="szdLHGiIxJaR-g91UcTa-38" target="szdLHGiIxJaR-g91UcTa-36" edge="1">
          <mxGeometry width="50" height="50" relative="1" as="geometry">
            <mxPoint x="1370" y="370" as="sourcePoint" />
            <mxPoint x="1420" y="320" as="targetPoint" />
            <Array as="points">
              <mxPoint x="1420" y="300" />
              <mxPoint x="1370" y="300" />
            </Array>
          </mxGeometry>
        </mxCell>
        <mxCell id="szdLHGiIxJaR-g91UcTa-41" value="eAlarma" style="text;html=1;align=center;verticalAlign=middle;whiteSpace=wrap;rounded=0;" parent="1" vertex="1">
          <mxGeometry x="1360" y="215" width="60" height="30" as="geometry" />
        </mxCell>
        <mxCell id="szdLHGiIxJaR-g91UcTa-42" value="eFinAlarma" style="text;html=1;align=center;verticalAlign=middle;whiteSpace=wrap;rounded=0;" parent="1" vertex="1">
          <mxGeometry x="1360" y="305" width="60" height="30" as="geometry" />
        </mxCell>
        <mxCell id="szdLHGiIxJaR-g91UcTa-43" value="LED VERDE" style="text;html=1;align=center;verticalAlign=middle;whiteSpace=wrap;rounded=0;" parent="1" vertex="1">
          <mxGeometry x="1230" y="185" width="90" height="30" as="geometry" />
        </mxCell>
        <mxCell id="szdLHGiIxJaR-g91UcTa-44" value="APAGADO" style="rounded=1;whiteSpace=wrap;html=1;" parent="1" vertex="1">
          <mxGeometry x="1640" y="240" width="100" height="40" as="geometry" />
        </mxCell>
        <mxCell id="szdLHGiIxJaR-g91UcTa-45" value="ENCENDIDO" style="rounded=1;whiteSpace=wrap;html=1;" parent="1" vertex="1">
          <mxGeometry x="1840" y="240" width="90" height="40" as="geometry" />
        </mxCell>
        <mxCell id="szdLHGiIxJaR-g91UcTa-46" value="" style="curved=1;endArrow=classic;html=1;rounded=0;entryX=0;entryY=0.5;entryDx=0;entryDy=0;exitX=1;exitY=0.5;exitDx=0;exitDy=0;" parent="1" source="szdLHGiIxJaR-g91UcTa-44" target="szdLHGiIxJaR-g91UcTa-45" edge="1">
          <mxGeometry width="50" height="50" relative="1" as="geometry">
            <mxPoint x="1740" y="360" as="sourcePoint" />
            <mxPoint x="1790" y="310" as="targetPoint" />
            <Array as="points">
              <mxPoint x="1780" y="250" />
            </Array>
          </mxGeometry>
        </mxCell>
        <mxCell id="szdLHGiIxJaR-g91UcTa-47" value="" style="curved=1;endArrow=classic;html=1;rounded=0;entryX=1;entryY=1;entryDx=0;entryDy=0;exitX=0;exitY=1;exitDx=0;exitDy=0;" parent="1" source="szdLHGiIxJaR-g91UcTa-45" target="szdLHGiIxJaR-g91UcTa-44" edge="1">
          <mxGeometry width="50" height="50" relative="1" as="geometry">
            <mxPoint x="1770" y="370" as="sourcePoint" />
            <mxPoint x="1820" y="320" as="targetPoint" />
            <Array as="points">
              <mxPoint x="1820" y="300" />
              <mxPoint x="1770" y="300" />
            </Array>
          </mxGeometry>
        </mxCell>
        <mxCell id="szdLHGiIxJaR-g91UcTa-48" value="eAscensorDetenido" style="text;html=1;align=center;verticalAlign=middle;whiteSpace=wrap;rounded=0;" parent="1" vertex="1">
          <mxGeometry x="1760" y="305" width="60" height="30" as="geometry" />
        </mxCell>
        <mxCell id="szdLHGiIxJaR-g91UcTa-49" value="eAscensorMovimiento" style="text;html=1;align=center;verticalAlign=middle;whiteSpace=wrap;rounded=0;" parent="1" vertex="1">
          <mxGeometry x="1760" y="205" width="60" height="30" as="geometry" />
        </mxCell>
        <mxCell id="szdLHGiIxJaR-g91UcTa-50" value="LED1" style="text;html=1;align=center;verticalAlign=middle;whiteSpace=wrap;rounded=0;" parent="1" vertex="1">
          <mxGeometry x="1630" y="180" width="60" height="30" as="geometry" />
        </mxCell>
        <mxCell id="szdLHGiIxJaR-g91UcTa-51" value="APAGADO" style="rounded=1;whiteSpace=wrap;html=1;" parent="1" vertex="1">
          <mxGeometry x="1250" y="430" width="100" height="40" as="geometry" />
        </mxCell>
        <mxCell id="szdLHGiIxJaR-g91UcTa-52" value="ENCENDIDO" style="rounded=1;whiteSpace=wrap;html=1;" parent="1" vertex="1">
          <mxGeometry x="1450" y="430" width="90" height="40" as="geometry" />
        </mxCell>
        <mxCell id="szdLHGiIxJaR-g91UcTa-53" value="" style="curved=1;endArrow=classic;html=1;rounded=0;entryX=0;entryY=0.5;entryDx=0;entryDy=0;exitX=1;exitY=0.5;exitDx=0;exitDy=0;" parent="1" source="szdLHGiIxJaR-g91UcTa-51" target="szdLHGiIxJaR-g91UcTa-52" edge="1">
          <mxGeometry width="50" height="50" relative="1" as="geometry">
            <mxPoint x="1350" y="550" as="sourcePoint" />
            <mxPoint x="1400" y="500" as="targetPoint" />
            <Array as="points">
              <mxPoint x="1390" y="440" />
            </Array>
          </mxGeometry>
        </mxCell>
        <mxCell id="szdLHGiIxJaR-g91UcTa-54" value="" style="curved=1;endArrow=classic;html=1;rounded=0;entryX=1;entryY=1;entryDx=0;entryDy=0;exitX=0;exitY=1;exitDx=0;exitDy=0;" parent="1" source="szdLHGiIxJaR-g91UcTa-52" target="szdLHGiIxJaR-g91UcTa-51" edge="1">
          <mxGeometry width="50" height="50" relative="1" as="geometry">
            <mxPoint x="1380" y="560" as="sourcePoint" />
            <mxPoint x="1430" y="510" as="targetPoint" />
            <Array as="points">
              <mxPoint x="1430" y="490" />
              <mxPoint x="1380" y="490" />
            </Array>
          </mxGeometry>
        </mxCell>
        <mxCell id="szdLHGiIxJaR-g91UcTa-55" value="eAscensorMovimiento&amp;nbsp;" style="text;html=1;align=center;verticalAlign=middle;whiteSpace=wrap;rounded=0;" parent="1" vertex="1">
          <mxGeometry x="1360" y="500" width="90" height="30" as="geometry" />
        </mxCell>
        <mxCell id="szdLHGiIxJaR-g91UcTa-56" value="eAscensorDetenido" style="text;html=1;align=center;verticalAlign=middle;whiteSpace=wrap;rounded=0;" parent="1" vertex="1">
          <mxGeometry x="1330" y="400" width="140" height="30" as="geometry" />
        </mxCell>
        <mxCell id="szdLHGiIxJaR-g91UcTa-57" value="LED2" style="text;html=1;align=center;verticalAlign=middle;whiteSpace=wrap;rounded=0;" parent="1" vertex="1">
          <mxGeometry x="1240" y="370" width="60" height="30" as="geometry" />
        </mxCell>
        <mxCell id="szdLHGiIxJaR-g91UcTa-59" value="APAGADO" style="rounded=1;whiteSpace=wrap;html=1;" parent="1" vertex="1">
          <mxGeometry x="1650" y="430" width="100" height="40" as="geometry" />
        </mxCell>
        <mxCell id="szdLHGiIxJaR-g91UcTa-60" value="ENCENDIDO" style="rounded=1;whiteSpace=wrap;html=1;" parent="1" vertex="1">
          <mxGeometry x="1850" y="430" width="90" height="40" as="geometry" />
        </mxCell>
        <mxCell id="szdLHGiIxJaR-g91UcTa-61" value="" style="curved=1;endArrow=classic;html=1;rounded=0;entryX=0;entryY=0.5;entryDx=0;entryDy=0;exitX=1;exitY=0.5;exitDx=0;exitDy=0;" parent="1" source="szdLHGiIxJaR-g91UcTa-59" target="szdLHGiIxJaR-g91UcTa-60" edge="1">
          <mxGeometry width="50" height="50" relative="1" as="geometry">
            <mxPoint x="1750" y="550" as="sourcePoint" />
            <mxPoint x="1800" y="500" as="targetPoint" />
            <Array as="points">
              <mxPoint x="1790" y="440" />
            </Array>
          </mxGeometry>
        </mxCell>
        <mxCell id="szdLHGiIxJaR-g91UcTa-62" value="" style="curved=1;endArrow=classic;html=1;rounded=0;entryX=1;entryY=1;entryDx=0;entryDy=0;exitX=0;exitY=1;exitDx=0;exitDy=0;" parent="1" source="szdLHGiIxJaR-g91UcTa-60" target="szdLHGiIxJaR-g91UcTa-59" edge="1">
          <mxGeometry width="50" height="50" relative="1" as="geometry">
            <mxPoint x="1780" y="560" as="sourcePoint" />
            <mxPoint x="1830" y="510" as="targetPoint" />
            <Array as="points">
              <mxPoint x="1830" y="490" />
              <mxPoint x="1780" y="490" />
            </Array>
          </mxGeometry>
        </mxCell>
        <mxCell id="szdLHGiIxJaR-g91UcTa-63" value="eCerrandoPuerta" style="text;html=1;align=center;verticalAlign=middle;whiteSpace=wrap;rounded=0;" parent="1" vertex="1">
          <mxGeometry x="1760" y="500" width="90" height="30" as="geometry" />
        </mxCell>
        <mxCell id="szdLHGiIxJaR-g91UcTa-64" value="ePuertaAbierta" style="text;html=1;align=center;verticalAlign=middle;whiteSpace=wrap;rounded=0;" parent="1" vertex="1">
          <mxGeometry x="1730" y="400" width="140" height="30" as="geometry" />
        </mxCell>
        <mxCell id="szdLHGiIxJaR-g91UcTa-65" value="LED3" style="text;html=1;align=center;verticalAlign=middle;whiteSpace=wrap;rounded=0;" parent="1" vertex="1">
          <mxGeometry x="1640" y="370" width="60" height="30" as="geometry" />
        </mxCell>
        <mxCell id="szdLHGiIxJaR-g91UcTa-66" value="APAGADO" style="rounded=1;whiteSpace=wrap;html=1;" parent="1" vertex="1">
          <mxGeometry x="1250" y="620" width="100" height="40" as="geometry" />
        </mxCell>
        <mxCell id="szdLHGiIxJaR-g91UcTa-67" value="ENCENDIDO" style="rounded=1;whiteSpace=wrap;html=1;" parent="1" vertex="1">
          <mxGeometry x="1450" y="620" width="90" height="40" as="geometry" />
        </mxCell>
        <mxCell id="szdLHGiIxJaR-g91UcTa-68" value="" style="curved=1;endArrow=classic;html=1;rounded=0;entryX=0;entryY=0.5;entryDx=0;entryDy=0;exitX=1;exitY=0.5;exitDx=0;exitDy=0;" parent="1" source="szdLHGiIxJaR-g91UcTa-66" target="szdLHGiIxJaR-g91UcTa-67" edge="1">
          <mxGeometry width="50" height="50" relative="1" as="geometry">
            <mxPoint x="1350" y="740" as="sourcePoint" />
            <mxPoint x="1400" y="690" as="targetPoint" />
            <Array as="points">
              <mxPoint x="1390" y="630" />
            </Array>
          </mxGeometry>
        </mxCell>
        <mxCell id="szdLHGiIxJaR-g91UcTa-69" value="" style="curved=1;endArrow=classic;html=1;rounded=0;entryX=1;entryY=1;entryDx=0;entryDy=0;exitX=0;exitY=1;exitDx=0;exitDy=0;" parent="1" source="szdLHGiIxJaR-g91UcTa-67" target="szdLHGiIxJaR-g91UcTa-66" edge="1">
          <mxGeometry width="50" height="50" relative="1" as="geometry">
            <mxPoint x="1380" y="750" as="sourcePoint" />
            <mxPoint x="1430" y="700" as="targetPoint" />
            <Array as="points">
              <mxPoint x="1430" y="680" />
              <mxPoint x="1380" y="680" />
            </Array>
          </mxGeometry>
        </mxCell>
        <mxCell id="szdLHGiIxJaR-g91UcTa-70" value="ePuertaAbierta" style="text;html=1;align=center;verticalAlign=middle;whiteSpace=wrap;rounded=0;" parent="1" vertex="1">
          <mxGeometry x="1360" y="690" width="90" height="30" as="geometry" />
        </mxCell>
        <mxCell id="szdLHGiIxJaR-g91UcTa-71" value="eAbriendoPuerta" style="text;html=1;align=center;verticalAlign=middle;whiteSpace=wrap;rounded=0;" parent="1" vertex="1">
          <mxGeometry x="1330" y="590" width="140" height="30" as="geometry" />
        </mxCell>
        <mxCell id="szdLHGiIxJaR-g91UcTa-72" value="LED AZUL" style="text;html=1;align=center;verticalAlign=middle;whiteSpace=wrap;rounded=0;" parent="1" vertex="1">
          <mxGeometry x="1240" y="560" width="60" height="30" as="geometry" />
        </mxCell>
        <mxCell id="szdLHGiIxJaR-g91UcTa-73" value="APAGADO" style="rounded=1;whiteSpace=wrap;html=1;" parent="1" vertex="1">
          <mxGeometry x="1660" y="620" width="100" height="40" as="geometry" />
        </mxCell>
        <mxCell id="szdLHGiIxJaR-g91UcTa-74" value="ENCENDIDO" style="rounded=1;whiteSpace=wrap;html=1;" parent="1" vertex="1">
          <mxGeometry x="1860" y="620" width="90" height="40" as="geometry" />
        </mxCell>
        <mxCell id="szdLHGiIxJaR-g91UcTa-75" value="" style="curved=1;endArrow=classic;html=1;rounded=0;entryX=0;entryY=0.5;entryDx=0;entryDy=0;exitX=1;exitY=0.5;exitDx=0;exitDy=0;" parent="1" source="szdLHGiIxJaR-g91UcTa-73" target="szdLHGiIxJaR-g91UcTa-74" edge="1">
          <mxGeometry width="50" height="50" relative="1" as="geometry">
            <mxPoint x="1760" y="740" as="sourcePoint" />
            <mxPoint x="1810" y="690" as="targetPoint" />
            <Array as="points">
              <mxPoint x="1800" y="630" />
            </Array>
          </mxGeometry>
        </mxCell>
        <mxCell id="szdLHGiIxJaR-g91UcTa-76" value="" style="curved=1;endArrow=classic;html=1;rounded=0;entryX=1;entryY=1;entryDx=0;entryDy=0;exitX=0;exitY=1;exitDx=0;exitDy=0;" parent="1" source="szdLHGiIxJaR-g91UcTa-74" target="szdLHGiIxJaR-g91UcTa-73" edge="1">
          <mxGeometry width="50" height="50" relative="1" as="geometry">
            <mxPoint x="1790" y="750" as="sourcePoint" />
            <mxPoint x="1840" y="700" as="targetPoint" />
            <Array as="points">
              <mxPoint x="1840" y="680" />
              <mxPoint x="1790" y="680" />
            </Array>
          </mxGeometry>
        </mxCell>
        <mxCell id="szdLHGiIxJaR-g91UcTa-77" value="ePuertaCerrada" style="text;html=1;align=center;verticalAlign=middle;whiteSpace=wrap;rounded=0;" parent="1" vertex="1">
          <mxGeometry x="1770" y="690" width="90" height="30" as="geometry" />
        </mxCell>
        <mxCell id="szdLHGiIxJaR-g91UcTa-78" value="eCerrandoPuerta" style="text;html=1;align=center;verticalAlign=middle;whiteSpace=wrap;rounded=0;" parent="1" vertex="1">
          <mxGeometry x="1740" y="590" width="140" height="30" as="geometry" />
        </mxCell>
        <mxCell id="szdLHGiIxJaR-g91UcTa-79" value="LED AMARILLO" style="text;html=1;align=center;verticalAlign=middle;whiteSpace=wrap;rounded=0;" parent="1" vertex="1">
          <mxGeometry x="1650" y="560" width="90" height="30" as="geometry" />
        </mxCell>
        <mxCell id="szdLHGiIxJaR-g91UcTa-86" value="&lt;b&gt;&lt;font style=&quot;font-size: 18px;&quot;&gt;MEF Ascensor&lt;/font&gt;&lt;/b&gt;" style="text;html=1;align=center;verticalAlign=middle;whiteSpace=wrap;rounded=0;" parent="1" vertex="1">
          <mxGeometry x="30" y="860" width="150" height="30" as="geometry" />
        </mxCell>
        <mxCell id="szdLHGiIxJaR-g91UcTa-90" value="SETTING" style="rounded=1;whiteSpace=wrap;html=1;" parent="1" vertex="1">
          <mxGeometry x="250" y="970" width="120" height="40" as="geometry" />
        </mxCell>
        <mxCell id="szdLHGiIxJaR-g91UcTa-91" value="GOING_DOWN" style="rounded=1;whiteSpace=wrap;html=1;" parent="1" vertex="1">
          <mxGeometry x="695" y="870" width="115" height="50" as="geometry" />
        </mxCell>
        <mxCell id="szdLHGiIxJaR-g91UcTa-92" value="GOING_UP" style="rounded=1;whiteSpace=wrap;html=1;" parent="1" vertex="1">
          <mxGeometry x="695" y="1080" width="120" height="60" as="geometry" />
        </mxCell>
        <mxCell id="szdLHGiIxJaR-g91UcTa-93" value="STOPED" style="rounded=1;whiteSpace=wrap;html=1;" parent="1" vertex="1">
          <mxGeometry x="470" y="960" width="120" height="60" as="geometry" />
        </mxCell>
        <mxCell id="szdLHGiIxJaR-g91UcTa-95" value="" style="endArrow=classic;html=1;rounded=0;entryX=0;entryY=0.5;entryDx=0;entryDy=0;" parent="1" source="c_QAvzdcopTzSovkS03R-40" target="szdLHGiIxJaR-g91UcTa-90" edge="1">
          <mxGeometry width="50" height="50" relative="1" as="geometry">
            <mxPoint x="200" y="990" as="sourcePoint" />
            <mxPoint x="260" y="990" as="targetPoint" />
          </mxGeometry>
        </mxCell>
        <mxCell id="mmcZeP69K4tk3wHDepZf-3" value="WAIT_KEYBOARD" style="rounded=1;whiteSpace=wrap;html=1;" parent="1" vertex="1">
          <mxGeometry x="1410" y="950" width="120" height="60" as="geometry" />
        </mxCell>
        <mxCell id="mmcZeP69K4tk3wHDepZf-4" value="DEBOUNCE_KEYBOARD" style="rounded=1;whiteSpace=wrap;html=1;" parent="1" vertex="1">
          <mxGeometry x="1817.5" y="950" width="150" height="60" as="geometry" />
        </mxCell>
        <mxCell id="mmcZeP69K4tk3wHDepZf-5" value="PRESS_KEYBOARD" style="rounded=1;whiteSpace=wrap;html=1;" parent="1" vertex="1">
          <mxGeometry x="1610" y="1140" width="120" height="60" as="geometry" />
        </mxCell>
        <mxCell id="mmcZeP69K4tk3wHDepZf-7" value="&lt;div&gt;scanCol != 4 |&amp;nbsp;&lt;/div&gt;&lt;div&gt;keyRow = scanRow&lt;/div&gt;&lt;div&gt;keyCol = scanCol&lt;/div&gt;&lt;div&gt;delayInit()&amp;nbsp;&lt;/div&gt;" style="text;html=1;align=center;verticalAlign=middle;whiteSpace=wrap;rounded=0;" parent="1" vertex="1">
          <mxGeometry x="1575" y="900" width="210" height="30" as="geometry" />
        </mxCell>
        <mxCell id="hBTYBuzBTpRg6D6xtft0-1" value="&lt;b&gt;&lt;font style=&quot;font-size: 18px;&quot;&gt;MEF Administrador Teclado&lt;/font&gt;&lt;/b&gt;" style="text;html=1;align=center;verticalAlign=middle;whiteSpace=wrap;rounded=0;" parent="1" vertex="1">
          <mxGeometry x="70" y="1690" width="260" height="30" as="geometry" />
        </mxCell>
        <mxCell id="hBTYBuzBTpRg6D6xtft0-2" value="WAIT_MANAGER" style="rounded=1;whiteSpace=wrap;html=1;" parent="1" vertex="1">
          <mxGeometry x="140" y="1940" width="120" height="60" as="geometry" />
        </mxCell>
        <mxCell id="hBTYBuzBTpRg6D6xtft0-3" value="NUMBER_1" style="rounded=1;whiteSpace=wrap;html=1;" parent="1" vertex="1">
          <mxGeometry x="455" y="1835" width="120" height="60" as="geometry" />
        </mxCell>
        <mxCell id="hBTYBuzBTpRg6D6xtft0-9" value="FINISH" style="rounded=1;whiteSpace=wrap;html=1;" parent="1" vertex="1">
          <mxGeometry x="780" y="1940" width="120" height="60" as="geometry" />
        </mxCell>
        <mxCell id="hBTYBuzBTpRg6D6xtft0-10" value="NUMBER_2" style="rounded=1;whiteSpace=wrap;html=1;" parent="1" vertex="1">
          <mxGeometry x="440" y="2050" width="120" height="60" as="geometry" />
        </mxCell>
        <mxCell id="hBTYBuzBTpRg6D6xtft0-11" value="" style="curved=1;endArrow=classic;html=1;rounded=0;entryX=0;entryY=0.5;entryDx=0;entryDy=0;exitX=1;exitY=0.25;exitDx=0;exitDy=0;" parent="1" source="hBTYBuzBTpRg6D6xtft0-2" target="hBTYBuzBTpRg6D6xtft0-3" edge="1">
          <mxGeometry width="50" height="50" relative="1" as="geometry">
            <mxPoint x="310" y="2010" as="sourcePoint" />
            <mxPoint x="360" y="1960" as="targetPoint" />
            <Array as="points">
              <mxPoint x="330" y="1880" />
            </Array>
          </mxGeometry>
        </mxCell>
        <mxCell id="hBTYBuzBTpRg6D6xtft0-12" value="" style="curved=1;endArrow=classic;html=1;rounded=0;entryX=1;entryY=0.75;entryDx=0;entryDy=0;exitX=0;exitY=0.75;exitDx=0;exitDy=0;" parent="1" source="hBTYBuzBTpRg6D6xtft0-3" target="hBTYBuzBTpRg6D6xtft0-2" edge="1">
          <mxGeometry width="50" height="50" relative="1" as="geometry">
            <mxPoint x="330" y="2050" as="sourcePoint" />
            <mxPoint x="380" y="2000" as="targetPoint" />
            <Array as="points">
              <mxPoint x="440" y="2000" />
            </Array>
          </mxGeometry>
        </mxCell>
        <mxCell id="hBTYBuzBTpRg6D6xtft0-15" value="" style="curved=1;endArrow=classic;html=1;rounded=0;entryX=0.5;entryY=1;entryDx=0;entryDy=0;exitX=0.5;exitY=1;exitDx=0;exitDy=0;" parent="1" source="hBTYBuzBTpRg6D6xtft0-9" target="hBTYBuzBTpRg6D6xtft0-2" edge="1">
          <mxGeometry width="50" height="50" relative="1" as="geometry">
            <mxPoint x="630" y="2040" as="sourcePoint" />
            <mxPoint x="470" y="2040" as="targetPoint" />
            <Array as="points">
              <mxPoint x="830" y="2110" />
              <mxPoint x="640" y="2210" />
              <mxPoint x="290" y="2190" />
            </Array>
          </mxGeometry>
        </mxCell>
        <mxCell id="hBTYBuzBTpRg6D6xtft0-16" value="" style="curved=1;endArrow=classic;html=1;rounded=0;entryX=0.298;entryY=1.007;entryDx=0;entryDy=0;entryPerimeter=0;exitX=0.298;exitY=-0.03;exitDx=0;exitDy=0;exitPerimeter=0;" parent="1" source="hBTYBuzBTpRg6D6xtft0-10" target="hBTYBuzBTpRg6D6xtft0-3" edge="1">
          <mxGeometry width="50" height="50" relative="1" as="geometry">
            <mxPoint x="510" y="2060" as="sourcePoint" />
            <mxPoint x="320" y="1995" as="targetPoint" />
            <Array as="points">
              <mxPoint x="450" y="1980" />
            </Array>
          </mxGeometry>
        </mxCell>
        <mxCell id="hBTYBuzBTpRg6D6xtft0-18" value="" style="curved=1;endArrow=classic;html=1;rounded=0;entryX=0;entryY=0.5;entryDx=0;entryDy=0;exitX=1;exitY=0.5;exitDx=0;exitDy=0;" parent="1" source="hBTYBuzBTpRg6D6xtft0-3" target="hBTYBuzBTpRg6D6xtft0-9" edge="1">
          <mxGeometry width="50" height="50" relative="1" as="geometry">
            <mxPoint x="550" y="1990" as="sourcePoint" />
            <mxPoint x="695" y="1990" as="targetPoint" />
            <Array as="points">
              <mxPoint x="710" y="1870" />
            </Array>
          </mxGeometry>
        </mxCell>
        <mxCell id="hBTYBuzBTpRg6D6xtft0-19" value="" style="curved=1;endArrow=classic;html=1;rounded=0;entryX=0;entryY=1;entryDx=0;entryDy=0;exitX=1;exitY=0.5;exitDx=0;exitDy=0;" parent="1" source="hBTYBuzBTpRg6D6xtft0-10" target="hBTYBuzBTpRg6D6xtft0-9" edge="1">
          <mxGeometry width="50" height="50" relative="1" as="geometry">
            <mxPoint x="320" y="1980" as="sourcePoint" />
            <mxPoint x="465" y="1980" as="targetPoint" />
            <Array as="points">
              <mxPoint x="700" y="2110" />
            </Array>
          </mxGeometry>
        </mxCell>
        <mxCell id="hBTYBuzBTpRg6D6xtft0-20" value="" style="curved=1;endArrow=classic;html=1;rounded=0;entryX=0.75;entryY=0;entryDx=0;entryDy=0;exitX=0.75;exitY=1;exitDx=0;exitDy=0;" parent="1" source="hBTYBuzBTpRg6D6xtft0-3" target="hBTYBuzBTpRg6D6xtft0-10" edge="1">
          <mxGeometry width="50" height="50" relative="1" as="geometry">
            <mxPoint x="500" y="2030" as="sourcePoint" />
            <mxPoint x="645" y="2030" as="targetPoint" />
            <Array as="points">
              <mxPoint x="590" y="1980" />
            </Array>
          </mxGeometry>
        </mxCell>
        <mxCell id="hBTYBuzBTpRg6D6xtft0-24" value="keyOk ^ validate_number() ^ number == 3" style="text;html=1;align=center;verticalAlign=middle;whiteSpace=wrap;rounded=0;" parent="1" vertex="1">
          <mxGeometry x="650" y="1840" width="130" height="30" as="geometry" />
        </mxCell>
        <mxCell id="hBTYBuzBTpRg6D6xtft0-25" value="keyOk ^ validate_number() ^ number == 3" style="text;html=1;align=center;verticalAlign=middle;whiteSpace=wrap;rounded=0;" parent="1" vertex="1">
          <mxGeometry x="605" y="2020" width="130" height="30" as="geometry" />
        </mxCell>
        <mxCell id="hBTYBuzBTpRg6D6xtft0-26" value="keyOk ^ validate_number() ^ number == 7" style="text;html=1;align=center;verticalAlign=middle;whiteSpace=wrap;rounded=0;" parent="1" vertex="1">
          <mxGeometry x="290" y="1930" width="125" height="30" as="geometry" />
        </mxCell>
        <mxCell id="hBTYBuzBTpRg6D6xtft0-27" value="keyOk ^ validate_number() ^ number == 7" style="text;html=1;align=center;verticalAlign=middle;whiteSpace=wrap;rounded=0;" parent="1" vertex="1">
          <mxGeometry x="325" y="2015" width="125" height="30" as="geometry" />
        </mxCell>
        <mxCell id="hBTYBuzBTpRg6D6xtft0-29" value="keyOk ^ validate_number()" style="text;html=1;align=center;verticalAlign=middle;whiteSpace=wrap;rounded=0;" parent="1" vertex="1">
          <mxGeometry x="560" y="1940" width="165" height="30" as="geometry" />
        </mxCell>
        <mxCell id="hBTYBuzBTpRg6D6xtft0-30" value="keyOk ^ validate_number()" style="text;html=1;align=center;verticalAlign=middle;whiteSpace=wrap;rounded=0;" parent="1" vertex="1">
          <mxGeometry x="200" y="1860" width="165" height="30" as="geometry" />
        </mxCell>
        <mxCell id="hBTYBuzBTpRg6D6xtft0-31" value="" style="curved=1;endArrow=classic;html=1;rounded=0;entryX=0;entryY=0.5;entryDx=0;entryDy=0;exitX=1.004;exitY=0.353;exitDx=0;exitDy=0;exitPerimeter=0;" parent="1" source="mmcZeP69K4tk3wHDepZf-3" target="mmcZeP69K4tk3wHDepZf-4" edge="1">
          <mxGeometry width="50" height="50" relative="1" as="geometry">
            <mxPoint x="1560" y="1010" as="sourcePoint" />
            <mxPoint x="1610" y="960" as="targetPoint" />
            <Array as="points">
              <mxPoint x="1660" y="930" />
            </Array>
          </mxGeometry>
        </mxCell>
        <mxCell id="hBTYBuzBTpRg6D6xtft0-32" value="" style="curved=1;endArrow=classic;html=1;rounded=0;entryX=0.5;entryY=1;entryDx=0;entryDy=0;exitX=0;exitY=0.5;exitDx=0;exitDy=0;" parent="1" source="mmcZeP69K4tk3wHDepZf-5" target="mmcZeP69K4tk3wHDepZf-3" edge="1">
          <mxGeometry width="50" height="50" relative="1" as="geometry">
            <mxPoint x="1480" y="1200" as="sourcePoint" />
            <mxPoint x="1530" y="1150" as="targetPoint" />
            <Array as="points">
              <mxPoint x="1480" y="1150" />
            </Array>
          </mxGeometry>
        </mxCell>
        <mxCell id="hBTYBuzBTpRg6D6xtft0-33" value="" style="curved=1;endArrow=classic;html=1;rounded=0;exitX=0.433;exitY=1.067;exitDx=0;exitDy=0;exitPerimeter=0;entryX=1;entryY=0.5;entryDx=0;entryDy=0;" parent="1" source="mmcZeP69K4tk3wHDepZf-4" target="mmcZeP69K4tk3wHDepZf-5" edge="1">
          <mxGeometry width="50" height="50" relative="1" as="geometry">
            <mxPoint x="1880" y="1170" as="sourcePoint" />
            <mxPoint x="1930" y="1120" as="targetPoint" />
            <Array as="points">
              <mxPoint x="1880" y="1120" />
            </Array>
          </mxGeometry>
        </mxCell>
        <mxCell id="hBTYBuzBTpRg6D6xtft0-34" value="" style="curved=1;endArrow=classic;html=1;rounded=0;exitX=0;exitY=1;exitDx=0;exitDy=0;entryX=1.011;entryY=0.853;entryDx=0;entryDy=0;entryPerimeter=0;" parent="1" source="mmcZeP69K4tk3wHDepZf-4" target="mmcZeP69K4tk3wHDepZf-3" edge="1">
          <mxGeometry width="50" height="50" relative="1" as="geometry">
            <mxPoint x="1712" y="1020" as="sourcePoint" />
            <mxPoint x="1600" y="1137" as="targetPoint" />
            <Array as="points">
              <mxPoint x="1650" y="1060" />
            </Array>
          </mxGeometry>
        </mxCell>
        <mxCell id="hBTYBuzBTpRg6D6xtft0-35" value="&lt;b&gt;&lt;font style=&quot;font-size: 18px;&quot;&gt;MEF Teclado&lt;/font&gt;&lt;/b&gt;" style="text;html=1;align=center;verticalAlign=middle;whiteSpace=wrap;rounded=0;" parent="1" vertex="1">
          <mxGeometry x="1220" y="850" width="140" height="30" as="geometry" />
        </mxCell>
        <mxCell id="c_QAvzdcopTzSovkS03R-1" value="" style="curved=1;endArrow=classic;html=1;rounded=0;entryX=0;entryY=0.5;entryDx=0;entryDy=0;exitX=1;exitY=0.5;exitDx=0;exitDy=0;" parent="1" source="szdLHGiIxJaR-g91UcTa-90" target="szdLHGiIxJaR-g91UcTa-93" edge="1">
          <mxGeometry width="50" height="50" relative="1" as="geometry">
            <mxPoint x="350" y="1100" as="sourcePoint" />
            <mxPoint x="400" y="1050" as="targetPoint" />
            <Array as="points">
              <mxPoint x="400" y="970" />
            </Array>
          </mxGeometry>
        </mxCell>
        <mxCell id="c_QAvzdcopTzSovkS03R-2" value="" style="curved=1;endArrow=classic;html=1;rounded=0;entryX=1;entryY=1;entryDx=0;entryDy=0;exitX=0.083;exitY=1.067;exitDx=0;exitDy=0;exitPerimeter=0;" parent="1" source="szdLHGiIxJaR-g91UcTa-93" target="szdLHGiIxJaR-g91UcTa-90" edge="1">
          <mxGeometry width="50" height="50" relative="1" as="geometry">
            <mxPoint x="400" y="1120" as="sourcePoint" />
            <mxPoint x="450" y="1070" as="targetPoint" />
            <Array as="points">
              <mxPoint x="450" y="1050" />
              <mxPoint x="390" y="1040" />
            </Array>
          </mxGeometry>
        </mxCell>
        <mxCell id="c_QAvzdcopTzSovkS03R-3" value="eSetting ^ currentFloor == 0" style="text;html=1;align=center;verticalAlign=middle;whiteSpace=wrap;rounded=0;" parent="1" vertex="1">
          <mxGeometry x="310" y="1050" width="170" height="30" as="geometry" />
        </mxCell>
        <mxCell id="c_QAvzdcopTzSovkS03R-4" value="option == 6" style="text;html=1;align=center;verticalAlign=middle;whiteSpace=wrap;rounded=0;" parent="1" vertex="1">
          <mxGeometry x="370" y="940" width="100" height="30" as="geometry" />
        </mxCell>
        <mxCell id="c_QAvzdcopTzSovkS03R-5" value="order ^ go ^ direction == GOING_DOWN" style="text;html=1;align=center;verticalAlign=middle;whiteSpace=wrap;rounded=0;" parent="1" vertex="1">
          <mxGeometry x="410" y="880" width="250" height="30" as="geometry" />
        </mxCell>
        <mxCell id="c_QAvzdcopTzSovkS03R-7" value="" style="curved=1;endArrow=classic;html=1;rounded=0;entryX=0;entryY=0.5;entryDx=0;entryDy=0;exitX=1;exitY=0.25;exitDx=0;exitDy=0;" parent="1" source="szdLHGiIxJaR-g91UcTa-93" target="szdLHGiIxJaR-g91UcTa-91" edge="1">
          <mxGeometry width="50" height="50" relative="1" as="geometry">
            <mxPoint x="640" y="1030" as="sourcePoint" />
            <mxPoint x="690" y="980" as="targetPoint" />
            <Array as="points">
              <mxPoint x="620" y="910" />
            </Array>
          </mxGeometry>
        </mxCell>
        <mxCell id="c_QAvzdcopTzSovkS03R-8" value="" style="curved=1;endArrow=classic;html=1;rounded=0;entryX=0;entryY=0.5;entryDx=0;entryDy=0;exitX=0.925;exitY=1.017;exitDx=0;exitDy=0;exitPerimeter=0;" parent="1" source="szdLHGiIxJaR-g91UcTa-93" target="szdLHGiIxJaR-g91UcTa-92" edge="1">
          <mxGeometry width="50" height="50" relative="1" as="geometry">
            <mxPoint x="550" y="1110" as="sourcePoint" />
            <mxPoint x="600" y="1060" as="targetPoint" />
            <Array as="points">
              <mxPoint x="600" y="1110" />
            </Array>
          </mxGeometry>
        </mxCell>
        <mxCell id="c_QAvzdcopTzSovkS03R-9" value="" style="curved=1;endArrow=classic;html=1;rounded=0;entryX=1.008;entryY=0.4;entryDx=0;entryDy=0;entryPerimeter=0;exitX=0.25;exitY=1;exitDx=0;exitDy=0;" parent="1" source="szdLHGiIxJaR-g91UcTa-91" target="szdLHGiIxJaR-g91UcTa-93" edge="1">
          <mxGeometry width="50" height="50" relative="1" as="geometry">
            <mxPoint x="740" y="1020" as="sourcePoint" />
            <mxPoint x="790" y="970" as="targetPoint" />
            <Array as="points">
              <mxPoint x="700" y="1020" />
            </Array>
          </mxGeometry>
        </mxCell>
        <mxCell id="c_QAvzdcopTzSovkS03R-11" value="" style="curved=1;endArrow=classic;html=1;rounded=0;entryX=1;entryY=0.75;entryDx=0;entryDy=0;exitX=0.25;exitY=0;exitDx=0;exitDy=0;" parent="1" source="szdLHGiIxJaR-g91UcTa-92" target="szdLHGiIxJaR-g91UcTa-93" edge="1">
          <mxGeometry width="50" height="50" relative="1" as="geometry">
            <mxPoint x="860" y="1060" as="sourcePoint" />
            <mxPoint x="910" y="1010" as="targetPoint" />
            <Array as="points">
              <mxPoint x="710" y="1050" />
              <mxPoint x="640" y="1010" />
            </Array>
          </mxGeometry>
        </mxCell>
        <mxCell id="c_QAvzdcopTzSovkS03R-12" value="currentFloor == destiny" style="text;html=1;align=center;verticalAlign=middle;whiteSpace=wrap;rounded=0;" parent="1" vertex="1">
          <mxGeometry x="720" y="1030" width="150" height="30" as="geometry" />
        </mxCell>
        <mxCell id="c_QAvzdcopTzSovkS03R-13" value="" style="rounded=1;whiteSpace=wrap;html=1;" parent="1" vertex="1">
          <mxGeometry x="130" y="170" width="710" height="490" as="geometry" />
        </mxCell>
        <mxCell id="c_QAvzdcopTzSovkS03R-14" value="MENU" style="rounded=1;whiteSpace=wrap;html=1;" parent="1" vertex="1">
          <mxGeometry x="225" y="360" width="115" height="55" as="geometry" />
        </mxCell>
        <mxCell id="c_QAvzdcopTzSovkS03R-15" value="option == 1" style="text;html=1;align=center;verticalAlign=middle;whiteSpace=wrap;rounded=0;" parent="1" vertex="1">
          <mxGeometry x="380" y="260" width="80" height="30" as="geometry" />
        </mxCell>
        <mxCell id="c_QAvzdcopTzSovkS03R-16" value="option == 6" style="text;html=1;align=center;verticalAlign=middle;whiteSpace=wrap;rounded=0;" parent="1" vertex="1">
          <mxGeometry x="360" y="600" width="90" height="30" as="geometry" />
        </mxCell>
        <mxCell id="c_QAvzdcopTzSovkS03R-17" value="option&amp;nbsp;== 5" style="text;html=1;align=center;verticalAlign=middle;whiteSpace=wrap;rounded=0;" parent="1" vertex="1">
          <mxGeometry x="430" y="510" width="70" height="30" as="geometry" />
        </mxCell>
        <mxCell id="c_QAvzdcopTzSovkS03R-18" value="" style="rounded=1;whiteSpace=wrap;html=1;" parent="1" vertex="1">
          <mxGeometry x="540" y="260" width="250" height="320" as="geometry" />
        </mxCell>
        <mxCell id="c_QAvzdcopTzSovkS03R-19" value="SET_SPEED_FLOOR" style="rounded=1;whiteSpace=wrap;html=1;" parent="1" vertex="1">
          <mxGeometry x="575" y="300" width="170" height="40" as="geometry" />
        </mxCell>
        <mxCell id="c_QAvzdcopTzSovkS03R-20" value="SET_SPEED_DOOR" style="rounded=1;whiteSpace=wrap;html=1;" parent="1" vertex="1">
          <mxGeometry x="575" y="360" width="180" height="30" as="geometry" />
        </mxCell>
        <mxCell id="c_QAvzdcopTzSovkS03R-21" value="SET_TOTAL_FLOORS" style="rounded=1;whiteSpace=wrap;html=1;" parent="1" vertex="1">
          <mxGeometry x="575" y="410" width="170" height="40" as="geometry" />
        </mxCell>
        <mxCell id="c_QAvzdcopTzSovkS03R-22" value="SET_TOTAL_SUB" style="rounded=1;whiteSpace=wrap;html=1;" parent="1" vertex="1">
          <mxGeometry x="575" y="465" width="160" height="40" as="geometry" />
        </mxCell>
        <mxCell id="c_QAvzdcopTzSovkS03R-24" value="Options" style="text;html=1;align=center;verticalAlign=middle;whiteSpace=wrap;rounded=0;" parent="1" vertex="1">
          <mxGeometry x="570" y="260" width="60" height="30" as="geometry" />
        </mxCell>
        <mxCell id="c_QAvzdcopTzSovkS03R-25" value="" style="curved=1;endArrow=classic;html=1;rounded=0;entryX=0;entryY=0.5;entryDx=0;entryDy=0;exitX=0.75;exitY=0;exitDx=0;exitDy=0;" parent="1" source="c_QAvzdcopTzSovkS03R-14" target="c_QAvzdcopTzSovkS03R-19" edge="1">
          <mxGeometry width="50" height="50" relative="1" as="geometry">
            <mxPoint x="260" y="545" as="sourcePoint" />
            <mxPoint x="410" y="520" as="targetPoint" />
            <Array as="points">
              <mxPoint x="410" y="255" />
            </Array>
          </mxGeometry>
        </mxCell>
        <mxCell id="c_QAvzdcopTzSovkS03R-26" value="" style="curved=1;endArrow=classic;html=1;rounded=0;entryX=0;entryY=0.5;entryDx=0;entryDy=0;exitX=1;exitY=0.25;exitDx=0;exitDy=0;" parent="1" source="c_QAvzdcopTzSovkS03R-14" target="c_QAvzdcopTzSovkS03R-20" edge="1">
          <mxGeometry width="50" height="50" relative="1" as="geometry">
            <mxPoint x="470" y="425" as="sourcePoint" />
            <mxPoint x="520" y="375" as="targetPoint" />
            <Array as="points">
              <mxPoint x="430" y="310" />
            </Array>
          </mxGeometry>
        </mxCell>
        <mxCell id="c_QAvzdcopTzSovkS03R-27" value="" style="curved=1;endArrow=classic;html=1;rounded=0;entryX=0;entryY=0.5;entryDx=0;entryDy=0;exitX=1;exitY=0.5;exitDx=0;exitDy=0;" parent="1" source="c_QAvzdcopTzSovkS03R-14" target="c_QAvzdcopTzSovkS03R-21" edge="1">
          <mxGeometry width="50" height="50" relative="1" as="geometry">
            <mxPoint x="300" y="385" as="sourcePoint" />
            <mxPoint x="595" y="320" as="targetPoint" />
            <Array as="points">
              <mxPoint x="450" y="380" />
            </Array>
          </mxGeometry>
        </mxCell>
        <mxCell id="c_QAvzdcopTzSovkS03R-28" value="" style="curved=1;endArrow=classic;html=1;rounded=0;entryX=0;entryY=0.5;entryDx=0;entryDy=0;exitX=1;exitY=0.75;exitDx=0;exitDy=0;" parent="1" source="c_QAvzdcopTzSovkS03R-14" target="c_QAvzdcopTzSovkS03R-22" edge="1">
          <mxGeometry width="50" height="50" relative="1" as="geometry">
            <mxPoint x="310" y="395" as="sourcePoint" />
            <mxPoint x="605" y="330" as="targetPoint" />
            <Array as="points">
              <mxPoint x="470" y="480" />
            </Array>
          </mxGeometry>
        </mxCell>
        <mxCell id="c_QAvzdcopTzSovkS03R-30" value="option&amp;nbsp;== 2" style="text;html=1;align=center;verticalAlign=middle;whiteSpace=wrap;rounded=0;" parent="1" vertex="1">
          <mxGeometry x="430" y="310" width="70" height="30" as="geometry" />
        </mxCell>
        <mxCell id="c_QAvzdcopTzSovkS03R-31" value="option&amp;nbsp;== 3" style="text;html=1;align=center;verticalAlign=middle;whiteSpace=wrap;rounded=0;" parent="1" vertex="1">
          <mxGeometry x="440" y="370" width="75" height="30" as="geometry" />
        </mxCell>
        <mxCell id="c_QAvzdcopTzSovkS03R-32" value="option&amp;nbsp;== 4" style="text;html=1;align=center;verticalAlign=middle;whiteSpace=wrap;rounded=0;" parent="1" vertex="1">
          <mxGeometry x="447.5" y="435" width="75" height="30" as="geometry" />
        </mxCell>
        <mxCell id="c_QAvzdcopTzSovkS03R-33" value="" style="curved=1;endArrow=classic;html=1;rounded=0;entryX=0.75;entryY=1;entryDx=0;entryDy=0;exitX=0.016;exitY=0.919;exitDx=0;exitDy=0;exitPerimeter=0;" parent="1" source="c_QAvzdcopTzSovkS03R-18" target="c_QAvzdcopTzSovkS03R-14" edge="1">
          <mxGeometry width="50" height="50" relative="1" as="geometry">
            <mxPoint x="300" y="575" as="sourcePoint" />
            <mxPoint x="350" y="525" as="targetPoint" />
            <Array as="points">
              <mxPoint x="430" y="554" />
              <mxPoint x="330" y="490" />
            </Array>
          </mxGeometry>
        </mxCell>
        <mxCell id="c_QAvzdcopTzSovkS03R-34" value="" style="curved=1;endArrow=classic;html=1;rounded=0;exitX=0.25;exitY=1;exitDx=0;exitDy=0;" parent="1" source="c_QAvzdcopTzSovkS03R-14" edge="1">
          <mxGeometry width="50" height="50" relative="1" as="geometry">
            <mxPoint x="260" y="655" as="sourcePoint" />
            <mxPoint x="1070" y="670" as="targetPoint" />
            <Array as="points">
              <mxPoint x="210" y="580" />
              <mxPoint x="540" y="700" />
            </Array>
          </mxGeometry>
        </mxCell>
        <mxCell id="c_QAvzdcopTzSovkS03R-36" value="" style="endArrow=classic;html=1;rounded=0;entryX=0;entryY=0.5;entryDx=0;entryDy=0;" parent="1" source="c_QAvzdcopTzSovkS03R-37" target="c_QAvzdcopTzSovkS03R-14" edge="1">
          <mxGeometry width="50" height="50" relative="1" as="geometry">
            <mxPoint x="100" y="420" as="sourcePoint" />
            <mxPoint x="200" y="380" as="targetPoint" />
          </mxGeometry>
        </mxCell>
        <mxCell id="c_QAvzdcopTzSovkS03R-37" value="" style="shape=waypoint;sketch=0;fillStyle=solid;size=6;pointerEvents=1;points=[];fillColor=none;resizable=0;rotatable=0;perimeter=centerPerimeter;snapToPoint=1;" parent="1" vertex="1">
          <mxGeometry x="165" y="377.5" width="20" height="20" as="geometry" />
        </mxCell>
        <mxCell id="c_QAvzdcopTzSovkS03R-38" value="" style="shape=waypoint;sketch=0;fillStyle=solid;size=6;pointerEvents=1;points=[];fillColor=none;resizable=0;rotatable=0;perimeter=centerPerimeter;snapToPoint=1;" parent="1" vertex="1">
          <mxGeometry x="30" y="380" width="20" height="20" as="geometry" />
        </mxCell>
        <mxCell id="c_QAvzdcopTzSovkS03R-39" value="" style="endArrow=classic;html=1;rounded=0;entryX=1;entryY=0.5;entryDx=0;entryDy=0;" parent="1" target="c_QAvzdcopTzSovkS03R-13" edge="1">
          <mxGeometry width="50" height="50" relative="1" as="geometry">
            <mxPoint x="1080" y="415" as="sourcePoint" />
            <mxPoint x="1060" y="480" as="targetPoint" />
          </mxGeometry>
        </mxCell>
        <mxCell id="c_QAvzdcopTzSovkS03R-40" value="" style="shape=waypoint;sketch=0;fillStyle=solid;size=6;pointerEvents=1;points=[];fillColor=none;resizable=0;rotatable=0;perimeter=centerPerimeter;snapToPoint=1;" parent="1" vertex="1">
          <mxGeometry x="190" y="980" width="20" height="20" as="geometry" />
        </mxCell>
        <mxCell id="c_QAvzdcopTzSovkS03R-41" value="" style="endArrow=classic;html=1;rounded=0;entryX=0;entryY=0.449;entryDx=0;entryDy=0;entryPerimeter=0;exitX=0.89;exitY=0.979;exitDx=0;exitDy=0;exitPerimeter=0;" parent="1" source="c_QAvzdcopTzSovkS03R-38" target="c_QAvzdcopTzSovkS03R-13" edge="1">
          <mxGeometry width="50" height="50" relative="1" as="geometry">
            <mxPoint x="40" y="460" as="sourcePoint" />
            <mxPoint x="90" y="410" as="targetPoint" />
          </mxGeometry>
        </mxCell>
        <mxCell id="c_QAvzdcopTzSovkS03R-42" value="" style="shape=waypoint;sketch=0;fillStyle=solid;size=6;pointerEvents=1;points=[];fillColor=none;resizable=0;rotatable=0;perimeter=centerPerimeter;snapToPoint=1;" parent="1" vertex="1">
          <mxGeometry x="70" y="1960" width="20" height="20" as="geometry" />
        </mxCell>
        <mxCell id="c_QAvzdcopTzSovkS03R-43" value="" style="endArrow=classic;html=1;rounded=0;entryX=0;entryY=0.5;entryDx=0;entryDy=0;exitX=1.04;exitY=0.22;exitDx=0;exitDy=0;exitPerimeter=0;" parent="1" source="c_QAvzdcopTzSovkS03R-42" target="hBTYBuzBTpRg6D6xtft0-2" edge="1">
          <mxGeometry width="50" height="50" relative="1" as="geometry">
            <mxPoint x="90" y="1970" as="sourcePoint" />
            <mxPoint x="120" y="2010" as="targetPoint" />
          </mxGeometry>
        </mxCell>
        <mxCell id="c_QAvzdcopTzSovkS03R-44" value="SETTINGS" style="text;html=1;align=center;verticalAlign=middle;whiteSpace=wrap;rounded=0;" parent="1" vertex="1">
          <mxGeometry x="185" y="185" width="60" height="30" as="geometry" />
        </mxCell>
        <mxCell id="c_QAvzdcopTzSovkS03R-45" value="" style="endArrow=classic;html=1;rounded=0;entryX=0;entryY=0.5;entryDx=0;entryDy=0;" parent="1" source="c_QAvzdcopTzSovkS03R-46" target="mmcZeP69K4tk3wHDepZf-3" edge="1">
          <mxGeometry width="50" height="50" relative="1" as="geometry">
            <mxPoint x="1320" y="980" as="sourcePoint" />
            <mxPoint x="1370" y="980" as="targetPoint" />
          </mxGeometry>
        </mxCell>
        <mxCell id="c_QAvzdcopTzSovkS03R-46" value="" style="shape=waypoint;sketch=0;fillStyle=solid;size=6;pointerEvents=1;points=[];fillColor=none;resizable=0;rotatable=0;perimeter=centerPerimeter;snapToPoint=1;" parent="1" vertex="1">
          <mxGeometry x="1350" y="970" width="20" height="20" as="geometry" />
        </mxCell>
        <mxCell id="c_QAvzdcopTzSovkS03R-47" value="&lt;b&gt;&lt;font style=&quot;font-size: 18px;&quot;&gt;MEF Boton&lt;/font&gt;&lt;/b&gt;" style="text;html=1;align=center;verticalAlign=middle;whiteSpace=wrap;rounded=0;" parent="1" vertex="1">
          <mxGeometry x="1230" y="1290" width="140" height="30" as="geometry" />
        </mxCell>
        <mxCell id="c_QAvzdcopTzSovkS03R-48" value="WAIT_BUTTON" style="rounded=1;whiteSpace=wrap;html=1;" parent="1" vertex="1">
          <mxGeometry x="1420" y="1350" width="120" height="60" as="geometry" />
        </mxCell>
        <mxCell id="c_QAvzdcopTzSovkS03R-49" value="DEBOUNCE_BUTTON" style="rounded=1;whiteSpace=wrap;html=1;" parent="1" vertex="1">
          <mxGeometry x="1830" y="1360" width="140" height="60" as="geometry" />
        </mxCell>
        <mxCell id="c_QAvzdcopTzSovkS03R-50" value="PRESS_BUTTON" style="rounded=1;whiteSpace=wrap;html=1;" parent="1" vertex="1">
          <mxGeometry x="1620" y="1540" width="120" height="60" as="geometry" />
        </mxCell>
        <mxCell id="c_QAvzdcopTzSovkS03R-51" value="" style="curved=1;endArrow=classic;html=1;rounded=0;entryX=0;entryY=0.5;entryDx=0;entryDy=0;exitX=1;exitY=0.5;exitDx=0;exitDy=0;" parent="1" source="c_QAvzdcopTzSovkS03R-48" target="c_QAvzdcopTzSovkS03R-49" edge="1">
          <mxGeometry width="50" height="50" relative="1" as="geometry">
            <mxPoint x="1570" y="1410" as="sourcePoint" />
            <mxPoint x="1620" y="1360" as="targetPoint" />
            <Array as="points">
              <mxPoint x="1670" y="1330" />
            </Array>
          </mxGeometry>
        </mxCell>
        <mxCell id="c_QAvzdcopTzSovkS03R-52" value="" style="curved=1;endArrow=classic;html=1;rounded=0;entryX=0.5;entryY=1;entryDx=0;entryDy=0;exitX=0;exitY=0.5;exitDx=0;exitDy=0;" parent="1" source="c_QAvzdcopTzSovkS03R-50" target="c_QAvzdcopTzSovkS03R-48" edge="1">
          <mxGeometry width="50" height="50" relative="1" as="geometry">
            <mxPoint x="1490" y="1600" as="sourcePoint" />
            <mxPoint x="1540" y="1550" as="targetPoint" />
            <Array as="points">
              <mxPoint x="1490" y="1550" />
            </Array>
          </mxGeometry>
        </mxCell>
        <mxCell id="c_QAvzdcopTzSovkS03R-53" value="" style="curved=1;endArrow=classic;html=1;rounded=0;exitX=0.433;exitY=1.067;exitDx=0;exitDy=0;exitPerimeter=0;entryX=1;entryY=0.5;entryDx=0;entryDy=0;" parent="1" source="c_QAvzdcopTzSovkS03R-49" target="c_QAvzdcopTzSovkS03R-50" edge="1">
          <mxGeometry width="50" height="50" relative="1" as="geometry">
            <mxPoint x="1890" y="1570" as="sourcePoint" />
            <mxPoint x="1940" y="1520" as="targetPoint" />
            <Array as="points">
              <mxPoint x="1890" y="1520" />
            </Array>
          </mxGeometry>
        </mxCell>
        <mxCell id="c_QAvzdcopTzSovkS03R-54" value="" style="curved=1;endArrow=classic;html=1;rounded=0;exitX=0;exitY=1;exitDx=0;exitDy=0;entryX=0.933;entryY=1.017;entryDx=0;entryDy=0;entryPerimeter=0;" parent="1" source="c_QAvzdcopTzSovkS03R-49" target="c_QAvzdcopTzSovkS03R-48" edge="1">
          <mxGeometry width="50" height="50" relative="1" as="geometry">
            <mxPoint x="1722" y="1420" as="sourcePoint" />
            <mxPoint x="1610" y="1537" as="targetPoint" />
            <Array as="points">
              <mxPoint x="1660" y="1480" />
            </Array>
          </mxGeometry>
        </mxCell>
        <mxCell id="c_QAvzdcopTzSovkS03R-55" value="" style="endArrow=classic;html=1;rounded=0;entryX=0;entryY=0.5;entryDx=0;entryDy=0;" parent="1" source="c_QAvzdcopTzSovkS03R-56" target="c_QAvzdcopTzSovkS03R-48" edge="1">
          <mxGeometry width="50" height="50" relative="1" as="geometry">
            <mxPoint x="1330" y="1380" as="sourcePoint" />
            <mxPoint x="1380" y="1380" as="targetPoint" />
          </mxGeometry>
        </mxCell>
        <mxCell id="c_QAvzdcopTzSovkS03R-56" value="" style="shape=waypoint;sketch=0;fillStyle=solid;size=6;pointerEvents=1;points=[];fillColor=none;resizable=0;rotatable=0;perimeter=centerPerimeter;snapToPoint=1;" parent="1" vertex="1">
          <mxGeometry x="1360" y="1370" width="20" height="20" as="geometry" />
        </mxCell>
        <mxCell id="c_QAvzdcopTzSovkS03R-58" value="gpioRead(GPIO) == 1 | delayRead()" style="text;html=1;align=center;verticalAlign=middle;whiteSpace=wrap;rounded=0;" parent="1" vertex="1">
          <mxGeometry x="1605" y="1310" width="130" height="30" as="geometry" />
        </mxCell>
        <mxCell id="c_QAvzdcopTzSovkS03R-59" value="delayRead() ^ gpioRead(GPIO) == 1 ^ buttonAccess == 1 |&lt;div&gt;insert_EventQueue()&lt;/div&gt;" style="text;html=1;align=center;verticalAlign=middle;whiteSpace=wrap;rounded=0;" parent="1" vertex="1">
          <mxGeometry x="1860" y="1470" width="230" height="80" as="geometry" />
        </mxCell>
        <mxCell id="c_QAvzdcopTzSovkS03R-60" value="delayRead() ^ gpioRead(GPIO) == 0" style="text;html=1;align=center;verticalAlign=middle;whiteSpace=wrap;rounded=0;" parent="1" vertex="1">
          <mxGeometry x="1570" y="1460" width="230" height="30" as="geometry" />
        </mxCell>
        <mxCell id="c_QAvzdcopTzSovkS03R-61" value="gpioRead(GPIO) == 0" style="text;html=1;align=center;verticalAlign=middle;whiteSpace=wrap;rounded=0;" parent="1" vertex="1">
          <mxGeometry x="1415" y="1540" width="140" height="30" as="geometry" />
        </mxCell>
        <mxCell id="aKogjKwM2gZrP8pjDH4B-1" value="&lt;div&gt;&lt;br&gt;&lt;/div&gt;&lt;div&gt;&lt;br&gt;&lt;/div&gt;&lt;div&gt;&lt;span style=&quot;background-color: transparent; color: light-dark(rgb(0, 0, 0), rgb(255, 255, 255));&quot;&gt;LED1: ascensor en movimiento.&lt;/span&gt;&lt;/div&gt;&lt;div&gt;LED2: ascensor detenido o en planta baja.&lt;/div&gt;&lt;div&gt;LED3: puerta abierta.&lt;/div&gt;&lt;div&gt;LED VERDE:&amp;nbsp; problema con puerta.&lt;/div&gt;&lt;div&gt;&lt;div&gt;&lt;div&gt;LED AZUL: puerta abriÃ©ndose.&lt;/div&gt;&lt;div&gt;LED AMARILLO: puerta cerrÃ¡ndose.&lt;/div&gt;&lt;/div&gt;&lt;div&gt;&lt;br&gt;&lt;/div&gt;&lt;div&gt;&lt;br&gt;&lt;/div&gt;&lt;/div&gt;&lt;div&gt;&lt;br style=&quot;&quot;&gt;&lt;/div&gt;" style="text;html=1;align=left;verticalAlign=middle;whiteSpace=wrap;rounded=0;" parent="1" vertex="1">
          <mxGeometry x="1390" y="40" width="300" height="110" as="geometry" />
        </mxCell>
        <mxCell id="mfT5ryJDW7ZpNOFKt1oW-1" value="&lt;b&gt;&lt;font style=&quot;font-size: 18px;&quot;&gt;Estructura del proyecto&lt;/font&gt;&lt;/b&gt;" style="text;html=1;align=center;verticalAlign=middle;whiteSpace=wrap;rounded=0;" parent="1" vertex="1">
          <mxGeometry x="50" y="2560" width="260" height="30" as="geometry" />
        </mxCell>
        <mxCell id="mfT5ryJDW7ZpNOFKt1oW-2" value="Keyboard" style="rounded=0;whiteSpace=wrap;html=1;" parent="1" vertex="1">
          <mxGeometry x="607.5" y="2660" width="105" height="50" as="geometry" />
        </mxCell>
        <mxCell id="mfT5ryJDW7ZpNOFKt1oW-3" value="" style="rounded=0;whiteSpace=wrap;html=1;" parent="1" vertex="1">
          <mxGeometry x="590" y="2760" width="140" height="40" as="geometry" />
        </mxCell>
        <mxCell id="mfT5ryJDW7ZpNOFKt1oW-4" value="" style="endArrow=none;html=1;rounded=0;entryX=0.25;entryY=0;entryDx=0;entryDy=0;exitX=0.25;exitY=1;exitDx=0;exitDy=0;" parent="1" source="mfT5ryJDW7ZpNOFKt1oW-3" target="mfT5ryJDW7ZpNOFKt1oW-3" edge="1">
          <mxGeometry width="50" height="50" relative="1" as="geometry">
            <mxPoint x="602.5" y="2820" as="sourcePoint" />
            <mxPoint x="652.5" y="2770" as="targetPoint" />
          </mxGeometry>
        </mxCell>
        <mxCell id="mfT5ryJDW7ZpNOFKt1oW-5" value="" style="endArrow=none;html=1;rounded=0;entryX=0.5;entryY=0;entryDx=0;entryDy=0;exitX=0.5;exitY=1;exitDx=0;exitDy=0;" parent="1" source="mfT5ryJDW7ZpNOFKt1oW-3" target="mfT5ryJDW7ZpNOFKt1oW-3" edge="1">
          <mxGeometry width="50" height="50" relative="1" as="geometry">
            <mxPoint x="632.5" y="2820" as="sourcePoint" />
            <mxPoint x="682.5" y="2770" as="targetPoint" />
          </mxGeometry>
        </mxCell>
        <mxCell id="mfT5ryJDW7ZpNOFKt1oW-6" value="" style="endArrow=none;html=1;rounded=0;entryX=0.75;entryY=0;entryDx=0;entryDy=0;exitX=0.75;exitY=1;exitDx=0;exitDy=0;" parent="1" source="mfT5ryJDW7ZpNOFKt1oW-3" target="mfT5ryJDW7ZpNOFKt1oW-3" edge="1">
          <mxGeometry width="50" height="50" relative="1" as="geometry">
            <mxPoint x="662.5" y="2830" as="sourcePoint" />
            <mxPoint x="712.5" y="2780" as="targetPoint" />
          </mxGeometry>
        </mxCell>
        <mxCell id="mfT5ryJDW7ZpNOFKt1oW-7" value="keyQueue" style="text;html=1;align=center;verticalAlign=middle;whiteSpace=wrap;rounded=0;" parent="1" vertex="1">
          <mxGeometry x="746.5" y="2765" width="60" height="30" as="geometry" />
        </mxCell>
        <mxCell id="mfT5ryJDW7ZpNOFKt1oW-8" value="" style="endArrow=classic;html=1;rounded=0;exitX=0.5;exitY=1;exitDx=0;exitDy=0;entryX=0.5;entryY=0;entryDx=0;entryDy=0;" parent="1" source="mfT5ryJDW7ZpNOFKt1oW-2" target="mfT5ryJDW7ZpNOFKt1oW-3" edge="1">
          <mxGeometry width="50" height="50" relative="1" as="geometry">
            <mxPoint x="812.5" y="2750" as="sourcePoint" />
            <mxPoint x="862.5" y="2700" as="targetPoint" />
          </mxGeometry>
        </mxCell>
        <mxCell id="mfT5ryJDW7ZpNOFKt1oW-9" value="" style="rounded=0;whiteSpace=wrap;html=1;" parent="1" vertex="1">
          <mxGeometry x="322.5" y="2760" width="140" height="40" as="geometry" />
        </mxCell>
        <mxCell id="mfT5ryJDW7ZpNOFKt1oW-10" value="" style="endArrow=none;html=1;rounded=0;entryX=0.25;entryY=0;entryDx=0;entryDy=0;exitX=0.25;exitY=1;exitDx=0;exitDy=0;" parent="1" source="mfT5ryJDW7ZpNOFKt1oW-9" target="mfT5ryJDW7ZpNOFKt1oW-9" edge="1">
          <mxGeometry width="50" height="50" relative="1" as="geometry">
            <mxPoint x="-147.5" y="2960" as="sourcePoint" />
            <mxPoint x="-97.5" y="2910" as="targetPoint" />
          </mxGeometry>
        </mxCell>
        <mxCell id="mfT5ryJDW7ZpNOFKt1oW-11" value="" style="endArrow=none;html=1;rounded=0;entryX=0.5;entryY=0;entryDx=0;entryDy=0;exitX=0.5;exitY=1;exitDx=0;exitDy=0;" parent="1" source="mfT5ryJDW7ZpNOFKt1oW-9" target="mfT5ryJDW7ZpNOFKt1oW-9" edge="1">
          <mxGeometry width="50" height="50" relative="1" as="geometry">
            <mxPoint x="-117.5" y="2960" as="sourcePoint" />
            <mxPoint x="-67.5" y="2910" as="targetPoint" />
          </mxGeometry>
        </mxCell>
        <mxCell id="mfT5ryJDW7ZpNOFKt1oW-12" value="" style="endArrow=none;html=1;rounded=0;entryX=0.75;entryY=0;entryDx=0;entryDy=0;exitX=0.75;exitY=1;exitDx=0;exitDy=0;" parent="1" source="mfT5ryJDW7ZpNOFKt1oW-9" target="mfT5ryJDW7ZpNOFKt1oW-9" edge="1">
          <mxGeometry width="50" height="50" relative="1" as="geometry">
            <mxPoint x="-87.5" y="2970" as="sourcePoint" />
            <mxPoint x="-37.5" y="2920" as="targetPoint" />
          </mxGeometry>
        </mxCell>
        <mxCell id="mfT5ryJDW7ZpNOFKt1oW-13" value="" style="rounded=0;whiteSpace=wrap;html=1;" parent="1" vertex="1">
          <mxGeometry x="242.5" y="3000" width="140" height="40" as="geometry" />
        </mxCell>
        <mxCell id="mfT5ryJDW7ZpNOFKt1oW-14" value="" style="endArrow=none;html=1;rounded=0;entryX=0.25;entryY=0;entryDx=0;entryDy=0;exitX=0.25;exitY=1;exitDx=0;exitDy=0;" parent="1" source="mfT5ryJDW7ZpNOFKt1oW-13" target="mfT5ryJDW7ZpNOFKt1oW-13" edge="1">
          <mxGeometry width="50" height="50" relative="1" as="geometry">
            <mxPoint x="255" y="3017.5" as="sourcePoint" />
            <mxPoint x="305" y="2967.5" as="targetPoint" />
          </mxGeometry>
        </mxCell>
        <mxCell id="mfT5ryJDW7ZpNOFKt1oW-15" value="" style="endArrow=none;html=1;rounded=0;entryX=0.5;entryY=0;entryDx=0;entryDy=0;exitX=0.5;exitY=1;exitDx=0;exitDy=0;" parent="1" source="mfT5ryJDW7ZpNOFKt1oW-13" target="mfT5ryJDW7ZpNOFKt1oW-13" edge="1">
          <mxGeometry width="50" height="50" relative="1" as="geometry">
            <mxPoint x="285" y="3017.5" as="sourcePoint" />
            <mxPoint x="335" y="2967.5" as="targetPoint" />
          </mxGeometry>
        </mxCell>
        <mxCell id="mfT5ryJDW7ZpNOFKt1oW-16" value="" style="endArrow=none;html=1;rounded=0;entryX=0.75;entryY=0;entryDx=0;entryDy=0;exitX=0.75;exitY=1;exitDx=0;exitDy=0;" parent="1" source="mfT5ryJDW7ZpNOFKt1oW-13" target="mfT5ryJDW7ZpNOFKt1oW-13" edge="1">
          <mxGeometry width="50" height="50" relative="1" as="geometry">
            <mxPoint x="315" y="3027.5" as="sourcePoint" />
            <mxPoint x="365" y="2977.5" as="targetPoint" />
          </mxGeometry>
        </mxCell>
        <mxCell id="mfT5ryJDW7ZpNOFKt1oW-17" value="" style="rounded=0;whiteSpace=wrap;html=1;" parent="1" vertex="1">
          <mxGeometry x="432.5" y="3090" width="140" height="40" as="geometry" />
        </mxCell>
        <mxCell id="mfT5ryJDW7ZpNOFKt1oW-18" value="" style="endArrow=none;html=1;rounded=0;entryX=0.25;entryY=0;entryDx=0;entryDy=0;exitX=0.25;exitY=1;exitDx=0;exitDy=0;" parent="1" source="mfT5ryJDW7ZpNOFKt1oW-17" target="mfT5ryJDW7ZpNOFKt1oW-17" edge="1">
          <mxGeometry width="50" height="50" relative="1" as="geometry">
            <mxPoint x="480" y="3140" as="sourcePoint" />
            <mxPoint x="530" y="3090" as="targetPoint" />
          </mxGeometry>
        </mxCell>
        <mxCell id="mfT5ryJDW7ZpNOFKt1oW-19" value="" style="endArrow=none;html=1;rounded=0;entryX=0.5;entryY=0;entryDx=0;entryDy=0;exitX=0.5;exitY=1;exitDx=0;exitDy=0;" parent="1" source="mfT5ryJDW7ZpNOFKt1oW-17" target="mfT5ryJDW7ZpNOFKt1oW-17" edge="1">
          <mxGeometry width="50" height="50" relative="1" as="geometry">
            <mxPoint x="510" y="3140" as="sourcePoint" />
            <mxPoint x="560" y="3090" as="targetPoint" />
          </mxGeometry>
        </mxCell>
        <mxCell id="mfT5ryJDW7ZpNOFKt1oW-20" value="" style="endArrow=none;html=1;rounded=0;entryX=0.75;entryY=0;entryDx=0;entryDy=0;exitX=0.75;exitY=1;exitDx=0;exitDy=0;" parent="1" source="mfT5ryJDW7ZpNOFKt1oW-17" target="mfT5ryJDW7ZpNOFKt1oW-17" edge="1">
          <mxGeometry width="50" height="50" relative="1" as="geometry">
            <mxPoint x="540" y="3150" as="sourcePoint" />
            <mxPoint x="590" y="3100" as="targetPoint" />
          </mxGeometry>
        </mxCell>
        <mxCell id="mfT5ryJDW7ZpNOFKt1oW-21" value="Manager" style="rounded=0;whiteSpace=wrap;html=1;" parent="1" vertex="1">
          <mxGeometry x="607.5" y="2850" width="105" height="50" as="geometry" />
        </mxCell>
        <mxCell id="mfT5ryJDW7ZpNOFKt1oW-22" value="" style="endArrow=classic;html=1;rounded=0;exitX=0.5;exitY=1;exitDx=0;exitDy=0;entryX=0.5;entryY=0;entryDx=0;entryDy=0;" parent="1" source="mfT5ryJDW7ZpNOFKt1oW-3" target="mfT5ryJDW7ZpNOFKt1oW-21" edge="1">
          <mxGeometry width="50" height="50" relative="1" as="geometry">
            <mxPoint x="662.5" y="2810" as="sourcePoint" />
            <mxPoint x="812.5" y="2810" as="targetPoint" />
          </mxGeometry>
        </mxCell>
        <mxCell id="mfT5ryJDW7ZpNOFKt1oW-24" value="Button" style="rounded=0;whiteSpace=wrap;html=1;" parent="1" vertex="1">
          <mxGeometry x="340" y="2660" width="105" height="50" as="geometry" />
        </mxCell>
        <mxCell id="mfT5ryJDW7ZpNOFKt1oW-25" value="" style="endArrow=classic;html=1;rounded=0;exitX=0.5;exitY=1;exitDx=0;exitDy=0;entryX=0.5;entryY=0;entryDx=0;entryDy=0;" parent="1" source="mfT5ryJDW7ZpNOFKt1oW-24" target="mfT5ryJDW7ZpNOFKt1oW-9" edge="1">
          <mxGeometry width="50" height="50" relative="1" as="geometry">
            <mxPoint x="482.5" y="2760" as="sourcePoint" />
            <mxPoint x="532.5" y="2710" as="targetPoint" />
          </mxGeometry>
        </mxCell>
        <mxCell id="mfT5ryJDW7ZpNOFKt1oW-26" value="" style="endArrow=classic;html=1;rounded=0;entryX=1;entryY=0.5;entryDx=0;entryDy=0;exitX=0;exitY=0.5;exitDx=0;exitDy=0;" parent="1" source="mfT5ryJDW7ZpNOFKt1oW-21" target="mfT5ryJDW7ZpNOFKt1oW-9" edge="1">
          <mxGeometry width="50" height="50" relative="1" as="geometry">
            <mxPoint x="482.5" y="2880" as="sourcePoint" />
            <mxPoint x="532.5" y="2830" as="targetPoint" />
            <Array as="points">
              <mxPoint x="532.5" y="2875" />
              <mxPoint x="532.5" y="2780" />
            </Array>
          </mxGeometry>
        </mxCell>
        <mxCell id="mfT5ryJDW7ZpNOFKt1oW-27" value="eventQueue" style="text;html=1;align=center;verticalAlign=middle;whiteSpace=wrap;rounded=0;" parent="1" vertex="1">
          <mxGeometry x="252.5" y="2765" width="60" height="30" as="geometry" />
        </mxCell>
        <mxCell id="mfT5ryJDW7ZpNOFKt1oW-29" value="Elevator" style="rounded=0;whiteSpace=wrap;html=1;" parent="1" vertex="1">
          <mxGeometry x="340" y="2880" width="105" height="50" as="geometry" />
        </mxCell>
        <mxCell id="mfT5ryJDW7ZpNOFKt1oW-30" value="" style="endArrow=classic;html=1;rounded=0;exitX=0.5;exitY=1;exitDx=0;exitDy=0;entryX=0.5;entryY=0;entryDx=0;entryDy=0;" parent="1" source="mfT5ryJDW7ZpNOFKt1oW-9" target="mfT5ryJDW7ZpNOFKt1oW-29" edge="1">
          <mxGeometry width="50" height="50" relative="1" as="geometry">
            <mxPoint x="502.5" y="3030" as="sourcePoint" />
            <mxPoint x="552.5" y="2980" as="targetPoint" />
          </mxGeometry>
        </mxCell>
        <mxCell id="mfT5ryJDW7ZpNOFKt1oW-31" value="" style="rounded=0;whiteSpace=wrap;html=1;" parent="1" vertex="1">
          <mxGeometry x="842.5" y="3020" width="140" height="40" as="geometry" />
        </mxCell>
        <mxCell id="mfT5ryJDW7ZpNOFKt1oW-32" value="" style="endArrow=none;html=1;rounded=0;entryX=0.25;entryY=0;entryDx=0;entryDy=0;exitX=0.25;exitY=1;exitDx=0;exitDy=0;" parent="1" source="mfT5ryJDW7ZpNOFKt1oW-31" target="mfT5ryJDW7ZpNOFKt1oW-31" edge="1">
          <mxGeometry width="50" height="50" relative="1" as="geometry">
            <mxPoint x="615" y="3100" as="sourcePoint" />
            <mxPoint x="665" y="3050" as="targetPoint" />
          </mxGeometry>
        </mxCell>
        <mxCell id="mfT5ryJDW7ZpNOFKt1oW-33" value="" style="endArrow=none;html=1;rounded=0;entryX=0.5;entryY=0;entryDx=0;entryDy=0;exitX=0.5;exitY=1;exitDx=0;exitDy=0;" parent="1" source="mfT5ryJDW7ZpNOFKt1oW-31" target="mfT5ryJDW7ZpNOFKt1oW-31" edge="1">
          <mxGeometry width="50" height="50" relative="1" as="geometry">
            <mxPoint x="645" y="3100" as="sourcePoint" />
            <mxPoint x="695" y="3050" as="targetPoint" />
          </mxGeometry>
        </mxCell>
        <mxCell id="mfT5ryJDW7ZpNOFKt1oW-34" value="" style="endArrow=none;html=1;rounded=0;entryX=0.75;entryY=0;entryDx=0;entryDy=0;exitX=0.75;exitY=1;exitDx=0;exitDy=0;" parent="1" source="mfT5ryJDW7ZpNOFKt1oW-31" target="mfT5ryJDW7ZpNOFKt1oW-31" edge="1">
          <mxGeometry width="50" height="50" relative="1" as="geometry">
            <mxPoint x="675" y="3110" as="sourcePoint" />
            <mxPoint x="725" y="3060" as="targetPoint" />
          </mxGeometry>
        </mxCell>
        <mxCell id="mfT5ryJDW7ZpNOFKt1oW-35" value="translator" style="ellipse;whiteSpace=wrap;html=1;" parent="1" vertex="1">
          <mxGeometry x="852.5" y="2945" width="80" height="40" as="geometry" />
        </mxCell>
        <mxCell id="mfT5ryJDW7ZpNOFKt1oW-36" value="" style="endArrow=classic;html=1;rounded=0;exitX=0.5;exitY=1;exitDx=0;exitDy=0;entryX=0.5;entryY=0;entryDx=0;entryDy=0;" parent="1" source="mfT5ryJDW7ZpNOFKt1oW-21" target="mfT5ryJDW7ZpNOFKt1oW-43" edge="1">
          <mxGeometry width="50" height="50" relative="1" as="geometry">
            <mxPoint x="762.5" y="2960" as="sourcePoint" />
            <mxPoint x="602.5" y="2930" as="targetPoint" />
          </mxGeometry>
        </mxCell>
        <mxCell id="mfT5ryJDW7ZpNOFKt1oW-38" value="arrayOfFloors" style="text;html=1;align=center;verticalAlign=middle;whiteSpace=wrap;rounded=0;" parent="1" vertex="1">
          <mxGeometry x="902.5" y="3060" width="60" height="30" as="geometry" />
        </mxCell>
        <mxCell id="mfT5ryJDW7ZpNOFKt1oW-39" value="" style="endArrow=classic;html=1;rounded=0;entryX=1;entryY=0.5;entryDx=0;entryDy=0;exitX=0;exitY=0.5;exitDx=0;exitDy=0;" parent="1" source="mfT5ryJDW7ZpNOFKt1oW-31" target="mfT5ryJDW7ZpNOFKt1oW-29" edge="1">
          <mxGeometry width="50" height="50" relative="1" as="geometry">
            <mxPoint x="812.5" y="3140" as="sourcePoint" />
            <mxPoint x="447.5" y="2880" as="targetPoint" />
            <Array as="points">
              <mxPoint x="512.5" y="3040" />
              <mxPoint x="512.5" y="2905" />
            </Array>
          </mxGeometry>
        </mxCell>
        <mxCell id="mfT5ryJDW7ZpNOFKt1oW-41" value="" style="endArrow=classic;html=1;rounded=0;exitX=0.25;exitY=1;exitDx=0;exitDy=0;entryX=0.876;entryY=-0.012;entryDx=0;entryDy=0;entryPerimeter=0;" parent="1" source="mfT5ryJDW7ZpNOFKt1oW-29" target="mfT5ryJDW7ZpNOFKt1oW-13" edge="1">
          <mxGeometry width="50" height="50" relative="1" as="geometry">
            <mxPoint x="342.5" y="3070" as="sourcePoint" />
            <mxPoint x="392.5" y="3020" as="targetPoint" />
          </mxGeometry>
        </mxCell>
        <mxCell id="mfT5ryJDW7ZpNOFKt1oW-42" value="displayEventQueue" style="text;html=1;align=center;verticalAlign=middle;whiteSpace=wrap;rounded=0;" parent="1" vertex="1">
          <mxGeometry x="237.5" y="2970" width="60" height="30" as="geometry" />
        </mxCell>
        <mxCell id="mfT5ryJDW7ZpNOFKt1oW-43" value="" style="rounded=0;whiteSpace=wrap;html=1;" parent="1" vertex="1">
          <mxGeometry x="590" y="2945" width="140" height="40" as="geometry" />
        </mxCell>
        <mxCell id="mfT5ryJDW7ZpNOFKt1oW-44" value="" style="endArrow=none;html=1;rounded=0;entryX=0.25;entryY=0;entryDx=0;entryDy=0;exitX=0.25;exitY=1;exitDx=0;exitDy=0;" parent="1" source="mfT5ryJDW7ZpNOFKt1oW-43" target="mfT5ryJDW7ZpNOFKt1oW-43" edge="1">
          <mxGeometry width="50" height="50" relative="1" as="geometry">
            <mxPoint x="795" y="2970" as="sourcePoint" />
            <mxPoint x="845" y="2920" as="targetPoint" />
          </mxGeometry>
        </mxCell>
        <mxCell id="mfT5ryJDW7ZpNOFKt1oW-45" value="" style="endArrow=none;html=1;rounded=0;entryX=0.5;entryY=0;entryDx=0;entryDy=0;exitX=0.5;exitY=1;exitDx=0;exitDy=0;" parent="1" source="mfT5ryJDW7ZpNOFKt1oW-43" target="mfT5ryJDW7ZpNOFKt1oW-43" edge="1">
          <mxGeometry width="50" height="50" relative="1" as="geometry">
            <mxPoint x="825" y="2970" as="sourcePoint" />
            <mxPoint x="875" y="2920" as="targetPoint" />
          </mxGeometry>
        </mxCell>
        <mxCell id="mfT5ryJDW7ZpNOFKt1oW-46" value="" style="endArrow=none;html=1;rounded=0;entryX=0.75;entryY=0;entryDx=0;entryDy=0;exitX=0.75;exitY=1;exitDx=0;exitDy=0;" parent="1" source="mfT5ryJDW7ZpNOFKt1oW-43" target="mfT5ryJDW7ZpNOFKt1oW-43" edge="1">
          <mxGeometry width="50" height="50" relative="1" as="geometry">
            <mxPoint x="855" y="2980" as="sourcePoint" />
            <mxPoint x="905" y="2930" as="targetPoint" />
          </mxGeometry>
        </mxCell>
        <mxCell id="mfT5ryJDW7ZpNOFKt1oW-47" value="orderQueue" style="text;html=1;align=center;verticalAlign=middle;whiteSpace=wrap;rounded=0;" parent="1" vertex="1">
          <mxGeometry x="702.5" y="2910" width="60" height="30" as="geometry" />
        </mxCell>
        <mxCell id="mfT5ryJDW7ZpNOFKt1oW-48" value="" style="endArrow=classic;html=1;rounded=0;exitX=1;exitY=0.25;exitDx=0;exitDy=0;entryX=0.033;entryY=0.196;entryDx=0;entryDy=0;entryPerimeter=0;" parent="1" source="mfT5ryJDW7ZpNOFKt1oW-43" target="mfT5ryJDW7ZpNOFKt1oW-35" edge="1">
          <mxGeometry width="50" height="50" relative="1" as="geometry">
            <mxPoint x="812.5" y="3040" as="sourcePoint" />
            <mxPoint x="882.5" y="2920" as="targetPoint" />
          </mxGeometry>
        </mxCell>
        <mxCell id="mfT5ryJDW7ZpNOFKt1oW-55" value="Display" style="rounded=0;whiteSpace=wrap;html=1;" parent="1" vertex="1">
          <mxGeometry x="260" y="3090" width="105" height="50" as="geometry" />
        </mxCell>
        <mxCell id="mfT5ryJDW7ZpNOFKt1oW-56" value="" style="endArrow=classic;html=1;rounded=0;exitX=0.5;exitY=1;exitDx=0;exitDy=0;entryX=0.5;entryY=0;entryDx=0;entryDy=0;" parent="1" source="mfT5ryJDW7ZpNOFKt1oW-13" target="mfT5ryJDW7ZpNOFKt1oW-55" edge="1">
          <mxGeometry width="50" height="50" relative="1" as="geometry">
            <mxPoint x="402.5" y="3120" as="sourcePoint" />
            <mxPoint x="452.5" y="3070" as="targetPoint" />
          </mxGeometry>
        </mxCell>
        <mxCell id="mfT5ryJDW7ZpNOFKt1oW-57" value="" style="endArrow=classic;html=1;rounded=0;entryX=0;entryY=0.5;entryDx=0;entryDy=0;exitX=1;exitY=0.5;exitDx=0;exitDy=0;" parent="1" source="mfT5ryJDW7ZpNOFKt1oW-21" target="mfT5ryJDW7ZpNOFKt1oW-13" edge="1">
          <mxGeometry width="50" height="50" relative="1" as="geometry">
            <mxPoint x="1052.5" y="3220" as="sourcePoint" />
            <mxPoint x="302.5" y="3200" as="targetPoint" />
            <Array as="points">
              <mxPoint x="1032.5" y="2875" />
              <mxPoint x="1032.5" y="3180" />
              <mxPoint x="192.5" y="3180" />
              <mxPoint x="192.5" y="3020" />
            </Array>
          </mxGeometry>
        </mxCell>
        <mxCell id="mfT5ryJDW7ZpNOFKt1oW-58" value="" style="endArrow=classic;html=1;rounded=0;exitX=0.75;exitY=0;exitDx=0;exitDy=0;entryX=0.692;entryY=1.05;entryDx=0;entryDy=0;entryPerimeter=0;" parent="1" source="mfT5ryJDW7ZpNOFKt1oW-55" target="mfT5ryJDW7ZpNOFKt1oW-13" edge="1">
          <mxGeometry width="50" height="50" relative="1" as="geometry">
            <mxPoint x="402.5" y="3090" as="sourcePoint" />
            <mxPoint x="452.5" y="3040" as="targetPoint" />
          </mxGeometry>
        </mxCell>
        <mxCell id="mfT5ryJDW7ZpNOFKt1oW-59" value="" style="endArrow=classic;html=1;rounded=0;entryX=0.75;entryY=1;entryDx=0;entryDy=0;exitX=0.833;exitY=0;exitDx=0;exitDy=0;exitPerimeter=0;" parent="1" source="mfT5ryJDW7ZpNOFKt1oW-29" target="mfT5ryJDW7ZpNOFKt1oW-9" edge="1">
          <mxGeometry width="50" height="50" relative="1" as="geometry">
            <mxPoint x="412.5" y="2880" as="sourcePoint" />
            <mxPoint x="462.5" y="2830" as="targetPoint" />
          </mxGeometry>
        </mxCell>
        <mxCell id="mfT5ryJDW7ZpNOFKt1oW-61" value="Led" style="rounded=0;whiteSpace=wrap;html=1;" parent="1" vertex="1">
          <mxGeometry x="702.5" y="3090" width="105" height="50" as="geometry" />
        </mxCell>
        <mxCell id="mfT5ryJDW7ZpNOFKt1oW-62" value="" style="endArrow=classic;html=1;rounded=0;exitX=0.5;exitY=1;exitDx=0;exitDy=0;entryX=0.357;entryY=0;entryDx=0;entryDy=0;entryPerimeter=0;" parent="1" source="mfT5ryJDW7ZpNOFKt1oW-35" target="mfT5ryJDW7ZpNOFKt1oW-31" edge="1">
          <mxGeometry width="50" height="50" relative="1" as="geometry">
            <mxPoint x="1022.5" y="3010" as="sourcePoint" />
            <mxPoint x="1072.5" y="2960" as="targetPoint" />
          </mxGeometry>
        </mxCell>
        <mxCell id="mfT5ryJDW7ZpNOFKt1oW-63" value="" style="endArrow=classic;html=1;rounded=0;exitX=0.75;exitY=1;exitDx=0;exitDy=0;entryX=0.25;entryY=0;entryDx=0;entryDy=0;" parent="1" source="mfT5ryJDW7ZpNOFKt1oW-29" target="mfT5ryJDW7ZpNOFKt1oW-17" edge="1">
          <mxGeometry width="50" height="50" relative="1" as="geometry">
            <mxPoint x="462.5" y="3040" as="sourcePoint" />
            <mxPoint x="512.5" y="2990" as="targetPoint" />
            <Array as="points">
              <mxPoint x="418.5" y="3050" />
              <mxPoint x="467.5" y="3050" />
            </Array>
          </mxGeometry>
        </mxCell>
        <mxCell id="mfT5ryJDW7ZpNOFKt1oW-64" value="ledEventQueue" style="text;html=1;align=center;verticalAlign=middle;whiteSpace=wrap;rounded=0;" parent="1" vertex="1">
          <mxGeometry x="472.5" y="3130" width="60" height="30" as="geometry" />
        </mxCell>
        <mxCell id="mfT5ryJDW7ZpNOFKt1oW-65" value="" style="endArrow=classic;html=1;rounded=0;exitX=1;exitY=0.25;exitDx=0;exitDy=0;" parent="1" source="mfT5ryJDW7ZpNOFKt1oW-17" edge="1">
          <mxGeometry width="50" height="50" relative="1" as="geometry">
            <mxPoint x="612.5" y="3160" as="sourcePoint" />
            <mxPoint x="702.5" y="3100" as="targetPoint" />
          </mxGeometry>
        </mxCell>
        <mxCell id="mfT5ryJDW7ZpNOFKt1oW-66" value="" style="endArrow=classic;html=1;rounded=0;entryX=1;entryY=0.75;entryDx=0;entryDy=0;exitX=-0.006;exitY=0.623;exitDx=0;exitDy=0;exitPerimeter=0;" parent="1" source="mfT5ryJDW7ZpNOFKt1oW-61" target="mfT5ryJDW7ZpNOFKt1oW-17" edge="1">
          <mxGeometry width="50" height="50" relative="1" as="geometry">
            <mxPoint x="622.5" y="3190" as="sourcePoint" />
            <mxPoint x="672.5" y="3140" as="targetPoint" />
          </mxGeometry>
        </mxCell>
        <mxCell id="mfT5ryJDW7ZpNOFKt1oW-67" value="" style="endArrow=classic;html=1;rounded=0;exitX=0.75;exitY=0;exitDx=0;exitDy=0;entryX=0.68;entryY=1.05;entryDx=0;entryDy=0;entryPerimeter=0;" parent="1" source="mfT5ryJDW7ZpNOFKt1oW-21" target="mfT5ryJDW7ZpNOFKt1oW-3" edge="1">
          <mxGeometry width="50" height="50" relative="1" as="geometry">
            <mxPoint x="802.5" y="2850" as="sourcePoint" />
            <mxPoint x="852.5" y="2800" as="targetPoint" />
          </mxGeometry>
        </mxCell>
        <mxCell id="mfT5ryJDW7ZpNOFKt1oW-68" value="" style="endArrow=classic;html=1;rounded=0;entryX=1;entryY=0.75;entryDx=0;entryDy=0;exitX=0.002;exitY=0.738;exitDx=0;exitDy=0;exitPerimeter=0;" parent="1" source="mfT5ryJDW7ZpNOFKt1oW-35" target="mfT5ryJDW7ZpNOFKt1oW-43" edge="1">
          <mxGeometry width="50" height="50" relative="1" as="geometry">
            <mxPoint x="822.5" y="3040" as="sourcePoint" />
            <mxPoint x="872.5" y="2990" as="targetPoint" />
          </mxGeometry>
        </mxCell>
        <mxCell id="mfT5ryJDW7ZpNOFKt1oW-69" value="delayRead() ^ scanCol == keyCol" style="text;html=1;align=center;verticalAlign=middle;whiteSpace=wrap;rounded=0;" parent="1" vertex="1">
          <mxGeometry x="1840" y="1110" width="200" height="30" as="geometry" />
        </mxCell>
        <mxCell id="mfT5ryJDW7ZpNOFKt1oW-70" value="delayRead() ^ scanCol != keyCol" style="text;html=1;align=center;verticalAlign=middle;whiteSpace=wrap;rounded=0;" parent="1" vertex="1">
          <mxGeometry x="1580" y="1040" width="200" height="30" as="geometry" />
        </mxCell>
        <mxCell id="mfT5ryJDW7ZpNOFKt1oW-71" value="scanCol == 4 |&lt;div&gt;keyOk = 1&lt;/div&gt;&lt;div&gt;keyCode = scanRow * COLS + keyCol&lt;/div&gt;&lt;div&gt;insert_KeyQueue()&lt;/div&gt;" style="text;html=1;align=center;verticalAlign=middle;whiteSpace=wrap;rounded=0;" parent="1" vertex="1">
          <mxGeometry x="1295" y="1067.5" width="210" height="105" as="geometry" />
        </mxCell>
        <mxCell id="mfT5ryJDW7ZpNOFKt1oW-73" value="order ^ go ^ direction == GOING_UP" style="text;html=1;align=center;verticalAlign=middle;whiteSpace=wrap;rounded=0;" parent="1" vertex="1">
          <mxGeometry x="425" y="1110" width="250" height="30" as="geometry" />
        </mxCell>
        <mxCell id="mfT5ryJDW7ZpNOFKt1oW-74" value="currentFloor == destiny" style="text;html=1;align=center;verticalAlign=middle;whiteSpace=wrap;rounded=0;" parent="1" vertex="1">
          <mxGeometry x="710" y="940" width="150" height="30" as="geometry" />
        </mxCell>
        <mxCell id="mfT5ryJDW7ZpNOFKt1oW-75" value="" style="rounded=1;whiteSpace=wrap;html=1;" parent="1" vertex="1">
          <mxGeometry x="50" y="1190" width="260" height="170" as="geometry" />
        </mxCell>
        <mxCell id="mfT5ryJDW7ZpNOFKt1oW-76" value="" style="rounded=1;whiteSpace=wrap;html=1;" parent="1" vertex="1">
          <mxGeometry x="930" y="1170" width="200" height="140" as="geometry" />
        </mxCell>
        <mxCell id="mfT5ryJDW7ZpNOFKt1oW-77" value="" style="rounded=1;whiteSpace=wrap;html=1;" parent="1" vertex="1">
          <mxGeometry x="940" y="1460" width="200" height="150" as="geometry" />
        </mxCell>
        <mxCell id="mfT5ryJDW7ZpNOFKt1oW-78" value="" style="rounded=1;whiteSpace=wrap;html=1;" parent="1" vertex="1">
          <mxGeometry x="402.5" y="1230" width="417.5" height="300" as="geometry" />
        </mxCell>
        <mxCell id="mfT5ryJDW7ZpNOFKt1oW-79" value="" style="endArrow=classic;html=1;rounded=0;entryX=0;entryY=0.5;entryDx=0;entryDy=0;exitX=0.85;exitY=0.46;exitDx=0;exitDy=0;exitPerimeter=0;" parent="1" source="mfT5ryJDW7ZpNOFKt1oW-92" target="mfT5ryJDW7ZpNOFKt1oW-75" edge="1">
          <mxGeometry width="50" height="50" relative="1" as="geometry">
            <mxPoint x="140" y="1361" as="sourcePoint" />
            <mxPoint x="200" y="1361" as="targetPoint" />
          </mxGeometry>
        </mxCell>
        <mxCell id="mfT5ryJDW7ZpNOFKt1oW-80" value="" style="curved=1;endArrow=classic;html=1;rounded=0;entryX=0;entryY=0.25;entryDx=0;entryDy=0;exitX=1;exitY=0.5;exitDx=0;exitDy=0;" parent="1" source="mfT5ryJDW7ZpNOFKt1oW-75" target="mfT5ryJDW7ZpNOFKt1oW-99" edge="1">
          <mxGeometry width="50" height="50" relative="1" as="geometry">
            <mxPoint x="290" y="1471" as="sourcePoint" />
            <mxPoint x="340" y="1421" as="targetPoint" />
            <Array as="points">
              <mxPoint x="340" y="1300" />
            </Array>
          </mxGeometry>
        </mxCell>
        <mxCell id="mfT5ryJDW7ZpNOFKt1oW-81" value="" style="curved=1;endArrow=classic;html=1;rounded=0;entryX=0.975;entryY=0.962;entryDx=0;entryDy=0;exitX=0;exitY=1;exitDx=0;exitDy=0;entryPerimeter=0;" parent="1" source="mfT5ryJDW7ZpNOFKt1oW-99" target="mfT5ryJDW7ZpNOFKt1oW-75" edge="1">
          <mxGeometry width="50" height="50" relative="1" as="geometry">
            <mxPoint x="340" y="1491" as="sourcePoint" />
            <mxPoint x="390" y="1441" as="targetPoint" />
            <Array as="points">
              <mxPoint x="360" y="1460" />
            </Array>
          </mxGeometry>
        </mxCell>
        <mxCell id="mfT5ryJDW7ZpNOFKt1oW-83" value="option == 6" style="text;html=1;align=center;verticalAlign=middle;whiteSpace=wrap;rounded=0;" parent="1" vertex="1">
          <mxGeometry x="311.25" y="1260" width="100" height="30" as="geometry" />
        </mxCell>
        <mxCell id="mfT5ryJDW7ZpNOFKt1oW-84" value="order ^ go ^ direction == GOING_DOWN" style="text;html=1;align=center;verticalAlign=middle;whiteSpace=wrap;rounded=0;" parent="1" vertex="1">
          <mxGeometry x="660" y="1190" width="250" height="30" as="geometry" />
        </mxCell>
        <mxCell id="mfT5ryJDW7ZpNOFKt1oW-85" value="" style="curved=1;endArrow=classic;html=1;rounded=0;entryX=0;entryY=0.5;entryDx=0;entryDy=0;exitX=0.939;exitY=-0.001;exitDx=0;exitDy=0;exitPerimeter=0;" parent="1" source="mfT5ryJDW7ZpNOFKt1oW-102" target="mfT5ryJDW7ZpNOFKt1oW-76" edge="1">
          <mxGeometry width="50" height="50" relative="1" as="geometry">
            <mxPoint x="580" y="1401" as="sourcePoint" />
            <mxPoint x="630" y="1351" as="targetPoint" />
            <Array as="points">
              <mxPoint x="840" y="1250" />
            </Array>
          </mxGeometry>
        </mxCell>
        <mxCell id="mfT5ryJDW7ZpNOFKt1oW-86" value="" style="curved=1;endArrow=classic;html=1;rounded=0;entryX=0;entryY=0.5;entryDx=0;entryDy=0;exitX=1;exitY=1;exitDx=0;exitDy=0;" parent="1" source="mfT5ryJDW7ZpNOFKt1oW-102" target="mfT5ryJDW7ZpNOFKt1oW-77" edge="1">
          <mxGeometry width="50" height="50" relative="1" as="geometry">
            <mxPoint x="490" y="1481" as="sourcePoint" />
            <mxPoint x="540" y="1431" as="targetPoint" />
            <Array as="points">
              <mxPoint x="820" y="1570" />
            </Array>
          </mxGeometry>
        </mxCell>
        <mxCell id="mfT5ryJDW7ZpNOFKt1oW-87" value="" style="curved=1;endArrow=classic;html=1;rounded=0;entryX=1;entryY=0;entryDx=0;entryDy=0;exitX=0.25;exitY=1;exitDx=0;exitDy=0;" parent="1" source="mfT5ryJDW7ZpNOFKt1oW-76" target="mfT5ryJDW7ZpNOFKt1oW-102" edge="1">
          <mxGeometry width="50" height="50" relative="1" as="geometry">
            <mxPoint x="680" y="1391" as="sourcePoint" />
            <mxPoint x="730" y="1341" as="targetPoint" />
            <Array as="points">
              <mxPoint x="930" y="1380" />
            </Array>
          </mxGeometry>
        </mxCell>
        <mxCell id="mfT5ryJDW7ZpNOFKt1oW-88" value="" style="curved=1;endArrow=classic;html=1;rounded=0;entryX=1;entryY=0.25;entryDx=0;entryDy=0;exitX=0.25;exitY=0;exitDx=0;exitDy=0;" parent="1" source="mfT5ryJDW7ZpNOFKt1oW-77" target="mfT5ryJDW7ZpNOFKt1oW-102" edge="1">
          <mxGeometry width="50" height="50" relative="1" as="geometry">
            <mxPoint x="800" y="1431" as="sourcePoint" />
            <mxPoint x="850" y="1381" as="targetPoint" />
            <Array as="points">
              <mxPoint x="920" y="1410" />
            </Array>
          </mxGeometry>
        </mxCell>
        <mxCell id="mfT5ryJDW7ZpNOFKt1oW-89" value="&lt;font style=&quot;font-size: 8px;&quot;&gt;currentFloor == destiny | flag = 0, disable_timer(), insert_LedEventQueue(), insert_DisplayEventQueue(), open = 1&lt;/font&gt;" style="text;html=1;align=center;verticalAlign=middle;whiteSpace=wrap;rounded=0;" parent="1" vertex="1">
          <mxGeometry x="980" y="1405" width="150" height="30" as="geometry" />
        </mxCell>
        <mxCell id="mfT5ryJDW7ZpNOFKt1oW-90" value="order ^ go ^ direction == GOING_UP" style="text;html=1;align=center;verticalAlign=middle;whiteSpace=wrap;rounded=0;" parent="1" vertex="1">
          <mxGeometry x="650" y="1555" width="250" height="30" as="geometry" />
        </mxCell>
        <mxCell id="mfT5ryJDW7ZpNOFKt1oW-92" value="" style="shape=waypoint;sketch=0;fillStyle=solid;size=6;pointerEvents=1;points=[];fillColor=none;resizable=0;rotatable=0;perimeter=centerPerimeter;snapToPoint=1;" parent="1" vertex="1">
          <mxGeometry x="10" y="1265.0000000000002" width="20" height="20" as="geometry" />
        </mxCell>
        <mxCell id="mfT5ryJDW7ZpNOFKt1oW-95" value="" style="endArrow=none;html=1;rounded=0;exitX=0.013;exitY=0.176;exitDx=0;exitDy=0;exitPerimeter=0;entryX=1.005;entryY=0.186;entryDx=0;entryDy=0;entryPerimeter=0;" parent="1" source="mfT5ryJDW7ZpNOFKt1oW-75" target="mfT5ryJDW7ZpNOFKt1oW-75" edge="1">
          <mxGeometry width="50" height="50" relative="1" as="geometry">
            <mxPoint x="160" y="1330" as="sourcePoint" />
            <mxPoint x="210" y="1280" as="targetPoint" />
          </mxGeometry>
        </mxCell>
        <mxCell id="mfT5ryJDW7ZpNOFKt1oW-96" value="SETTING" style="text;html=1;align=center;verticalAlign=middle;whiteSpace=wrap;rounded=0;" parent="1" vertex="1">
          <mxGeometry x="70" y="1190" width="60" height="30" as="geometry" />
        </mxCell>
        <mxCell id="mfT5ryJDW7ZpNOFKt1oW-97" value="" style="endArrow=none;html=1;rounded=0;exitX=0.012;exitY=0.098;exitDx=0;exitDy=0;exitPerimeter=0;" parent="1" source="mfT5ryJDW7ZpNOFKt1oW-78" edge="1">
          <mxGeometry width="50" height="50" relative="1" as="geometry">
            <mxPoint x="610" y="1360" as="sourcePoint" />
            <mxPoint x="814" y="1259" as="targetPoint" />
          </mxGeometry>
        </mxCell>
        <mxCell id="mfT5ryJDW7ZpNOFKt1oW-98" value="STOPED" style="text;html=1;align=center;verticalAlign=middle;whiteSpace=wrap;rounded=0;" parent="1" vertex="1">
          <mxGeometry x="447.5" y="1230" width="60" height="30" as="geometry" />
        </mxCell>
        <mxCell id="mfT5ryJDW7ZpNOFKt1oW-99" value="" style="rounded=1;whiteSpace=wrap;html=1;" parent="1" vertex="1">
          <mxGeometry x="440" y="1290" width="120" height="70" as="geometry" />
        </mxCell>
        <mxCell id="mfT5ryJDW7ZpNOFKt1oW-100" value="" style="rounded=1;whiteSpace=wrap;html=1;" parent="1" vertex="1">
          <mxGeometry x="650" y="1275" width="135" height="80" as="geometry" />
        </mxCell>
        <mxCell id="mfT5ryJDW7ZpNOFKt1oW-101" value="" style="rounded=1;whiteSpace=wrap;html=1;" parent="1" vertex="1">
          <mxGeometry x="430" y="1420" width="120" height="80" as="geometry" />
        </mxCell>
        <mxCell id="mfT5ryJDW7ZpNOFKt1oW-102" value="" style="rounded=1;whiteSpace=wrap;html=1;" parent="1" vertex="1">
          <mxGeometry x="640" y="1420" width="140" height="80" as="geometry" />
        </mxCell>
        <mxCell id="mfT5ryJDW7ZpNOFKt1oW-103" value="" style="endArrow=none;html=1;rounded=0;exitX=0;exitY=0.25;exitDx=0;exitDy=0;entryX=1;entryY=0.25;entryDx=0;entryDy=0;" parent="1" source="mfT5ryJDW7ZpNOFKt1oW-99" target="mfT5ryJDW7ZpNOFKt1oW-99" edge="1">
          <mxGeometry width="50" height="50" relative="1" as="geometry">
            <mxPoint x="480" y="1350" as="sourcePoint" />
            <mxPoint x="530" y="1300" as="targetPoint" />
          </mxGeometry>
        </mxCell>
        <mxCell id="mfT5ryJDW7ZpNOFKt1oW-104" value="OPEN_DOOR" style="text;html=1;align=center;verticalAlign=middle;whiteSpace=wrap;rounded=0;" parent="1" vertex="1">
          <mxGeometry x="450" y="1285" width="60" height="30" as="geometry" />
        </mxCell>
        <mxCell id="mfT5ryJDW7ZpNOFKt1oW-106" value="!check_order() ^ currentFloor == 0 ^ event == eSetting | supress_EventQueue()&lt;div&gt;settingAccess = 1&lt;br&gt;&lt;div&gt;&lt;br&gt;&lt;/div&gt;&lt;/div&gt;" style="text;html=1;align=center;verticalAlign=middle;whiteSpace=wrap;rounded=0;" parent="1" vertex="1">
          <mxGeometry x="245" y="1415" width="60" height="30" as="geometry" />
        </mxCell>
        <mxCell id="mfT5ryJDW7ZpNOFKt1oW-107" value="" style="curved=1;endArrow=classic;html=1;rounded=0;entryX=0;entryY=0.5;entryDx=0;entryDy=0;exitX=1;exitY=0.5;exitDx=0;exitDy=0;" parent="1" source="mfT5ryJDW7ZpNOFKt1oW-99" target="mfT5ryJDW7ZpNOFKt1oW-100" edge="1">
          <mxGeometry width="50" height="50" relative="1" as="geometry">
            <mxPoint x="570" y="1390" as="sourcePoint" />
            <mxPoint x="620" y="1340" as="targetPoint" />
            <Array as="points">
              <mxPoint x="600" y="1310" />
            </Array>
          </mxGeometry>
        </mxCell>
        <mxCell id="mfT5ryJDW7ZpNOFKt1oW-108" value="&lt;font style=&quot;font-size: 8px;&quot;&gt;check_order() | onEntry = 1&lt;/font&gt;&lt;div&gt;&lt;font style=&quot;font-size: 8px;&quot;&gt;order = 1&lt;/font&gt;&lt;/div&gt;&lt;div&gt;&lt;font style=&quot;font-size: 8px;&quot;&gt;buttonAccess = 1&lt;/font&gt;&lt;/div&gt;" style="text;html=1;align=center;verticalAlign=middle;whiteSpace=wrap;rounded=0;" parent="1" vertex="1">
          <mxGeometry x="545" y="1270" width="105" height="30" as="geometry" />
        </mxCell>
        <mxCell id="mfT5ryJDW7ZpNOFKt1oW-109" value="" style="endArrow=none;html=1;rounded=0;entryX=1;entryY=0.25;entryDx=0;entryDy=0;exitX=0;exitY=0.25;exitDx=0;exitDy=0;" parent="1" source="mfT5ryJDW7ZpNOFKt1oW-100" target="mfT5ryJDW7ZpNOFKt1oW-100" edge="1">
          <mxGeometry width="50" height="50" relative="1" as="geometry">
            <mxPoint x="690" y="1340" as="sourcePoint" />
            <mxPoint x="740" y="1290" as="targetPoint" />
          </mxGeometry>
        </mxCell>
        <mxCell id="mfT5ryJDW7ZpNOFKt1oW-110" value="CLOSING_DOOR" style="text;html=1;align=center;verticalAlign=middle;whiteSpace=wrap;rounded=0;" parent="1" vertex="1">
          <mxGeometry x="675" y="1270" width="60" height="30" as="geometry" />
        </mxCell>
        <mxCell id="mfT5ryJDW7ZpNOFKt1oW-111" value="" style="endArrow=none;html=1;rounded=0;entryX=1;entryY=0.25;entryDx=0;entryDy=0;exitX=0;exitY=0.25;exitDx=0;exitDy=0;" parent="1" source="mfT5ryJDW7ZpNOFKt1oW-102" target="mfT5ryJDW7ZpNOFKt1oW-102" edge="1">
          <mxGeometry width="50" height="50" relative="1" as="geometry">
            <mxPoint x="670" y="1480" as="sourcePoint" />
            <mxPoint x="720" y="1430" as="targetPoint" />
          </mxGeometry>
        </mxCell>
        <mxCell id="mfT5ryJDW7ZpNOFKt1oW-112" value="CLOSED_DOOR" style="text;html=1;align=center;verticalAlign=middle;whiteSpace=wrap;rounded=0;" parent="1" vertex="1">
          <mxGeometry x="665" y="1420" width="55" height="20" as="geometry" />
        </mxCell>
        <mxCell id="mfT5ryJDW7ZpNOFKt1oW-113" value="" style="endArrow=none;html=1;rounded=0;entryX=1;entryY=0.25;entryDx=0;entryDy=0;exitX=0;exitY=0.25;exitDx=0;exitDy=0;" parent="1" source="mfT5ryJDW7ZpNOFKt1oW-101" target="mfT5ryJDW7ZpNOFKt1oW-101" edge="1">
          <mxGeometry width="50" height="50" relative="1" as="geometry">
            <mxPoint x="460" y="1480" as="sourcePoint" />
            <mxPoint x="510" y="1430" as="targetPoint" />
          </mxGeometry>
        </mxCell>
        <mxCell id="mfT5ryJDW7ZpNOFKt1oW-114" value="OPENING_DOOR" style="text;html=1;align=center;verticalAlign=middle;whiteSpace=wrap;rounded=0;" parent="1" vertex="1">
          <mxGeometry x="455" y="1415" width="60" height="30" as="geometry" />
        </mxCell>
        <mxCell id="mfT5ryJDW7ZpNOFKt1oW-115" value="" style="curved=1;endArrow=classic;html=1;rounded=0;entryX=1;entryY=0.5;entryDx=0;entryDy=0;exitX=0;exitY=0.5;exitDx=0;exitDy=0;" parent="1" source="mfT5ryJDW7ZpNOFKt1oW-102" target="mfT5ryJDW7ZpNOFKt1oW-101" edge="1">
          <mxGeometry width="50" height="50" relative="1" as="geometry">
            <mxPoint x="580" y="1510" as="sourcePoint" />
            <mxPoint x="630" y="1460" as="targetPoint" />
            <Array as="points">
              <mxPoint x="610" y="1480" />
              <mxPoint x="570" y="1480" />
            </Array>
          </mxGeometry>
        </mxCell>
        <mxCell id="mfT5ryJDW7ZpNOFKt1oW-116" value="&lt;font style=&quot;font-size: 8px;&quot;&gt;order ^ open | onEntry = 1&lt;/font&gt;&lt;div&gt;&lt;font style=&quot;font-size: 8px;&quot;&gt;open = 1&lt;/font&gt;&lt;/div&gt;" style="text;html=1;align=center;verticalAlign=middle;whiteSpace=wrap;rounded=0;" parent="1" vertex="1">
          <mxGeometry x="560" y="1425" width="70" height="35" as="geometry" />
        </mxCell>
        <mxCell id="mfT5ryJDW7ZpNOFKt1oW-117" value="" style="curved=1;endArrow=classic;html=1;rounded=0;entryX=0.107;entryY=1.028;entryDx=0;entryDy=0;exitX=0.15;exitY=0.002;exitDx=0;exitDy=0;exitPerimeter=0;entryPerimeter=0;" parent="1" source="mfT5ryJDW7ZpNOFKt1oW-101" target="mfT5ryJDW7ZpNOFKt1oW-99" edge="1">
          <mxGeometry width="50" height="50" relative="1" as="geometry">
            <mxPoint x="440" y="1420" as="sourcePoint" />
            <mxPoint x="490" y="1370" as="targetPoint" />
            <Array as="points">
              <mxPoint x="440" y="1400" />
              <mxPoint x="440" y="1380" />
            </Array>
          </mxGeometry>
        </mxCell>
        <mxCell id="mfT5ryJDW7ZpNOFKt1oW-118" value="&lt;font style=&quot;font-size: 8px;&quot;&gt;timerInt | insert_LedEventQueue()&lt;/font&gt;&lt;div&gt;&lt;font style=&quot;font-size: 8px;&quot;&gt;disable_timer()&lt;/font&gt;&lt;/div&gt;" style="text;html=1;align=center;verticalAlign=middle;whiteSpace=wrap;rounded=0;" parent="1" vertex="1">
          <mxGeometry x="470" y="1375" width="60" height="30" as="geometry" />
        </mxCell>
        <mxCell id="mfT5ryJDW7ZpNOFKt1oW-119" value="&lt;font style=&quot;font-size: 8px;&quot;&gt;onEntry | onEntry = 0&amp;nbsp;&lt;/font&gt;&lt;div&gt;&lt;font style=&quot;font-size: 8px;&quot;&gt;enable_timer()&lt;/font&gt;&lt;/div&gt;&lt;div&gt;&lt;font style=&quot;font-size: 8px;&quot;&gt;insert_LedEventQueue()&lt;/font&gt;&lt;/div&gt;" style="text;html=1;align=center;verticalAlign=middle;whiteSpace=wrap;rounded=0;" parent="1" vertex="1">
          <mxGeometry x="460" y="1450" width="60" height="30" as="geometry" />
        </mxCell>
        <mxCell id="mfT5ryJDW7ZpNOFKt1oW-120" value="" style="curved=1;endArrow=classic;html=1;rounded=0;entryX=0.75;entryY=0;entryDx=0;entryDy=0;exitX=0.75;exitY=1;exitDx=0;exitDy=0;" parent="1" source="mfT5ryJDW7ZpNOFKt1oW-100" target="mfT5ryJDW7ZpNOFKt1oW-102" edge="1">
          <mxGeometry width="50" height="50" relative="1" as="geometry">
            <mxPoint x="650" y="1420" as="sourcePoint" />
            <mxPoint x="700" y="1370" as="targetPoint" />
            <Array as="points">
              <mxPoint x="760" y="1380" />
              <mxPoint x="760" y="1400" />
            </Array>
          </mxGeometry>
        </mxCell>
        <mxCell id="mfT5ryJDW7ZpNOFKt1oW-121" value="{1}" style="text;html=1;align=center;verticalAlign=middle;whiteSpace=wrap;rounded=0;" parent="1" vertex="1">
          <mxGeometry x="685" y="1365.25" width="105" height="30" as="geometry" />
        </mxCell>
        <mxCell id="mfT5ryJDW7ZpNOFKt1oW-122" value="&lt;font style=&quot;font-size: 8px;&quot;&gt;{1} a) !blocked ^ !closing ^ !consult_EventQueue() | closing = 1, insert_LedEventQueue(), blocked = 0&amp;nbsp;-&amp;gt; closing ^ timerInt | timerInt = 0, go = 1, buttonAccess = 0, closing = 0, disable_timer()&amp;nbsp;&lt;/font&gt;&lt;div&gt;&lt;font style=&quot;font-size: 8px;&quot;&gt;b) !blocked ^ !closing ^ e == eThereIsSomeone | supress_EventQueue(), enable_timer(), blocked = 1 -&amp;gt; blocked ^ !alarm ^ timerInt ^ e == eThereIsNoOne | supress_EventQueue(), insert_LedEventQueue(), blocked = 0, closing = 0 -&amp;gt;&amp;nbsp;&lt;span style=&quot;background-color: transparent; color: light-dark(rgb(0, 0, 0), rgb(255, 255, 255));&quot;&gt;closing ^ timerInt | timerInt = 0, go = 1, buttonAccess = 0, closing = 0, disable_timer()&lt;/span&gt;&lt;/font&gt;&lt;/div&gt;&lt;div&gt;&lt;font style=&quot;font-size: 8px;&quot;&gt;&lt;span style=&quot;background-color: transparent; color: light-dark(rgb(0, 0, 0), rgb(255, 255, 255));&quot;&gt;c)&amp;nbsp;&lt;/span&gt;&lt;span style=&quot;background-color: transparent; color: light-dark(rgb(0, 0, 0), rgb(255, 255, 255));&quot;&gt;!blocked ^ !closing ^ e == eThereIsSomeone | supress_EventQueue(), enable_timer(), blocked = 1 -&amp;gt; blocked ^ !alarm ^ timerInt ^ e == eThereIsSomeone | supress_EventQueue(), insert_LedEventQueue(), alarm = 1, disable_timer() -&amp;gt; alarm ^ e == eThereIsNoOne | supress_EventQueue(), insert_LedEventQueue(), enable_timer(), blocked = 0, alarm = 0, closing = 0 -&amp;gt;&amp;nbsp;&lt;/span&gt;&lt;/font&gt;&lt;span style=&quot;background-color: transparent; color: light-dark(rgb(0, 0, 0), rgb(255, 255, 255)); font-size: 8px;&quot;&gt;closing ^ timerInt | timerInt = 0, go = 1, buttonAccess = 0, closing = 0, disable_timer()&lt;/span&gt;&lt;/div&gt;" style="text;html=1;align=left;verticalAlign=middle;whiteSpace=wrap;rounded=0;" parent="1" vertex="1">
          <mxGeometry y="1470" width="390" height="170" as="geometry" />
        </mxCell>
        <mxCell id="mfT5ryJDW7ZpNOFKt1oW-123" value="" style="endArrow=none;html=1;rounded=0;entryX=1;entryY=0.25;entryDx=0;entryDy=0;exitX=0;exitY=0.25;exitDx=0;exitDy=0;" parent="1" source="mfT5ryJDW7ZpNOFKt1oW-76" target="mfT5ryJDW7ZpNOFKt1oW-76" edge="1">
          <mxGeometry width="50" height="50" relative="1" as="geometry">
            <mxPoint x="980" y="1260" as="sourcePoint" />
            <mxPoint x="1030" y="1210" as="targetPoint" />
          </mxGeometry>
        </mxCell>
        <mxCell id="mfT5ryJDW7ZpNOFKt1oW-124" value="GOING_DOWN" style="text;html=1;align=center;verticalAlign=middle;whiteSpace=wrap;rounded=0;" parent="1" vertex="1">
          <mxGeometry x="975" y="1172.5" width="60" height="30" as="geometry" />
        </mxCell>
        <mxCell id="mfT5ryJDW7ZpNOFKt1oW-125" value="GOING_UP" style="text;html=1;align=center;verticalAlign=middle;whiteSpace=wrap;rounded=0;" parent="1" vertex="1">
          <mxGeometry x="960" y="1460" width="60" height="30" as="geometry" />
        </mxCell>
        <mxCell id="mfT5ryJDW7ZpNOFKt1oW-126" value="" style="endArrow=none;html=1;rounded=0;entryX=1;entryY=0.25;entryDx=0;entryDy=0;exitX=0;exitY=0.25;exitDx=0;exitDy=0;" parent="1" source="mfT5ryJDW7ZpNOFKt1oW-77" target="mfT5ryJDW7ZpNOFKt1oW-77" edge="1">
          <mxGeometry width="50" height="50" relative="1" as="geometry">
            <mxPoint x="1020" y="1550" as="sourcePoint" />
            <mxPoint x="1070" y="1500" as="targetPoint" />
          </mxGeometry>
        </mxCell>
        <mxCell id="mfT5ryJDW7ZpNOFKt1oW-127" value="&lt;font style=&quot;font-size: 8px;&quot;&gt;onEntry | onEntry =&amp;nbsp;&lt;/font&gt;&lt;div&gt;&lt;font style=&quot;font-size: 8px;&quot;&gt;insert_LedEventQueue()&lt;/font&gt;&lt;/div&gt;&lt;div&gt;&lt;font style=&quot;font-size: 8px;&quot;&gt;enable_timer()&lt;/font&gt;&lt;/div&gt;" style="text;html=1;align=center;verticalAlign=middle;whiteSpace=wrap;rounded=0;" parent="1" vertex="1">
          <mxGeometry x="995" y="1495" width="90" height="60" as="geometry" />
        </mxCell>
        <mxCell id="mfT5ryJDW7ZpNOFKt1oW-128" value="&lt;font style=&quot;font-size: 8px;&quot;&gt;currentFloor == destiny | flag = 0, disable_timer(), insert_LedEventQueue(), insert_DisplayEventQueue(), open = 1&lt;/font&gt;" style="text;html=1;align=center;verticalAlign=middle;whiteSpace=wrap;rounded=0;" parent="1" vertex="1">
          <mxGeometry x="975" y="1325" width="150" height="30" as="geometry" />
        </mxCell>
        <mxCell id="mfT5ryJDW7ZpNOFKt1oW-129" value="&lt;font style=&quot;font-size: 8px;&quot;&gt;onEntry | onEntry =&amp;nbsp;&lt;/font&gt;&lt;div&gt;&lt;font style=&quot;font-size: 8px;&quot;&gt;insert_LedEventQueue()&lt;/font&gt;&lt;/div&gt;&lt;div&gt;&lt;font style=&quot;font-size: 8px;&quot;&gt;enable_timer()&lt;/font&gt;&lt;/div&gt;" style="text;html=1;align=center;verticalAlign=middle;whiteSpace=wrap;rounded=0;" parent="1" vertex="1">
          <mxGeometry x="980" y="1200" width="90" height="60" as="geometry" />
        </mxCell>
        <mxCell id="mfT5ryJDW7ZpNOFKt1oW-130" value="&lt;span style=&quot;font-size: 8px;&quot;&gt;currentFloor != destiny ^ timerInt | timerInt = 0, currentFloor++&lt;/span&gt;" style="text;html=1;align=center;verticalAlign=middle;whiteSpace=wrap;rounded=0;" parent="1" vertex="1">
          <mxGeometry x="970" y="1250" width="120" height="60" as="geometry" />
        </mxCell>
        <mxCell id="mfT5ryJDW7ZpNOFKt1oW-131" value="&lt;span style=&quot;font-size: 8px;&quot;&gt;currentFloor != destiny ^ timerInt | timerInt = 0, currentFloor++&lt;/span&gt;" style="text;html=1;align=center;verticalAlign=middle;whiteSpace=wrap;rounded=0;" parent="1" vertex="1">
          <mxGeometry x="980" y="1550" width="120" height="60" as="geometry" />
        </mxCell>
        <mxCell id="mfT5ryJDW7ZpNOFKt1oW-133" value="&lt;font style=&quot;font-size: 8px;&quot;&gt;MENU&lt;/font&gt;" style="rounded=1;whiteSpace=wrap;html=1;" parent="1" vertex="1">
          <mxGeometry x="70" y="1287.5" width="30" height="10" as="geometry" />
        </mxCell>
        <mxCell id="mfT5ryJDW7ZpNOFKt1oW-134" value="&lt;font style=&quot;font-size: 8px;&quot;&gt;option == 1&lt;/font&gt;" style="text;html=1;align=center;verticalAlign=middle;whiteSpace=wrap;rounded=0;" parent="1" vertex="1">
          <mxGeometry x="115" y="1227.5" width="80" height="30" as="geometry" />
        </mxCell>
        <mxCell id="mfT5ryJDW7ZpNOFKt1oW-136" value="&lt;font style=&quot;font-size: 8px;&quot;&gt;option&amp;nbsp;== 5&lt;/font&gt;" style="text;html=1;align=center;verticalAlign=middle;whiteSpace=wrap;rounded=0;" parent="1" vertex="1">
          <mxGeometry x="120" y="1325" width="70" height="30" as="geometry" />
        </mxCell>
        <mxCell id="mfT5ryJDW7ZpNOFKt1oW-137" value="" style="rounded=1;whiteSpace=wrap;html=1;" parent="1" vertex="1">
          <mxGeometry x="192.5" y="1237.5" width="102.5" height="90" as="geometry" />
        </mxCell>
        <mxCell id="mfT5ryJDW7ZpNOFKt1oW-138" value="&lt;font style=&quot;font-size: 8px;&quot;&gt;SET_SPEED_FLOOR&lt;/font&gt;" style="rounded=1;whiteSpace=wrap;html=1;" parent="1" vertex="1">
          <mxGeometry x="207.5" y="1247.5" width="80" height="10" as="geometry" />
        </mxCell>
        <mxCell id="mfT5ryJDW7ZpNOFKt1oW-139" value="&lt;font style=&quot;font-size: 8px;&quot;&gt;SET_SPEED_DOOR&lt;/font&gt;" style="rounded=1;whiteSpace=wrap;html=1;" parent="1" vertex="1">
          <mxGeometry x="210" y="1267.5" width="70" height="10" as="geometry" />
        </mxCell>
        <mxCell id="mfT5ryJDW7ZpNOFKt1oW-140" value="&lt;font style=&quot;font-size: 8px;&quot;&gt;SET_TOTAL_FLOORS&lt;/font&gt;" style="rounded=1;whiteSpace=wrap;html=1;" parent="1" vertex="1">
          <mxGeometry x="207.5" y="1287.5" width="80" height="10" as="geometry" />
        </mxCell>
        <mxCell id="mfT5ryJDW7ZpNOFKt1oW-141" value="&lt;font style=&quot;font-size: 8px;&quot;&gt;SET_TOTAL_SUB&lt;/font&gt;" style="rounded=1;whiteSpace=wrap;html=1;" parent="1" vertex="1">
          <mxGeometry x="207.5" y="1302.5" width="70" height="15" as="geometry" />
        </mxCell>
        <mxCell id="mfT5ryJDW7ZpNOFKt1oW-143" value="" style="curved=1;endArrow=classic;html=1;rounded=0;entryX=0;entryY=0.5;entryDx=0;entryDy=0;exitX=0.75;exitY=0;exitDx=0;exitDy=0;" parent="1" source="mfT5ryJDW7ZpNOFKt1oW-133" target="mfT5ryJDW7ZpNOFKt1oW-138" edge="1">
          <mxGeometry width="50" height="50" relative="1" as="geometry">
            <mxPoint x="-90" y="1492.5" as="sourcePoint" />
            <mxPoint x="60" y="1467.5" as="targetPoint" />
            <Array as="points">
              <mxPoint x="135" y="1237.5" />
            </Array>
          </mxGeometry>
        </mxCell>
        <mxCell id="mfT5ryJDW7ZpNOFKt1oW-144" value="" style="curved=1;endArrow=classic;html=1;rounded=0;entryX=0;entryY=0.5;entryDx=0;entryDy=0;exitX=1;exitY=0.25;exitDx=0;exitDy=0;" parent="1" source="mfT5ryJDW7ZpNOFKt1oW-133" target="mfT5ryJDW7ZpNOFKt1oW-139" edge="1">
          <mxGeometry width="50" height="50" relative="1" as="geometry">
            <mxPoint x="120" y="1372.5" as="sourcePoint" />
            <mxPoint x="170" y="1322.5" as="targetPoint" />
            <Array as="points">
              <mxPoint x="145" y="1267.5" />
            </Array>
          </mxGeometry>
        </mxCell>
        <mxCell id="mfT5ryJDW7ZpNOFKt1oW-145" value="" style="curved=1;endArrow=classic;html=1;rounded=0;entryX=0;entryY=0.5;entryDx=0;entryDy=0;exitX=1;exitY=0.5;exitDx=0;exitDy=0;" parent="1" source="mfT5ryJDW7ZpNOFKt1oW-133" target="mfT5ryJDW7ZpNOFKt1oW-140" edge="1">
          <mxGeometry width="50" height="50" relative="1" as="geometry">
            <mxPoint x="-50" y="1332.5" as="sourcePoint" />
            <mxPoint x="245" y="1267.5" as="targetPoint" />
            <Array as="points">
              <mxPoint x="125" y="1307.5" />
            </Array>
          </mxGeometry>
        </mxCell>
        <mxCell id="mfT5ryJDW7ZpNOFKt1oW-146" value="" style="curved=1;endArrow=classic;html=1;rounded=0;entryX=0;entryY=0.5;entryDx=0;entryDy=0;exitX=1;exitY=0.75;exitDx=0;exitDy=0;" parent="1" source="mfT5ryJDW7ZpNOFKt1oW-133" target="mfT5ryJDW7ZpNOFKt1oW-141" edge="1">
          <mxGeometry width="50" height="50" relative="1" as="geometry">
            <mxPoint x="-40" y="1342.5" as="sourcePoint" />
            <mxPoint x="255" y="1277.5" as="targetPoint" />
            <Array as="points">
              <mxPoint x="135" y="1347.5" />
            </Array>
          </mxGeometry>
        </mxCell>
        <mxCell id="mfT5ryJDW7ZpNOFKt1oW-147" value="&lt;font style=&quot;font-size: 8px;&quot;&gt;option&amp;nbsp;== 2&lt;/font&gt;" style="text;html=1;align=center;verticalAlign=middle;whiteSpace=wrap;rounded=0;" parent="1" vertex="1">
          <mxGeometry x="122.5" y="1247.5" width="70" height="30" as="geometry" />
        </mxCell>
        <mxCell id="mfT5ryJDW7ZpNOFKt1oW-148" value="&lt;font style=&quot;font-size: 8px;&quot;&gt;option&amp;nbsp;== 3&lt;/font&gt;" style="text;html=1;align=center;verticalAlign=middle;whiteSpace=wrap;rounded=0;" parent="1" vertex="1">
          <mxGeometry x="110" y="1277.5" width="75" height="30" as="geometry" />
        </mxCell>
        <mxCell id="mfT5ryJDW7ZpNOFKt1oW-149" value="&lt;font style=&quot;font-size: 8px;&quot;&gt;option&amp;nbsp;== 4&lt;/font&gt;" style="text;html=1;align=center;verticalAlign=middle;whiteSpace=wrap;rounded=0;" parent="1" vertex="1">
          <mxGeometry x="117.5" y="1302.5" width="75" height="30" as="geometry" />
        </mxCell>
        <mxCell id="mfT5ryJDW7ZpNOFKt1oW-150" value="" style="curved=1;endArrow=classic;html=1;rounded=0;entryX=0.75;entryY=1;entryDx=0;entryDy=0;exitX=0.25;exitY=1;exitDx=0;exitDy=0;" parent="1" source="mfT5ryJDW7ZpNOFKt1oW-137" target="mfT5ryJDW7ZpNOFKt1oW-133" edge="1">
          <mxGeometry width="50" height="50" relative="1" as="geometry">
            <mxPoint x="-50" y="1522.5" as="sourcePoint" />
            <mxPoint y="1472.5" as="targetPoint" />
            <Array as="points">
              <mxPoint x="195" y="1347.5" />
              <mxPoint x="105" y="1347.5" />
            </Array>
          </mxGeometry>
        </mxCell>
        <mxCell id="mfT5ryJDW7ZpNOFKt1oW-152" value="" style="endArrow=classic;html=1;rounded=0;entryX=0;entryY=0.5;entryDx=0;entryDy=0;" parent="1" source="mfT5ryJDW7ZpNOFKt1oW-153" target="mfT5ryJDW7ZpNOFKt1oW-133" edge="1">
          <mxGeometry width="50" height="50" relative="1" as="geometry">
            <mxPoint x="-250" y="1367.5" as="sourcePoint" />
            <mxPoint x="-150" y="1327.5" as="targetPoint" />
          </mxGeometry>
        </mxCell>
        <mxCell id="mfT5ryJDW7ZpNOFKt1oW-153" value="" style="shape=waypoint;sketch=0;fillStyle=solid;size=6;pointerEvents=1;points=[];fillColor=none;resizable=0;rotatable=0;perimeter=centerPerimeter;snapToPoint=1;" parent="1" vertex="1">
          <mxGeometry x="40" y="1282.5" width="20" height="20" as="geometry" />
        </mxCell>
        <mxCell id="mfT5ryJDW7ZpNOFKt1oW-160" value="&lt;b&gt;&lt;font style=&quot;font-size: 18px;&quot;&gt;MEF Display&lt;/font&gt;&lt;/b&gt;" style="text;html=1;align=center;verticalAlign=middle;whiteSpace=wrap;rounded=0;" parent="1" vertex="1">
          <mxGeometry x="1210" y="1700" width="260" height="30" as="geometry" />
        </mxCell>
        <mxCell id="mfT5ryJDW7ZpNOFKt1oW-161" value="DISPLAY_UPDATE_ROW0" style="rounded=1;whiteSpace=wrap;html=1;" parent="1" vertex="1">
          <mxGeometry x="1320" y="1788" width="150" height="60" as="geometry" />
        </mxCell>
        <mxCell id="mfT5ryJDW7ZpNOFKt1oW-162" value="DISPLAY_UPDATE_ROW1" style="rounded=1;whiteSpace=wrap;html=1;" parent="1" vertex="1">
          <mxGeometry x="1700" y="1788" width="150" height="60" as="geometry" />
        </mxCell>
        <mxCell id="mfT5ryJDW7ZpNOFKt1oW-163" value="" style="shape=waypoint;sketch=0;fillStyle=solid;size=6;pointerEvents=1;points=[];fillColor=none;resizable=0;rotatable=0;perimeter=centerPerimeter;snapToPoint=1;" parent="1" vertex="1">
          <mxGeometry x="1255" y="1808" width="20" height="20" as="geometry" />
        </mxCell>
        <mxCell id="mfT5ryJDW7ZpNOFKt1oW-164" value="" style="endArrow=classic;html=1;rounded=0;entryX=0;entryY=0.5;entryDx=0;entryDy=0;" parent="1" source="mfT5ryJDW7ZpNOFKt1oW-163" target="mfT5ryJDW7ZpNOFKt1oW-161" edge="1">
          <mxGeometry width="50" height="50" relative="1" as="geometry">
            <mxPoint x="1240" y="1888" as="sourcePoint" />
            <mxPoint x="1290" y="1838" as="targetPoint" />
          </mxGeometry>
        </mxCell>
        <mxCell id="mfT5ryJDW7ZpNOFKt1oW-165" value="" style="curved=1;endArrow=classic;html=1;rounded=0;entryX=0;entryY=0.5;entryDx=0;entryDy=0;exitX=1;exitY=0.5;exitDx=0;exitDy=0;" parent="1" source="mfT5ryJDW7ZpNOFKt1oW-161" target="mfT5ryJDW7ZpNOFKt1oW-162" edge="1">
          <mxGeometry width="50" height="50" relative="1" as="geometry">
            <mxPoint x="1560" y="1858" as="sourcePoint" />
            <mxPoint x="1610" y="1808" as="targetPoint" />
            <Array as="points">
              <mxPoint x="1540" y="1798" />
              <mxPoint x="1650" y="1798" />
            </Array>
          </mxGeometry>
        </mxCell>
        <mxCell id="mfT5ryJDW7ZpNOFKt1oW-166" value="" style="curved=1;endArrow=classic;html=1;rounded=0;entryX=1;entryY=0.75;entryDx=0;entryDy=0;exitX=0;exitY=1;exitDx=0;exitDy=0;" parent="1" source="mfT5ryJDW7ZpNOFKt1oW-162" target="mfT5ryJDW7ZpNOFKt1oW-161" edge="1">
          <mxGeometry width="50" height="50" relative="1" as="geometry">
            <mxPoint x="1560" y="1938" as="sourcePoint" />
            <mxPoint x="1610" y="1888" as="targetPoint" />
            <Array as="points">
              <mxPoint x="1530" y="1888" />
            </Array>
          </mxGeometry>
        </mxCell>
        <mxCell id="mfT5ryJDW7ZpNOFKt1oW-168" value="" style="rounded=1;whiteSpace=wrap;html=1;" parent="1" vertex="1">
          <mxGeometry x="1285" y="2058" width="460" height="270" as="geometry" />
        </mxCell>
        <mxCell id="mfT5ryJDW7ZpNOFKt1oW-170" value="" style="shape=waypoint;sketch=0;fillStyle=solid;size=6;pointerEvents=1;points=[];fillColor=none;resizable=0;rotatable=0;perimeter=centerPerimeter;snapToPoint=1;" parent="1" vertex="1">
          <mxGeometry x="1215" y="2158" width="20" height="20" as="geometry" />
        </mxCell>
        <mxCell id="mfT5ryJDW7ZpNOFKt1oW-171" value="" style="endArrow=classic;html=1;rounded=0;entryX=-0.008;entryY=0.403;entryDx=0;entryDy=0;entryPerimeter=0;" parent="1" source="mfT5ryJDW7ZpNOFKt1oW-170" target="mfT5ryJDW7ZpNOFKt1oW-168" edge="1">
          <mxGeometry width="50" height="50" relative="1" as="geometry">
            <mxPoint x="1220" y="2088" as="sourcePoint" />
            <mxPoint x="1275" y="2018" as="targetPoint" />
          </mxGeometry>
        </mxCell>
        <mxCell id="mfT5ryJDW7ZpNOFKt1oW-172" value="" style="curved=1;endArrow=classic;html=1;rounded=0;entryX=0;entryY=0.25;entryDx=0;entryDy=0;exitX=1;exitY=0.25;exitDx=0;exitDy=0;" parent="1" source="mfT5ryJDW7ZpNOFKt1oW-179" target="mfT5ryJDW7ZpNOFKt1oW-176" edge="1">
          <mxGeometry width="50" height="50" relative="1" as="geometry">
            <mxPoint x="1730" y="2048" as="sourcePoint" />
            <mxPoint x="1925" y="2048" as="targetPoint" />
            <Array as="points">
              <mxPoint x="1785" y="2048" />
            </Array>
          </mxGeometry>
        </mxCell>
        <mxCell id="mfT5ryJDW7ZpNOFKt1oW-174" value="" style="endArrow=none;html=1;rounded=0;entryX=1.003;entryY=0.129;entryDx=0;entryDy=0;entryPerimeter=0;exitX=0.01;exitY=0.129;exitDx=0;exitDy=0;exitPerimeter=0;" parent="1" source="mfT5ryJDW7ZpNOFKt1oW-168" target="mfT5ryJDW7ZpNOFKt1oW-168" edge="1">
          <mxGeometry width="50" height="50" relative="1" as="geometry">
            <mxPoint x="1465" y="2168" as="sourcePoint" />
            <mxPoint x="1515" y="2118" as="targetPoint" />
          </mxGeometry>
        </mxCell>
        <mxCell id="mfT5ryJDW7ZpNOFKt1oW-175" value="DISPLAY_UPDATE_ROW0" style="text;html=1;align=center;verticalAlign=middle;whiteSpace=wrap;rounded=0;" parent="1" vertex="1">
          <mxGeometry x="1365" y="2058" width="60" height="30" as="geometry" />
        </mxCell>
        <mxCell id="mfT5ryJDW7ZpNOFKt1oW-176" value="" style="rounded=1;whiteSpace=wrap;html=1;" parent="1" vertex="1">
          <mxGeometry x="1983.46" y="2068" width="220.88" height="170" as="geometry" />
        </mxCell>
        <mxCell id="mfT5ryJDW7ZpNOFKt1oW-177" value="" style="endArrow=none;html=1;rounded=0;entryX=1.003;entryY=0.129;entryDx=0;entryDy=0;entryPerimeter=0;exitX=0.01;exitY=0.129;exitDx=0;exitDy=0;exitPerimeter=0;" parent="1" source="mfT5ryJDW7ZpNOFKt1oW-176" target="mfT5ryJDW7ZpNOFKt1oW-176" edge="1">
          <mxGeometry width="50" height="50" relative="1" as="geometry">
            <mxPoint x="2140.52" y="2178" as="sourcePoint" />
            <mxPoint x="2190.52" y="2128" as="targetPoint" />
          </mxGeometry>
        </mxCell>
        <mxCell id="mfT5ryJDW7ZpNOFKt1oW-178" value="DISPLAY_UPDATE_ROW1" style="text;html=1;align=center;verticalAlign=middle;whiteSpace=wrap;rounded=0;" parent="1" vertex="1">
          <mxGeometry x="2040.52" y="2068" width="60" height="30" as="geometry" />
        </mxCell>
        <mxCell id="mfT5ryJDW7ZpNOFKt1oW-179" value="consult_DisplayEventQueue() ^ event == eSetting | flagSetting = 1, flagStoped = 0, flagGoingUp = 0, flagGoingDown = 0&lt;div&gt;consult_DisplayEventQueue() ^ event == eStop | flagSetting = 0, flagStoped = 1, flagGoingUp = 0, flagGoingDown = 0&lt;/div&gt;&lt;div&gt;consult_DisplayEventQueue() ^ event == eGoingUp | flagSetting = 0, flagStoped = 0, flagGoingUp = 1, flagGoingDown = 0&lt;/div&gt;&lt;div&gt;consult_DisplayEventQueue() ^&amp;nbsp;&lt;span style=&quot;background-color: transparent; color: light-dark(rgb(0, 0, 0), rgb(255, 255, 255));&quot;&gt;event == eGoingDown&amp;nbsp;&lt;/span&gt;&lt;span style=&quot;background-color: transparent; color: light-dark(rgb(0, 0, 0), rgb(255, 255, 255));&quot;&gt;| flagSetting = 0, flagStoped = 0, flagGoingUp = 0, flagGoingDown = 1&lt;/span&gt;&lt;/div&gt;&lt;div&gt;&lt;span style=&quot;background-color: transparent; color: light-dark(rgb(0, 0, 0), rgb(255, 255, 255));&quot;&gt;&lt;br&gt;&lt;/span&gt;&lt;/div&gt;&lt;div&gt;&lt;span style=&quot;background-color: transparent; color: light-dark(rgb(0, 0, 0), rgb(255, 255, 255));&quot;&gt;flagSetting | &quot; FUERA DE &quot;&lt;/span&gt;&lt;/div&gt;&lt;div&gt;&lt;span style=&quot;background-color: transparent; color: light-dark(rgb(0, 0, 0), rgb(255, 255, 255));&quot;&gt;flagStoped | &quot;Piso actual: &quot;&lt;/span&gt;&lt;/div&gt;&lt;div&gt;&lt;span style=&quot;background-color: transparent; color: light-dark(rgb(0, 0, 0), rgb(255, 255, 255));&quot;&gt;flagGoingUp | &quot;Destino: &quot;&lt;/span&gt;&lt;/div&gt;&lt;div&gt;flagGoingDown | &quot;Destino: &quot;&lt;span style=&quot;background-color: transparent; color: light-dark(rgb(0, 0, 0), rgb(255, 255, 255));&quot;&gt;&lt;/span&gt;&lt;/div&gt;" style="text;html=1;align=left;verticalAlign=middle;whiteSpace=wrap;rounded=0;" parent="1" vertex="1">
          <mxGeometry x="1290" y="2068" width="455" height="280" as="geometry" />
        </mxCell>
        <mxCell id="mfT5ryJDW7ZpNOFKt1oW-180" value="flagSetting | &quot;SERVICIO&quot;&lt;div&gt;!flagSetting | &quot;Destino: &quot;&lt;/div&gt;" style="text;html=1;align=center;verticalAlign=middle;whiteSpace=wrap;rounded=0;" parent="1" vertex="1">
          <mxGeometry x="1989.3400000000001" y="2093" width="210" height="130" as="geometry" />
        </mxCell>
        <mxCell id="mfT5ryJDW7ZpNOFKt1oW-181" value="" style="curved=1;endArrow=classic;html=1;rounded=0;entryX=1.002;entryY=0.632;entryDx=0;entryDy=0;exitX=0;exitY=0.75;exitDx=0;exitDy=0;entryPerimeter=0;" parent="1" source="mfT5ryJDW7ZpNOFKt1oW-176" target="mfT5ryJDW7ZpNOFKt1oW-179" edge="1">
          <mxGeometry width="50" height="50" relative="1" as="geometry">
            <mxPoint x="1983.46" y="2253" as="sourcePoint" />
            <mxPoint x="1753.46" y="2238" as="targetPoint" />
            <Array as="points">
              <mxPoint x="1813.46" y="2293" />
            </Array>
          </mxGeometry>
        </mxCell>
        <mxCell id="mfT5ryJDW7ZpNOFKt1oW-183" value="" style="rounded=1;whiteSpace=wrap;html=1;" parent="1" vertex="1">
          <mxGeometry x="20" y="3440" width="2280" height="520" as="geometry" />
        </mxCell>
        <mxCell id="mfT5ryJDW7ZpNOFKt1oW-184" value="&lt;font style=&quot;font-size: 10px;&quot;&gt;SETTING&lt;/font&gt;" style="rounded=1;whiteSpace=wrap;html=1;" parent="1" vertex="1">
          <mxGeometry x="62.5" y="3710" width="50" height="20" as="geometry" />
        </mxCell>
        <mxCell id="mfT5ryJDW7ZpNOFKt1oW-185" value="&lt;font style=&quot;font-size: 10px;&quot;&gt;GOING_DOWN&lt;/font&gt;" style="rounded=1;whiteSpace=wrap;html=1;" parent="1" vertex="1">
          <mxGeometry x="232.5" y="3650" width="80" height="30" as="geometry" />
        </mxCell>
        <mxCell id="mfT5ryJDW7ZpNOFKt1oW-186" value="&lt;font style=&quot;font-size: 10px;&quot;&gt;GOING_UP&lt;/font&gt;" style="rounded=1;whiteSpace=wrap;html=1;" parent="1" vertex="1">
          <mxGeometry x="240.6300000000001" y="3735" width="63.75" height="30" as="geometry" />
        </mxCell>
        <mxCell id="mfT5ryJDW7ZpNOFKt1oW-187" value="&lt;font style=&quot;font-size: 10px;&quot;&gt;STOPED&lt;/font&gt;" style="rounded=1;whiteSpace=wrap;html=1;" parent="1" vertex="1">
          <mxGeometry x="152.5" y="3690" width="45" height="20" as="geometry" />
        </mxCell>
        <mxCell id="mfT5ryJDW7ZpNOFKt1oW-188" value="" style="endArrow=classic;html=1;rounded=0;entryX=0;entryY=0.5;entryDx=0;entryDy=0;" parent="1" source="mfT5ryJDW7ZpNOFKt1oW-199" target="mfT5ryJDW7ZpNOFKt1oW-184" edge="1">
          <mxGeometry width="50" height="50" relative="1" as="geometry">
            <mxPoint x="32.5" y="3730" as="sourcePoint" />
            <mxPoint x="92.5" y="3730" as="targetPoint" />
          </mxGeometry>
        </mxCell>
        <mxCell id="mfT5ryJDW7ZpNOFKt1oW-189" value="" style="curved=1;endArrow=classic;html=1;rounded=0;entryX=0;entryY=0.5;entryDx=0;entryDy=0;exitX=1;exitY=0.5;exitDx=0;exitDy=0;" parent="1" source="mfT5ryJDW7ZpNOFKt1oW-184" target="mfT5ryJDW7ZpNOFKt1oW-187" edge="1">
          <mxGeometry width="50" height="50" relative="1" as="geometry">
            <mxPoint x="182.5" y="3840" as="sourcePoint" />
            <mxPoint x="232.5" y="3790" as="targetPoint" />
            <Array as="points">
              <mxPoint x="132.5" y="3700" />
            </Array>
          </mxGeometry>
        </mxCell>
        <mxCell id="mfT5ryJDW7ZpNOFKt1oW-190" value="" style="curved=1;endArrow=classic;html=1;rounded=0;entryX=1;entryY=1;entryDx=0;entryDy=0;exitX=0.083;exitY=1.067;exitDx=0;exitDy=0;exitPerimeter=0;" parent="1" source="mfT5ryJDW7ZpNOFKt1oW-187" target="mfT5ryJDW7ZpNOFKt1oW-184" edge="1">
          <mxGeometry width="50" height="50" relative="1" as="geometry">
            <mxPoint x="232.5" y="3860" as="sourcePoint" />
            <mxPoint x="282.5" y="3810" as="targetPoint" />
            <Array as="points">
              <mxPoint x="152.5" y="3730" />
            </Array>
          </mxGeometry>
        </mxCell>
        <mxCell id="mfT5ryJDW7ZpNOFKt1oW-191" value="&lt;font style=&quot;font-size: 10px;&quot;&gt;eSetting ^ currentFloor == 0&lt;/font&gt;" style="text;html=1;align=center;verticalAlign=middle;whiteSpace=wrap;rounded=0;" parent="1" vertex="1">
          <mxGeometry x="72.5" y="3735" width="90" height="40" as="geometry" />
        </mxCell>
        <mxCell id="mfT5ryJDW7ZpNOFKt1oW-192" value="&lt;font style=&quot;font-size: 10px;&quot;&gt;option == 6&lt;/font&gt;" style="text;html=1;align=center;verticalAlign=middle;whiteSpace=wrap;rounded=0;" parent="1" vertex="1">
          <mxGeometry x="72.5" y="3685" width="60" height="10" as="geometry" />
        </mxCell>
        <mxCell id="mfT5ryJDW7ZpNOFKt1oW-193" value="&lt;font style=&quot;font-size: 10px;&quot;&gt;order ^ go ^ direction == GOING_DOWN&lt;/font&gt;" style="text;html=1;align=center;verticalAlign=middle;whiteSpace=wrap;rounded=0;" parent="1" vertex="1">
          <mxGeometry x="25" y="3640" width="215" height="20" as="geometry" />
        </mxCell>
        <mxCell id="mfT5ryJDW7ZpNOFKt1oW-194" value="" style="curved=1;endArrow=classic;html=1;rounded=0;entryX=0;entryY=0.5;entryDx=0;entryDy=0;exitX=1;exitY=0.25;exitDx=0;exitDy=0;" parent="1" source="mfT5ryJDW7ZpNOFKt1oW-187" target="mfT5ryJDW7ZpNOFKt1oW-185" edge="1">
          <mxGeometry width="50" height="50" relative="1" as="geometry">
            <mxPoint x="472.5" y="3770" as="sourcePoint" />
            <mxPoint x="522.5" y="3720" as="targetPoint" />
            <Array as="points">
              <mxPoint x="202.5" y="3670" />
            </Array>
          </mxGeometry>
        </mxCell>
        <mxCell id="mfT5ryJDW7ZpNOFKt1oW-195" value="" style="curved=1;endArrow=classic;html=1;rounded=0;entryX=0;entryY=0.5;entryDx=0;entryDy=0;exitX=0.925;exitY=1.017;exitDx=0;exitDy=0;exitPerimeter=0;" parent="1" source="mfT5ryJDW7ZpNOFKt1oW-187" target="mfT5ryJDW7ZpNOFKt1oW-186" edge="1">
          <mxGeometry width="50" height="50" relative="1" as="geometry">
            <mxPoint x="382.5" y="3850" as="sourcePoint" />
            <mxPoint x="432.5" y="3800" as="targetPoint" />
            <Array as="points">
              <mxPoint x="192.5" y="3730" />
            </Array>
          </mxGeometry>
        </mxCell>
        <mxCell id="mfT5ryJDW7ZpNOFKt1oW-196" value="" style="curved=1;endArrow=classic;html=1;rounded=0;entryX=1.008;entryY=0.4;entryDx=0;entryDy=0;entryPerimeter=0;exitX=0.25;exitY=1;exitDx=0;exitDy=0;" parent="1" source="mfT5ryJDW7ZpNOFKt1oW-185" target="mfT5ryJDW7ZpNOFKt1oW-187" edge="1">
          <mxGeometry width="50" height="50" relative="1" as="geometry">
            <mxPoint x="572.5" y="3760" as="sourcePoint" />
            <mxPoint x="622.5" y="3710" as="targetPoint" />
            <Array as="points">
              <mxPoint x="232.5" y="3698" />
            </Array>
          </mxGeometry>
        </mxCell>
        <mxCell id="mfT5ryJDW7ZpNOFKt1oW-197" value="" style="curved=1;endArrow=classic;html=1;rounded=0;entryX=1;entryY=0.75;entryDx=0;entryDy=0;exitX=0.305;exitY=0.036;exitDx=0;exitDy=0;exitPerimeter=0;" parent="1" target="mfT5ryJDW7ZpNOFKt1oW-187" edge="1" source="mfT5ryJDW7ZpNOFKt1oW-186">
          <mxGeometry width="50" height="50" relative="1" as="geometry">
            <mxPoint x="242.5" y="3720" as="sourcePoint" />
            <mxPoint x="742.5" y="3750" as="targetPoint" />
            <Array as="points">
              <mxPoint x="262.5" y="3720" />
              <mxPoint x="222.5" y="3700" />
            </Array>
          </mxGeometry>
        </mxCell>
        <mxCell id="mfT5ryJDW7ZpNOFKt1oW-198" value="&lt;font style=&quot;font-size: 10px;&quot;&gt;currentFloor == destiny&lt;/font&gt;" style="text;html=1;align=center;verticalAlign=middle;whiteSpace=wrap;rounded=0;" parent="1" vertex="1">
          <mxGeometry x="265" y="3715" width="115" height="15" as="geometry" />
        </mxCell>
        <mxCell id="mfT5ryJDW7ZpNOFKt1oW-199" value="" style="shape=waypoint;sketch=0;fillStyle=solid;size=6;pointerEvents=1;points=[];fillColor=none;resizable=0;rotatable=0;perimeter=centerPerimeter;snapToPoint=1;" parent="1" vertex="1">
          <mxGeometry x="32.5" y="3710" width="20" height="20" as="geometry" />
        </mxCell>
        <mxCell id="mfT5ryJDW7ZpNOFKt1oW-200" value="&lt;font style=&quot;font-size: 10px;&quot;&gt;order ^ go ^ direction == GOING_UP&lt;/font&gt;" style="text;html=1;align=center;verticalAlign=middle;whiteSpace=wrap;rounded=0;" parent="1" vertex="1">
          <mxGeometry x="172.5" y="3740" width="63.75" height="60" as="geometry" />
        </mxCell>
        <mxCell id="mfT5ryJDW7ZpNOFKt1oW-201" value="&lt;font style=&quot;font-size: 10px;&quot;&gt;currentFloor == destiny&lt;/font&gt;" style="text;html=1;align=center;verticalAlign=middle;whiteSpace=wrap;rounded=0;" parent="1" vertex="1">
          <mxGeometry x="248.75" y="3685" width="122.5" height="10" as="geometry" />
        </mxCell>
        <mxCell id="mfT5ryJDW7ZpNOFKt1oW-202" value="&lt;font style=&quot;font-size: 6px;&quot;&gt;DISPLAY_UPDATE_ROW0&lt;/font&gt;" style="rounded=1;whiteSpace=wrap;html=1;" parent="1" vertex="1">
          <mxGeometry x="800" y="3685" width="80" height="15" as="geometry" />
        </mxCell>
        <mxCell id="mfT5ryJDW7ZpNOFKt1oW-203" value="&lt;font style=&quot;font-size: 6px;&quot;&gt;DISPLAY_UPDATE_ROW1&lt;/font&gt;" style="rounded=1;whiteSpace=wrap;html=1;" parent="1" vertex="1">
          <mxGeometry x="945" y="3685" width="75" height="15" as="geometry" />
        </mxCell>
        <mxCell id="mfT5ryJDW7ZpNOFKt1oW-204" value="" style="shape=waypoint;sketch=0;fillStyle=solid;size=6;pointerEvents=1;points=[];fillColor=none;resizable=0;rotatable=0;perimeter=centerPerimeter;snapToPoint=1;" parent="1" vertex="1">
          <mxGeometry x="770" y="3682.5" width="20" height="20" as="geometry" />
        </mxCell>
        <mxCell id="mfT5ryJDW7ZpNOFKt1oW-205" value="" style="endArrow=classic;html=1;rounded=0;entryX=0;entryY=0.5;entryDx=0;entryDy=0;" parent="1" source="mfT5ryJDW7ZpNOFKt1oW-204" target="mfT5ryJDW7ZpNOFKt1oW-202" edge="1">
          <mxGeometry width="50" height="50" relative="1" as="geometry">
            <mxPoint x="710" y="3785" as="sourcePoint" />
            <mxPoint x="760" y="3735" as="targetPoint" />
          </mxGeometry>
        </mxCell>
        <mxCell id="mfT5ryJDW7ZpNOFKt1oW-206" value="" style="curved=1;endArrow=classic;html=1;rounded=0;entryX=0;entryY=0.5;entryDx=0;entryDy=0;exitX=1;exitY=0.5;exitDx=0;exitDy=0;" parent="1" source="mfT5ryJDW7ZpNOFKt1oW-202" target="mfT5ryJDW7ZpNOFKt1oW-203" edge="1">
          <mxGeometry width="50" height="50" relative="1" as="geometry">
            <mxPoint x="1030" y="3755" as="sourcePoint" />
            <mxPoint x="1080" y="3705" as="targetPoint" />
            <Array as="points">
              <mxPoint x="910" y="3670" />
            </Array>
          </mxGeometry>
        </mxCell>
        <mxCell id="mfT5ryJDW7ZpNOFKt1oW-207" value="" style="curved=1;endArrow=classic;html=1;rounded=0;entryX=1;entryY=1;entryDx=0;entryDy=0;exitX=0;exitY=1;exitDx=0;exitDy=0;" parent="1" source="mfT5ryJDW7ZpNOFKt1oW-203" target="mfT5ryJDW7ZpNOFKt1oW-202" edge="1">
          <mxGeometry width="50" height="50" relative="1" as="geometry">
            <mxPoint x="905" y="3785" as="sourcePoint" />
            <mxPoint x="955" y="3735" as="targetPoint" />
            <Array as="points">
              <mxPoint x="910" y="3730" />
            </Array>
          </mxGeometry>
        </mxCell>
        <mxCell id="mfT5ryJDW7ZpNOFKt1oW-208" value="&lt;font style=&quot;font-size: 6px;&quot;&gt;WAIT_MANAGER&lt;/font&gt;" style="rounded=1;whiteSpace=wrap;html=1;" parent="1" vertex="1">
          <mxGeometry x="425" y="3685" width="60" height="25" as="geometry" />
        </mxCell>
        <mxCell id="mfT5ryJDW7ZpNOFKt1oW-209" value="&lt;font style=&quot;font-size: 6px;&quot;&gt;NUMBER_1&lt;/font&gt;" style="rounded=1;whiteSpace=wrap;html=1;" parent="1" vertex="1">
          <mxGeometry x="530" y="3640" width="65" height="30" as="geometry" />
        </mxCell>
        <mxCell id="mfT5ryJDW7ZpNOFKt1oW-210" value="&lt;font style=&quot;font-size: 6px;&quot;&gt;FINISH&lt;/font&gt;" style="rounded=1;whiteSpace=wrap;html=1;" parent="1" vertex="1">
          <mxGeometry x="715" y="3695" width="40" height="15" as="geometry" />
        </mxCell>
        <mxCell id="mfT5ryJDW7ZpNOFKt1oW-211" value="&lt;font style=&quot;font-size: 6px;&quot;&gt;NUMBER_2&lt;/font&gt;" style="rounded=1;whiteSpace=wrap;html=1;" parent="1" vertex="1">
          <mxGeometry x="575" y="3710" width="70" height="25" as="geometry" />
        </mxCell>
        <mxCell id="mfT5ryJDW7ZpNOFKt1oW-212" value="" style="curved=1;endArrow=classic;html=1;rounded=0;entryX=0;entryY=0.5;entryDx=0;entryDy=0;exitX=1;exitY=0.25;exitDx=0;exitDy=0;" parent="1" source="mfT5ryJDW7ZpNOFKt1oW-208" target="mfT5ryJDW7ZpNOFKt1oW-209" edge="1">
          <mxGeometry width="50" height="50" relative="1" as="geometry">
            <mxPoint x="595" y="3755" as="sourcePoint" />
            <mxPoint x="645" y="3705" as="targetPoint" />
            <Array as="points">
              <mxPoint x="495" y="3660" />
            </Array>
          </mxGeometry>
        </mxCell>
        <mxCell id="mfT5ryJDW7ZpNOFKt1oW-213" value="" style="curved=1;endArrow=classic;html=1;rounded=0;entryX=1;entryY=0.75;entryDx=0;entryDy=0;exitX=0;exitY=0.75;exitDx=0;exitDy=0;" parent="1" source="mfT5ryJDW7ZpNOFKt1oW-209" target="mfT5ryJDW7ZpNOFKt1oW-208" edge="1">
          <mxGeometry width="50" height="50" relative="1" as="geometry">
            <mxPoint x="615" y="3795" as="sourcePoint" />
            <mxPoint x="665" y="3745" as="targetPoint" />
            <Array as="points">
              <mxPoint x="525" y="3710" />
            </Array>
          </mxGeometry>
        </mxCell>
        <mxCell id="mfT5ryJDW7ZpNOFKt1oW-214" value="" style="curved=1;endArrow=classic;html=1;rounded=0;entryX=0.5;entryY=1;entryDx=0;entryDy=0;exitX=0.5;exitY=1;exitDx=0;exitDy=0;" parent="1" source="mfT5ryJDW7ZpNOFKt1oW-210" target="mfT5ryJDW7ZpNOFKt1oW-208" edge="1">
          <mxGeometry width="50" height="50" relative="1" as="geometry">
            <mxPoint x="915" y="3785" as="sourcePoint" />
            <mxPoint x="755" y="3785" as="targetPoint" />
            <Array as="points">
              <mxPoint x="745" y="3780" />
              <mxPoint x="615" y="3780" />
              <mxPoint x="445" y="3780" />
            </Array>
          </mxGeometry>
        </mxCell>
        <mxCell id="mfT5ryJDW7ZpNOFKt1oW-215" value="" style="curved=1;endArrow=classic;html=1;rounded=0;entryX=0.298;entryY=1.007;entryDx=0;entryDy=0;entryPerimeter=0;exitX=0.298;exitY=-0.03;exitDx=0;exitDy=0;exitPerimeter=0;" parent="1" source="mfT5ryJDW7ZpNOFKt1oW-211" target="mfT5ryJDW7ZpNOFKt1oW-209" edge="1">
          <mxGeometry width="50" height="50" relative="1" as="geometry">
            <mxPoint x="795" y="3805" as="sourcePoint" />
            <mxPoint x="605" y="3740" as="targetPoint" />
            <Array as="points">
              <mxPoint x="585" y="3710" />
              <mxPoint x="555" y="3690" />
            </Array>
          </mxGeometry>
        </mxCell>
        <mxCell id="mfT5ryJDW7ZpNOFKt1oW-216" value="" style="curved=1;endArrow=classic;html=1;rounded=0;entryX=0;entryY=0.5;entryDx=0;entryDy=0;exitX=1;exitY=0.5;exitDx=0;exitDy=0;" parent="1" source="mfT5ryJDW7ZpNOFKt1oW-209" target="mfT5ryJDW7ZpNOFKt1oW-210" edge="1">
          <mxGeometry width="50" height="50" relative="1" as="geometry">
            <mxPoint x="835" y="3735" as="sourcePoint" />
            <mxPoint x="980" y="3735" as="targetPoint" />
            <Array as="points">
              <mxPoint x="665" y="3650" />
            </Array>
          </mxGeometry>
        </mxCell>
        <mxCell id="mfT5ryJDW7ZpNOFKt1oW-217" value="" style="curved=1;endArrow=classic;html=1;rounded=0;entryX=0;entryY=1;entryDx=0;entryDy=0;exitX=1;exitY=0.5;exitDx=0;exitDy=0;" parent="1" source="mfT5ryJDW7ZpNOFKt1oW-211" target="mfT5ryJDW7ZpNOFKt1oW-210" edge="1">
          <mxGeometry width="50" height="50" relative="1" as="geometry">
            <mxPoint x="605" y="3725" as="sourcePoint" />
            <mxPoint x="750" y="3725" as="targetPoint" />
            <Array as="points">
              <mxPoint x="675" y="3730" />
            </Array>
          </mxGeometry>
        </mxCell>
        <mxCell id="mfT5ryJDW7ZpNOFKt1oW-218" value="" style="curved=1;endArrow=classic;html=1;rounded=0;entryX=0.75;entryY=0;entryDx=0;entryDy=0;exitX=0.75;exitY=1;exitDx=0;exitDy=0;" parent="1" source="mfT5ryJDW7ZpNOFKt1oW-209" target="mfT5ryJDW7ZpNOFKt1oW-211" edge="1">
          <mxGeometry width="50" height="50" relative="1" as="geometry">
            <mxPoint x="785" y="3775" as="sourcePoint" />
            <mxPoint x="930" y="3775" as="targetPoint" />
            <Array as="points">
              <mxPoint x="645" y="3680" />
            </Array>
          </mxGeometry>
        </mxCell>
        <mxCell id="mfT5ryJDW7ZpNOFKt1oW-219" value="&lt;font style=&quot;font-size: 6px;&quot;&gt;keyOk ^ validate_number() ^ number == 3&lt;/font&gt;" style="text;html=1;align=center;verticalAlign=middle;whiteSpace=wrap;rounded=0;" parent="1" vertex="1">
          <mxGeometry x="630" y="3620" width="45" height="30" as="geometry" />
        </mxCell>
        <mxCell id="mfT5ryJDW7ZpNOFKt1oW-220" value="&lt;font style=&quot;font-size: 6px;&quot;&gt;keyOk ^ validate_number() ^ number == 3&lt;/font&gt;" style="text;html=1;align=center;verticalAlign=middle;whiteSpace=wrap;rounded=0;" parent="1" vertex="1">
          <mxGeometry x="661.25" y="3735" width="47.5" height="20" as="geometry" />
        </mxCell>
        <mxCell id="mfT5ryJDW7ZpNOFKt1oW-221" value="&lt;font style=&quot;font-size: 6px;&quot;&gt;keyOk ^ validate_number() ^ number == 7&lt;/font&gt;" style="text;html=1;align=center;verticalAlign=middle;whiteSpace=wrap;rounded=0;" parent="1" vertex="1">
          <mxGeometry x="455" y="3710" width="60" height="30" as="geometry" />
        </mxCell>
        <mxCell id="mfT5ryJDW7ZpNOFKt1oW-222" value="&lt;font style=&quot;font-size: 6px;&quot;&gt;keyOk ^ validate_number() ^ number == 7&lt;/font&gt;" style="text;html=1;align=center;verticalAlign=middle;whiteSpace=wrap;rounded=0;" parent="1" vertex="1">
          <mxGeometry x="520" y="3700" width="55" height="20" as="geometry" />
        </mxCell>
        <mxCell id="mfT5ryJDW7ZpNOFKt1oW-223" value="&lt;font style=&quot;font-size: 6px;&quot;&gt;keyOk ^ validate_number()&lt;/font&gt;" style="text;html=1;align=center;verticalAlign=middle;whiteSpace=wrap;rounded=0;" parent="1" vertex="1">
          <mxGeometry x="571.25" y="3675" width="57.5" height="20" as="geometry" />
        </mxCell>
        <mxCell id="mfT5ryJDW7ZpNOFKt1oW-224" value="&lt;font style=&quot;font-size: 6px;&quot;&gt;keyOk ^ validate_number()&lt;/font&gt;" style="text;html=1;align=center;verticalAlign=middle;whiteSpace=wrap;rounded=0;" parent="1" vertex="1">
          <mxGeometry x="425" y="3640" width="90" height="20" as="geometry" />
        </mxCell>
        <mxCell id="mfT5ryJDW7ZpNOFKt1oW-225" value="" style="shape=waypoint;sketch=0;fillStyle=solid;size=6;pointerEvents=1;points=[];fillColor=none;resizable=0;rotatable=0;perimeter=centerPerimeter;snapToPoint=1;" parent="1" vertex="1">
          <mxGeometry x="390" y="3687.5" width="20" height="20" as="geometry" />
        </mxCell>
        <mxCell id="mfT5ryJDW7ZpNOFKt1oW-226" value="" style="endArrow=classic;html=1;rounded=0;entryX=0;entryY=0.5;entryDx=0;entryDy=0;exitX=1.04;exitY=0.22;exitDx=0;exitDy=0;exitPerimeter=0;" parent="1" source="mfT5ryJDW7ZpNOFKt1oW-225" target="mfT5ryJDW7ZpNOFKt1oW-208" edge="1">
          <mxGeometry width="50" height="50" relative="1" as="geometry">
            <mxPoint x="375" y="3715" as="sourcePoint" />
            <mxPoint x="405" y="3755" as="targetPoint" />
          </mxGeometry>
        </mxCell>
        <mxCell id="ASqiGz5f3JUgUEJh9aH_-1" value="" style="endArrow=none;dashed=1;html=1;rounded=0;entryX=0.159;entryY=0.001;entryDx=0;entryDy=0;entryPerimeter=0;exitX=0.16;exitY=1.002;exitDx=0;exitDy=0;exitPerimeter=0;" edge="1" parent="1" source="mfT5ryJDW7ZpNOFKt1oW-183" target="mfT5ryJDW7ZpNOFKt1oW-183">
          <mxGeometry width="50" height="50" relative="1" as="geometry">
            <mxPoint x="550" y="4310" as="sourcePoint" />
            <mxPoint x="600" y="4260" as="targetPoint" />
          </mxGeometry>
        </mxCell>
        <mxCell id="ASqiGz5f3JUgUEJh9aH_-2" value="&lt;b&gt;&lt;font style=&quot;font-size: 18px;&quot;&gt;Elevator&lt;/font&gt;&lt;/b&gt;" style="text;html=1;align=center;verticalAlign=middle;whiteSpace=wrap;rounded=0;" vertex="1" parent="1">
          <mxGeometry x="45" y="3470" width="142.5" height="30" as="geometry" />
        </mxCell>
        <mxCell id="ASqiGz5f3JUgUEJh9aH_-3" value="" style="endArrow=none;dashed=1;html=1;rounded=0;entryX=0.327;entryY=0.002;entryDx=0;entryDy=0;entryPerimeter=0;exitX=0.328;exitY=0.997;exitDx=0;exitDy=0;exitPerimeter=0;" edge="1" parent="1" source="mfT5ryJDW7ZpNOFKt1oW-183" target="mfT5ryJDW7ZpNOFKt1oW-183">
          <mxGeometry width="50" height="50" relative="1" as="geometry">
            <mxPoint x="910" y="4270" as="sourcePoint" />
            <mxPoint x="960" y="4220" as="targetPoint" />
          </mxGeometry>
        </mxCell>
        <mxCell id="ASqiGz5f3JUgUEJh9aH_-4" value="&lt;b&gt;&lt;font style=&quot;font-size: 18px;&quot;&gt;Manager&lt;/font&gt;&lt;/b&gt;" style="text;html=1;align=center;verticalAlign=middle;whiteSpace=wrap;rounded=0;" vertex="1" parent="1">
          <mxGeometry x="355" y="3470" width="260" height="30" as="geometry" />
        </mxCell>
        <mxCell id="ASqiGz5f3JUgUEJh9aH_-5" value="" style="endArrow=none;dashed=1;html=1;rounded=0;entryX=0.445;entryY=0.004;entryDx=0;entryDy=0;entryPerimeter=0;exitX=0.447;exitY=0.994;exitDx=0;exitDy=0;exitPerimeter=0;" edge="1" parent="1" source="mfT5ryJDW7ZpNOFKt1oW-183" target="mfT5ryJDW7ZpNOFKt1oW-183">
          <mxGeometry width="50" height="50" relative="1" as="geometry">
            <mxPoint x="1180" y="4100" as="sourcePoint" />
            <mxPoint x="1230" y="4050" as="targetPoint" />
          </mxGeometry>
        </mxCell>
        <mxCell id="ASqiGz5f3JUgUEJh9aH_-6" value="&lt;font style=&quot;font-size: 10px;&quot;&gt;WAIT_BUTTON&lt;/font&gt;" style="rounded=1;whiteSpace=wrap;html=1;" vertex="1" parent="1">
          <mxGeometry x="1095" y="3655" width="75" height="40" as="geometry" />
        </mxCell>
        <mxCell id="ASqiGz5f3JUgUEJh9aH_-7" value="&lt;font style=&quot;font-size: 10px;&quot;&gt;DEBOUNCE_BUTTON&lt;/font&gt;" style="rounded=1;whiteSpace=wrap;html=1;" vertex="1" parent="1">
          <mxGeometry x="1325" y="3665" width="105" height="40" as="geometry" />
        </mxCell>
        <mxCell id="ASqiGz5f3JUgUEJh9aH_-8" value="&lt;font style=&quot;font-size: 10px;&quot;&gt;PRESS_BUTTON&lt;/font&gt;" style="rounded=1;whiteSpace=wrap;html=1;" vertex="1" parent="1">
          <mxGeometry x="1210" y="3785" width="95" height="40" as="geometry" />
        </mxCell>
        <mxCell id="ASqiGz5f3JUgUEJh9aH_-9" value="" style="curved=1;endArrow=classic;html=1;rounded=0;entryX=0;entryY=0.5;entryDx=0;entryDy=0;exitX=1;exitY=0.5;exitDx=0;exitDy=0;" edge="1" parent="1" source="ASqiGz5f3JUgUEJh9aH_-6" target="ASqiGz5f3JUgUEJh9aH_-7">
          <mxGeometry width="50" height="50" relative="1" as="geometry">
            <mxPoint x="1245" y="3715" as="sourcePoint" />
            <mxPoint x="1295" y="3665" as="targetPoint" />
            <Array as="points">
              <mxPoint x="1250" y="3635" />
            </Array>
          </mxGeometry>
        </mxCell>
        <mxCell id="ASqiGz5f3JUgUEJh9aH_-10" value="" style="curved=1;endArrow=classic;html=1;rounded=0;entryX=0.5;entryY=1;entryDx=0;entryDy=0;exitX=0;exitY=0.5;exitDx=0;exitDy=0;" edge="1" parent="1" source="ASqiGz5f3JUgUEJh9aH_-8" target="ASqiGz5f3JUgUEJh9aH_-6">
          <mxGeometry width="50" height="50" relative="1" as="geometry">
            <mxPoint x="1165" y="3905" as="sourcePoint" />
            <mxPoint x="1215" y="3855" as="targetPoint" />
            <Array as="points">
              <mxPoint x="1150" y="3805" />
            </Array>
          </mxGeometry>
        </mxCell>
        <mxCell id="ASqiGz5f3JUgUEJh9aH_-11" value="" style="curved=1;endArrow=classic;html=1;rounded=0;exitX=0.433;exitY=1.067;exitDx=0;exitDy=0;exitPerimeter=0;entryX=1;entryY=0.5;entryDx=0;entryDy=0;" edge="1" parent="1" source="ASqiGz5f3JUgUEJh9aH_-7" target="ASqiGz5f3JUgUEJh9aH_-8">
          <mxGeometry width="50" height="50" relative="1" as="geometry">
            <mxPoint x="1565" y="3875" as="sourcePoint" />
            <mxPoint x="1615" y="3825" as="targetPoint" />
            <Array as="points">
              <mxPoint x="1400" y="3795" />
            </Array>
          </mxGeometry>
        </mxCell>
        <mxCell id="ASqiGz5f3JUgUEJh9aH_-12" value="" style="curved=1;endArrow=classic;html=1;rounded=0;exitX=0;exitY=1;exitDx=0;exitDy=0;entryX=0.933;entryY=1.017;entryDx=0;entryDy=0;entryPerimeter=0;" edge="1" parent="1" source="ASqiGz5f3JUgUEJh9aH_-7" target="ASqiGz5f3JUgUEJh9aH_-6">
          <mxGeometry width="50" height="50" relative="1" as="geometry">
            <mxPoint x="1397" y="3725" as="sourcePoint" />
            <mxPoint x="1285" y="3842" as="targetPoint" />
            <Array as="points">
              <mxPoint x="1230" y="3735" />
            </Array>
          </mxGeometry>
        </mxCell>
        <mxCell id="ASqiGz5f3JUgUEJh9aH_-13" value="" style="endArrow=classic;html=1;rounded=0;entryX=0;entryY=0.5;entryDx=0;entryDy=0;" edge="1" parent="1" source="ASqiGz5f3JUgUEJh9aH_-14" target="ASqiGz5f3JUgUEJh9aH_-6">
          <mxGeometry width="50" height="50" relative="1" as="geometry">
            <mxPoint x="1005" y="3685" as="sourcePoint" />
            <mxPoint x="1055" y="3685" as="targetPoint" />
          </mxGeometry>
        </mxCell>
        <mxCell id="ASqiGz5f3JUgUEJh9aH_-14" value="" style="shape=waypoint;sketch=0;fillStyle=solid;size=6;pointerEvents=1;points=[];fillColor=none;resizable=0;rotatable=0;perimeter=centerPerimeter;snapToPoint=1;" vertex="1" parent="1">
          <mxGeometry x="1047.5" y="3665" width="20" height="20" as="geometry" />
        </mxCell>
        <mxCell id="ASqiGz5f3JUgUEJh9aH_-15" value="&lt;font style=&quot;font-size: 10px;&quot;&gt;gpioRead(GPIO) == 1 | delayRead()&lt;/font&gt;" style="text;html=1;align=center;verticalAlign=middle;whiteSpace=wrap;rounded=0;" vertex="1" parent="1">
          <mxGeometry x="1192.5" y="3615" width="130" height="30" as="geometry" />
        </mxCell>
        <mxCell id="ASqiGz5f3JUgUEJh9aH_-16" value="&lt;font style=&quot;font-size: 10px;&quot;&gt;delayRead() ^ gpioRead(GPIO) == 1 ^ buttonAccess == 1 |&lt;/font&gt;&lt;div&gt;&lt;font style=&quot;font-size: 10px;&quot;&gt;insert_EventQueue()&lt;/font&gt;&lt;/div&gt;" style="text;html=1;align=center;verticalAlign=middle;whiteSpace=wrap;rounded=0;" vertex="1" parent="1">
          <mxGeometry x="1370" y="3725" width="130" height="80" as="geometry" />
        </mxCell>
        <mxCell id="ASqiGz5f3JUgUEJh9aH_-17" value="&lt;font style=&quot;font-size: 10px;&quot;&gt;delayRead() ^ gpioRead(GPIO) == 0&lt;/font&gt;" style="text;html=1;align=center;verticalAlign=middle;whiteSpace=wrap;rounded=0;" vertex="1" parent="1">
          <mxGeometry x="1140" y="3715" width="230" height="30" as="geometry" />
        </mxCell>
        <mxCell id="ASqiGz5f3JUgUEJh9aH_-18" value="&lt;font style=&quot;font-size: 10px;&quot;&gt;gpioRead(GPIO) == 0&lt;/font&gt;" style="text;html=1;align=center;verticalAlign=middle;whiteSpace=wrap;rounded=0;" vertex="1" parent="1">
          <mxGeometry x="1030" y="3755" width="140" height="30" as="geometry" />
        </mxCell>
        <mxCell id="ASqiGz5f3JUgUEJh9aH_-19" value="&lt;font style=&quot;font-size: 10px;&quot;&gt;WAIT_KEYBOARD&lt;/font&gt;" style="rounded=1;whiteSpace=wrap;html=1;" vertex="1" parent="1">
          <mxGeometry x="1553.75" y="3652.5" width="87.5" height="40" as="geometry" />
        </mxCell>
        <mxCell id="ASqiGz5f3JUgUEJh9aH_-20" value="&lt;font style=&quot;font-size: 10px;&quot;&gt;DEBOUNCE_KEYBOARD&lt;/font&gt;" style="rounded=1;whiteSpace=wrap;html=1;" vertex="1" parent="1">
          <mxGeometry x="1788.75" y="3657.5" width="120" height="30" as="geometry" />
        </mxCell>
        <mxCell id="ASqiGz5f3JUgUEJh9aH_-21" value="&lt;font style=&quot;font-size: 10px;&quot;&gt;PRESS_KEYBOARD&lt;/font&gt;" style="rounded=1;whiteSpace=wrap;html=1;" vertex="1" parent="1">
          <mxGeometry x="1681.25" y="3752.5" width="87.5" height="40" as="geometry" />
        </mxCell>
        <mxCell id="ASqiGz5f3JUgUEJh9aH_-22" value="&lt;div&gt;&lt;font style=&quot;font-size: 10px;&quot;&gt;scanCol != 4 |&amp;nbsp;&lt;/font&gt;&lt;/div&gt;&lt;div&gt;&lt;font style=&quot;font-size: 10px;&quot;&gt;keyRow = scanRow&lt;/font&gt;&lt;/div&gt;&lt;div&gt;&lt;font style=&quot;font-size: 10px;&quot;&gt;keyCol = scanCol&lt;/font&gt;&lt;/div&gt;&lt;div&gt;&lt;font style=&quot;font-size: 10px;&quot;&gt;delayInit()&amp;nbsp;&lt;/font&gt;&lt;/div&gt;" style="text;html=1;align=center;verticalAlign=middle;whiteSpace=wrap;rounded=0;" vertex="1" parent="1">
          <mxGeometry x="1620" y="3592.5" width="210" height="30" as="geometry" />
        </mxCell>
        <mxCell id="ASqiGz5f3JUgUEJh9aH_-23" value="" style="curved=1;endArrow=classic;html=1;rounded=0;entryX=0;entryY=0.5;entryDx=0;entryDy=0;exitX=1.004;exitY=0.353;exitDx=0;exitDy=0;exitPerimeter=0;" edge="1" parent="1" source="ASqiGz5f3JUgUEJh9aH_-19" target="ASqiGz5f3JUgUEJh9aH_-20">
          <mxGeometry width="50" height="50" relative="1" as="geometry">
            <mxPoint x="1703.75" y="3712.5" as="sourcePoint" />
            <mxPoint x="1753.75" y="3662.5" as="targetPoint" />
            <Array as="points">
              <mxPoint x="1721.25" y="3622.5" />
            </Array>
          </mxGeometry>
        </mxCell>
        <mxCell id="ASqiGz5f3JUgUEJh9aH_-24" value="" style="curved=1;endArrow=classic;html=1;rounded=0;entryX=0.5;entryY=1;entryDx=0;entryDy=0;exitX=0;exitY=0.5;exitDx=0;exitDy=0;" edge="1" parent="1" source="ASqiGz5f3JUgUEJh9aH_-21" target="ASqiGz5f3JUgUEJh9aH_-19">
          <mxGeometry width="50" height="50" relative="1" as="geometry">
            <mxPoint x="1623.75" y="3902.5" as="sourcePoint" />
            <mxPoint x="1673.75" y="3852.5" as="targetPoint" />
            <Array as="points">
              <mxPoint x="1621.25" y="3762.5" />
            </Array>
          </mxGeometry>
        </mxCell>
        <mxCell id="ASqiGz5f3JUgUEJh9aH_-25" value="" style="curved=1;endArrow=classic;html=1;rounded=0;exitX=0.433;exitY=1.067;exitDx=0;exitDy=0;exitPerimeter=0;entryX=1;entryY=0.5;entryDx=0;entryDy=0;" edge="1" parent="1" source="ASqiGz5f3JUgUEJh9aH_-20" target="ASqiGz5f3JUgUEJh9aH_-21">
          <mxGeometry width="50" height="50" relative="1" as="geometry">
            <mxPoint x="2023.75" y="3872.5" as="sourcePoint" />
            <mxPoint x="2073.75" y="3822.5" as="targetPoint" />
            <Array as="points">
              <mxPoint x="1841.25" y="3762.5" />
            </Array>
          </mxGeometry>
        </mxCell>
        <mxCell id="ASqiGz5f3JUgUEJh9aH_-26" value="" style="curved=1;endArrow=classic;html=1;rounded=0;exitX=0;exitY=1;exitDx=0;exitDy=0;entryX=1.011;entryY=0.853;entryDx=0;entryDy=0;entryPerimeter=0;" edge="1" parent="1" source="ASqiGz5f3JUgUEJh9aH_-20" target="ASqiGz5f3JUgUEJh9aH_-19">
          <mxGeometry width="50" height="50" relative="1" as="geometry">
            <mxPoint x="1855.75" y="3722.5" as="sourcePoint" />
            <mxPoint x="1743.75" y="3839.5" as="targetPoint" />
            <Array as="points">
              <mxPoint x="1731.25" y="3732.5" />
            </Array>
          </mxGeometry>
        </mxCell>
        <mxCell id="ASqiGz5f3JUgUEJh9aH_-27" value="" style="endArrow=classic;html=1;rounded=0;entryX=0;entryY=0.5;entryDx=0;entryDy=0;" edge="1" parent="1" source="ASqiGz5f3JUgUEJh9aH_-28" target="ASqiGz5f3JUgUEJh9aH_-19">
          <mxGeometry width="50" height="50" relative="1" as="geometry">
            <mxPoint x="1463.75" y="3682.5" as="sourcePoint" />
            <mxPoint x="1513.75" y="3682.5" as="targetPoint" />
          </mxGeometry>
        </mxCell>
        <mxCell id="ASqiGz5f3JUgUEJh9aH_-28" value="" style="shape=waypoint;sketch=0;fillStyle=solid;size=6;pointerEvents=1;points=[];fillColor=none;resizable=0;rotatable=0;perimeter=centerPerimeter;snapToPoint=1;" vertex="1" parent="1">
          <mxGeometry x="1516.25" y="3662.5" width="20" height="20" as="geometry" />
        </mxCell>
        <mxCell id="ASqiGz5f3JUgUEJh9aH_-29" value="&lt;font style=&quot;font-size: 10px;&quot;&gt;delayRead() ^ scanCol == keyCol&lt;/font&gt;" style="text;html=1;align=center;verticalAlign=middle;whiteSpace=wrap;rounded=0;" vertex="1" parent="1">
          <mxGeometry x="1821.25" y="3722.5" width="90" height="55" as="geometry" />
        </mxCell>
        <mxCell id="ASqiGz5f3JUgUEJh9aH_-30" value="&lt;font style=&quot;font-size: 10px;&quot;&gt;delayRead() ^ scanCol != keyCol&lt;/font&gt;" style="text;html=1;align=center;verticalAlign=middle;whiteSpace=wrap;rounded=0;" vertex="1" parent="1">
          <mxGeometry x="1631.25" y="3705" width="200" height="30" as="geometry" />
        </mxCell>
        <mxCell id="ASqiGz5f3JUgUEJh9aH_-31" value="&lt;font style=&quot;font-size: 10px;&quot;&gt;scanCol == 4 |&lt;/font&gt;&lt;div&gt;&lt;font style=&quot;font-size: 10px;&quot;&gt;keyOk = 1&lt;/font&gt;&lt;/div&gt;&lt;div&gt;&lt;font style=&quot;font-size: 10px;&quot;&gt;keyCode = scanRow * COLS + keyCol&lt;/font&gt;&lt;/div&gt;&lt;div&gt;&lt;font style=&quot;font-size: 10px;&quot;&gt;insert_KeyQueue()&lt;/font&gt;&lt;/div&gt;" style="text;html=1;align=center;verticalAlign=middle;whiteSpace=wrap;rounded=0;" vertex="1" parent="1">
          <mxGeometry x="1508.75" y="3717.5" width="122.5" height="72.5" as="geometry" />
        </mxCell>
        <mxCell id="ASqiGz5f3JUgUEJh9aH_-32" value="" style="endArrow=none;dashed=1;html=1;rounded=0;exitX=0.651;exitY=1.002;exitDx=0;exitDy=0;exitPerimeter=0;entryX=0.651;entryY=0.008;entryDx=0;entryDy=0;entryPerimeter=0;" edge="1" parent="1" source="mfT5ryJDW7ZpNOFKt1oW-183" target="mfT5ryJDW7ZpNOFKt1oW-183">
          <mxGeometry width="50" height="50" relative="1" as="geometry">
            <mxPoint x="1570" y="3800" as="sourcePoint" />
            <mxPoint x="1620" y="3750" as="targetPoint" />
          </mxGeometry>
        </mxCell>
        <mxCell id="ASqiGz5f3JUgUEJh9aH_-33" value="" style="endArrow=none;dashed=1;html=1;rounded=0;exitX=0.833;exitY=1.001;exitDx=0;exitDy=0;exitPerimeter=0;entryX=0.833;entryY=0.002;entryDx=0;entryDy=0;entryPerimeter=0;" edge="1" parent="1" source="mfT5ryJDW7ZpNOFKt1oW-183" target="mfT5ryJDW7ZpNOFKt1oW-183">
          <mxGeometry width="50" height="50" relative="1" as="geometry">
            <mxPoint x="2000" y="3850" as="sourcePoint" />
            <mxPoint x="2050" y="3800" as="targetPoint" />
          </mxGeometry>
        </mxCell>
        <mxCell id="ASqiGz5f3JUgUEJh9aH_-34" value="&lt;font style=&quot;font-size: 6px;&quot;&gt;LEDVERDE_OFF&lt;/font&gt;" style="rounded=1;whiteSpace=wrap;html=1;" vertex="1" parent="1">
          <mxGeometry x="1940" y="3605" width="55" height="20" as="geometry" />
        </mxCell>
        <mxCell id="ASqiGz5f3JUgUEJh9aH_-35" value="&lt;font style=&quot;font-size: 6px;&quot;&gt;LEDVERDE_FLASHING&lt;/font&gt;" style="rounded=1;whiteSpace=wrap;html=1;" vertex="1" parent="1">
          <mxGeometry x="2045" y="3605" width="75" height="20" as="geometry" />
        </mxCell>
        <mxCell id="ASqiGz5f3JUgUEJh9aH_-36" value="" style="curved=1;endArrow=classic;html=1;rounded=0;entryX=0;entryY=0.5;entryDx=0;entryDy=0;exitX=1;exitY=0.5;exitDx=0;exitDy=0;" edge="1" parent="1" source="ASqiGz5f3JUgUEJh9aH_-34" target="ASqiGz5f3JUgUEJh9aH_-35">
          <mxGeometry width="50" height="50" relative="1" as="geometry">
            <mxPoint x="1947.5" y="3725" as="sourcePoint" />
            <mxPoint x="1997.5" y="3675" as="targetPoint" />
            <Array as="points">
              <mxPoint x="2002.5" y="3605" />
              <mxPoint x="2022.5" y="3605" />
            </Array>
          </mxGeometry>
        </mxCell>
        <mxCell id="ASqiGz5f3JUgUEJh9aH_-37" value="" style="curved=1;endArrow=classic;html=1;rounded=0;entryX=1;entryY=1;entryDx=0;entryDy=0;exitX=0;exitY=1;exitDx=0;exitDy=0;" edge="1" parent="1" source="ASqiGz5f3JUgUEJh9aH_-35" target="ASqiGz5f3JUgUEJh9aH_-34">
          <mxGeometry width="50" height="50" relative="1" as="geometry">
            <mxPoint x="1977.5" y="3735" as="sourcePoint" />
            <mxPoint x="2027.5" y="3685" as="targetPoint" />
            <Array as="points">
              <mxPoint x="2042.5" y="3635" />
              <mxPoint x="2002.5" y="3655" />
            </Array>
          </mxGeometry>
        </mxCell>
        <mxCell id="ASqiGz5f3JUgUEJh9aH_-38" value="&lt;font style=&quot;font-size: 6px;&quot;&gt;eAlarm&lt;/font&gt;" style="text;html=1;align=center;verticalAlign=middle;whiteSpace=wrap;rounded=0;" vertex="1" parent="1">
          <mxGeometry x="1987.5" y="3580" width="60" height="30" as="geometry" />
        </mxCell>
        <mxCell id="ASqiGz5f3JUgUEJh9aH_-39" value="&lt;font style=&quot;font-size: 6px;&quot;&gt;eEndAlarm&lt;/font&gt;" style="text;html=1;align=center;verticalAlign=middle;whiteSpace=wrap;rounded=0;" vertex="1" parent="1">
          <mxGeometry x="2022.5" y="3625" width="60" height="30" as="geometry" />
        </mxCell>
        <mxCell id="ASqiGz5f3JUgUEJh9aH_-41" value="&lt;font style=&quot;font-size: 6px;&quot;&gt;LED1_OFF&lt;/font&gt;" style="rounded=1;whiteSpace=wrap;html=1;" vertex="1" parent="1">
          <mxGeometry x="2133.75" y="3605" width="35" height="20" as="geometry" />
        </mxCell>
        <mxCell id="ASqiGz5f3JUgUEJh9aH_-42" value="&lt;font style=&quot;font-size: 6px;&quot;&gt;LED1_ON&lt;/font&gt;" style="rounded=1;whiteSpace=wrap;html=1;" vertex="1" parent="1">
          <mxGeometry x="2213.75" y="3605" width="35" height="20" as="geometry" />
        </mxCell>
        <mxCell id="ASqiGz5f3JUgUEJh9aH_-43" value="" style="curved=1;endArrow=classic;html=1;rounded=0;entryX=0;entryY=0.5;entryDx=0;entryDy=0;exitX=1;exitY=0.5;exitDx=0;exitDy=0;" edge="1" parent="1" source="ASqiGz5f3JUgUEJh9aH_-41" target="ASqiGz5f3JUgUEJh9aH_-42">
          <mxGeometry width="50" height="50" relative="1" as="geometry">
            <mxPoint x="2143.75" y="3725" as="sourcePoint" />
            <mxPoint x="2193.75" y="3675" as="targetPoint" />
            <Array as="points">
              <mxPoint x="2188.75" y="3605" />
            </Array>
          </mxGeometry>
        </mxCell>
        <mxCell id="ASqiGz5f3JUgUEJh9aH_-44" value="" style="curved=1;endArrow=classic;html=1;rounded=0;entryX=1;entryY=1;entryDx=0;entryDy=0;exitX=0;exitY=1;exitDx=0;exitDy=0;" edge="1" parent="1" source="ASqiGz5f3JUgUEJh9aH_-42" target="ASqiGz5f3JUgUEJh9aH_-41">
          <mxGeometry width="50" height="50" relative="1" as="geometry">
            <mxPoint x="2173.75" y="3735" as="sourcePoint" />
            <mxPoint x="2223.75" y="3685" as="targetPoint" />
            <Array as="points">
              <mxPoint x="2178.75" y="3645" />
            </Array>
          </mxGeometry>
        </mxCell>
        <mxCell id="ASqiGz5f3JUgUEJh9aH_-45" value="&lt;font style=&quot;font-size: 6px;&quot;&gt;eStop&lt;/font&gt;" style="text;html=1;align=center;verticalAlign=middle;whiteSpace=wrap;rounded=0;" vertex="1" parent="1">
          <mxGeometry x="2171.25" y="3625" width="60" height="30" as="geometry" />
        </mxCell>
        <mxCell id="ASqiGz5f3JUgUEJh9aH_-46" value="&lt;font style=&quot;font-size: 6px;&quot;&gt;eGoingUp || eGoingDown&lt;/font&gt;" style="text;html=1;align=center;verticalAlign=middle;whiteSpace=wrap;rounded=0;" vertex="1" parent="1">
          <mxGeometry x="2158.75" y="3575" width="60" height="30" as="geometry" />
        </mxCell>
        <mxCell id="ASqiGz5f3JUgUEJh9aH_-48" value="&lt;font style=&quot;font-size: 6px;&quot;&gt;LED2_OFF&lt;/font&gt;" style="rounded=1;whiteSpace=wrap;html=1;" vertex="1" parent="1">
          <mxGeometry x="1972.5" y="3675" width="35" height="20" as="geometry" />
        </mxCell>
        <mxCell id="ASqiGz5f3JUgUEJh9aH_-49" value="&lt;font style=&quot;font-size: 6px;&quot;&gt;LED2_ON&lt;/font&gt;" style="rounded=1;whiteSpace=wrap;html=1;" vertex="1" parent="1">
          <mxGeometry x="2055" y="3675" width="45" height="20" as="geometry" />
        </mxCell>
        <mxCell id="ASqiGz5f3JUgUEJh9aH_-50" value="" style="curved=1;endArrow=classic;html=1;rounded=0;entryX=0;entryY=0.5;entryDx=0;entryDy=0;exitX=1;exitY=0.5;exitDx=0;exitDy=0;" edge="1" parent="1" source="ASqiGz5f3JUgUEJh9aH_-48" target="ASqiGz5f3JUgUEJh9aH_-49">
          <mxGeometry width="50" height="50" relative="1" as="geometry">
            <mxPoint x="1955" y="3795" as="sourcePoint" />
            <mxPoint x="2005" y="3745" as="targetPoint" />
            <Array as="points">
              <mxPoint x="2010" y="3675" />
            </Array>
          </mxGeometry>
        </mxCell>
        <mxCell id="ASqiGz5f3JUgUEJh9aH_-51" value="" style="curved=1;endArrow=classic;html=1;rounded=0;entryX=1;entryY=1;entryDx=0;entryDy=0;exitX=0;exitY=1;exitDx=0;exitDy=0;" edge="1" parent="1" source="ASqiGz5f3JUgUEJh9aH_-49" target="ASqiGz5f3JUgUEJh9aH_-48">
          <mxGeometry width="50" height="50" relative="1" as="geometry">
            <mxPoint x="1985" y="3805" as="sourcePoint" />
            <mxPoint x="2035" y="3755" as="targetPoint" />
            <Array as="points">
              <mxPoint x="2040" y="3715" />
              <mxPoint x="2000" y="3725" />
            </Array>
          </mxGeometry>
        </mxCell>
        <mxCell id="ASqiGz5f3JUgUEJh9aH_-52" value="&lt;font style=&quot;font-size: 6px;&quot;&gt;eGoingUp || eGoingDown&lt;/font&gt;" style="text;html=1;align=center;verticalAlign=middle;whiteSpace=wrap;rounded=0;" vertex="1" parent="1">
          <mxGeometry x="2053.75" y="3695" width="40" height="30" as="geometry" />
        </mxCell>
        <mxCell id="ASqiGz5f3JUgUEJh9aH_-53" value="&lt;font style=&quot;font-size: 6px;&quot;&gt;eStop&lt;/font&gt;" style="text;html=1;align=center;verticalAlign=middle;whiteSpace=wrap;rounded=0;" vertex="1" parent="1">
          <mxGeometry x="1960" y="3655" width="140" height="30" as="geometry" />
        </mxCell>
        <mxCell id="ASqiGz5f3JUgUEJh9aH_-55" value="&lt;font style=&quot;font-size: 6px;&quot;&gt;LED3_OFF&lt;/font&gt;" style="rounded=1;whiteSpace=wrap;html=1;" vertex="1" parent="1">
          <mxGeometry x="2128.75" y="3675" width="35" height="20" as="geometry" />
        </mxCell>
        <mxCell id="ASqiGz5f3JUgUEJh9aH_-56" value="&lt;font style=&quot;font-size: 6px;&quot;&gt;LED_ON&lt;/font&gt;" style="rounded=1;whiteSpace=wrap;html=1;" vertex="1" parent="1">
          <mxGeometry x="2218.75" y="3675" width="35" height="20" as="geometry" />
        </mxCell>
        <mxCell id="ASqiGz5f3JUgUEJh9aH_-57" value="" style="curved=1;endArrow=classic;html=1;rounded=0;entryX=0;entryY=0.5;entryDx=0;entryDy=0;exitX=1;exitY=0.5;exitDx=0;exitDy=0;" edge="1" parent="1" source="ASqiGz5f3JUgUEJh9aH_-55" target="ASqiGz5f3JUgUEJh9aH_-56">
          <mxGeometry width="50" height="50" relative="1" as="geometry">
            <mxPoint x="2118.75" y="3795" as="sourcePoint" />
            <mxPoint x="2168.75" y="3745" as="targetPoint" />
            <Array as="points">
              <mxPoint x="2158.75" y="3685" />
              <mxPoint x="2193.75" y="3675" />
            </Array>
          </mxGeometry>
        </mxCell>
        <mxCell id="ASqiGz5f3JUgUEJh9aH_-58" value="" style="curved=1;endArrow=classic;html=1;rounded=0;entryX=1;entryY=1;entryDx=0;entryDy=0;exitX=0;exitY=1;exitDx=0;exitDy=0;" edge="1" parent="1" source="ASqiGz5f3JUgUEJh9aH_-56" target="ASqiGz5f3JUgUEJh9aH_-55">
          <mxGeometry width="50" height="50" relative="1" as="geometry">
            <mxPoint x="2148.75" y="3805" as="sourcePoint" />
            <mxPoint x="2198.75" y="3755" as="targetPoint" />
            <Array as="points">
              <mxPoint x="2213.75" y="3705" />
              <mxPoint x="2163.75" y="3725" />
            </Array>
          </mxGeometry>
        </mxCell>
        <mxCell id="ASqiGz5f3JUgUEJh9aH_-59" value="&lt;font style=&quot;font-size: 6px;&quot;&gt;eClosingDoor&lt;/font&gt;" style="text;html=1;align=center;verticalAlign=middle;whiteSpace=wrap;rounded=0;" vertex="1" parent="1">
          <mxGeometry x="2186.25" y="3695" width="90" height="30" as="geometry" />
        </mxCell>
        <mxCell id="ASqiGz5f3JUgUEJh9aH_-60" value="&lt;font style=&quot;font-size: 6px;&quot;&gt;eOpenDoor&lt;/font&gt;" style="text;html=1;align=center;verticalAlign=middle;whiteSpace=wrap;rounded=0;" vertex="1" parent="1">
          <mxGeometry x="2123.75" y="3655" width="140" height="30" as="geometry" />
        </mxCell>
        <mxCell id="ASqiGz5f3JUgUEJh9aH_-62" value="&lt;font style=&quot;font-size: 6px;&quot;&gt;LEDAZ_OFF&lt;/font&gt;" style="rounded=1;whiteSpace=wrap;html=1;" vertex="1" parent="1">
          <mxGeometry x="1960" y="3755" width="45" height="20" as="geometry" />
        </mxCell>
        <mxCell id="ASqiGz5f3JUgUEJh9aH_-63" value="&lt;font style=&quot;font-size: 6px;&quot;&gt;LEDAZ_ON&lt;/font&gt;" style="rounded=1;whiteSpace=wrap;html=1;" vertex="1" parent="1">
          <mxGeometry x="2065" y="3755" width="45" height="20" as="geometry" />
        </mxCell>
        <mxCell id="ASqiGz5f3JUgUEJh9aH_-64" value="" style="curved=1;endArrow=classic;html=1;rounded=0;entryX=0;entryY=0.5;entryDx=0;entryDy=0;exitX=1;exitY=0.5;exitDx=0;exitDy=0;" edge="1" parent="1" source="ASqiGz5f3JUgUEJh9aH_-62" target="ASqiGz5f3JUgUEJh9aH_-63">
          <mxGeometry width="50" height="50" relative="1" as="geometry">
            <mxPoint x="1965" y="3875" as="sourcePoint" />
            <mxPoint x="2015" y="3825" as="targetPoint" />
            <Array as="points">
              <mxPoint x="2030" y="3755" />
            </Array>
          </mxGeometry>
        </mxCell>
        <mxCell id="ASqiGz5f3JUgUEJh9aH_-65" value="" style="curved=1;endArrow=classic;html=1;rounded=0;entryX=1;entryY=1;entryDx=0;entryDy=0;exitX=0;exitY=1;exitDx=0;exitDy=0;" edge="1" parent="1" source="ASqiGz5f3JUgUEJh9aH_-63" target="ASqiGz5f3JUgUEJh9aH_-62">
          <mxGeometry width="50" height="50" relative="1" as="geometry">
            <mxPoint x="1995" y="3885" as="sourcePoint" />
            <mxPoint x="2045" y="3835" as="targetPoint" />
            <Array as="points">
              <mxPoint x="2040" y="3795" />
              <mxPoint x="2005" y="3795" />
            </Array>
          </mxGeometry>
        </mxCell>
        <mxCell id="ASqiGz5f3JUgUEJh9aH_-66" value="&lt;font style=&quot;font-size: 6px;&quot;&gt;eOpenDoor&lt;/font&gt;" style="text;html=1;align=center;verticalAlign=middle;whiteSpace=wrap;rounded=0;" vertex="1" parent="1">
          <mxGeometry x="2015" y="3775" width="90" height="30" as="geometry" />
        </mxCell>
        <mxCell id="ASqiGz5f3JUgUEJh9aH_-67" value="&lt;font style=&quot;font-size: 6px;&quot;&gt;eOpeningDoor&lt;/font&gt;" style="text;html=1;align=center;verticalAlign=middle;whiteSpace=wrap;rounded=0;" vertex="1" parent="1">
          <mxGeometry x="1966.25" y="3735" width="140" height="30" as="geometry" />
        </mxCell>
        <mxCell id="ASqiGz5f3JUgUEJh9aH_-69" value="&lt;font style=&quot;font-size: 6px;&quot;&gt;LEDAM_OFF&lt;/font&gt;" style="rounded=1;whiteSpace=wrap;html=1;" vertex="1" parent="1">
          <mxGeometry x="2128.75" y="3755" width="35" height="20" as="geometry" />
        </mxCell>
        <mxCell id="ASqiGz5f3JUgUEJh9aH_-70" value="&lt;font style=&quot;font-size: 6px;&quot;&gt;LEDAM_ON&lt;/font&gt;" style="rounded=1;whiteSpace=wrap;html=1;" vertex="1" parent="1">
          <mxGeometry x="2217.5" y="3755" width="45" height="20" as="geometry" />
        </mxCell>
        <mxCell id="ASqiGz5f3JUgUEJh9aH_-71" value="" style="curved=1;endArrow=classic;html=1;rounded=0;entryX=0;entryY=0.5;entryDx=0;entryDy=0;exitX=1;exitY=0.5;exitDx=0;exitDy=0;" edge="1" parent="1" source="ASqiGz5f3JUgUEJh9aH_-69" target="ASqiGz5f3JUgUEJh9aH_-70">
          <mxGeometry width="50" height="50" relative="1" as="geometry">
            <mxPoint x="2117.5" y="3875" as="sourcePoint" />
            <mxPoint x="2167.5" y="3825" as="targetPoint" />
            <Array as="points">
              <mxPoint x="2182.5" y="3755" />
            </Array>
          </mxGeometry>
        </mxCell>
        <mxCell id="ASqiGz5f3JUgUEJh9aH_-72" value="" style="curved=1;endArrow=classic;html=1;rounded=0;entryX=1;entryY=1;entryDx=0;entryDy=0;exitX=0;exitY=1;exitDx=0;exitDy=0;" edge="1" parent="1" source="ASqiGz5f3JUgUEJh9aH_-70" target="ASqiGz5f3JUgUEJh9aH_-69">
          <mxGeometry width="50" height="50" relative="1" as="geometry">
            <mxPoint x="2147.5" y="3885" as="sourcePoint" />
            <mxPoint x="2197.5" y="3835" as="targetPoint" />
            <Array as="points">
              <mxPoint x="2192.5" y="3795" />
              <mxPoint x="2162.5" y="3805" />
            </Array>
          </mxGeometry>
        </mxCell>
        <mxCell id="ASqiGz5f3JUgUEJh9aH_-73" value="&lt;font style=&quot;font-size: 6px;&quot;&gt;eClosedDoor&lt;/font&gt;" style="text;html=1;align=center;verticalAlign=middle;whiteSpace=wrap;rounded=0;" vertex="1" parent="1">
          <mxGeometry x="2172.5" y="3775" width="90" height="30" as="geometry" />
        </mxCell>
        <mxCell id="ASqiGz5f3JUgUEJh9aH_-74" value="&lt;font style=&quot;font-size: 6px;&quot;&gt;eClosingDoor&lt;/font&gt;" style="text;html=1;align=center;verticalAlign=middle;whiteSpace=wrap;rounded=0;" vertex="1" parent="1">
          <mxGeometry x="2120" y="3735" width="140" height="30" as="geometry" />
        </mxCell>
        <mxCell id="ASqiGz5f3JUgUEJh9aH_-76" value="&lt;b&gt;&lt;font style=&quot;font-size: 18px;&quot;&gt;Display&lt;/font&gt;&lt;/b&gt;" style="text;html=1;align=center;verticalAlign=middle;whiteSpace=wrap;rounded=0;" vertex="1" parent="1">
          <mxGeometry x="715" y="3470" width="260" height="30" as="geometry" />
        </mxCell>
        <mxCell id="ASqiGz5f3JUgUEJh9aH_-77" value="&lt;b&gt;&lt;font style=&quot;font-size: 18px;&quot;&gt;Button&lt;/font&gt;&lt;/b&gt;" style="text;html=1;align=center;verticalAlign=middle;whiteSpace=wrap;rounded=0;" vertex="1" parent="1">
          <mxGeometry x="1000" y="3470" width="260" height="30" as="geometry" />
        </mxCell>
        <mxCell id="ASqiGz5f3JUgUEJh9aH_-78" value="&lt;b&gt;&lt;font style=&quot;font-size: 18px;&quot;&gt;Keyboard&lt;/font&gt;&lt;/b&gt;" style="text;html=1;align=center;verticalAlign=middle;whiteSpace=wrap;rounded=0;" vertex="1" parent="1">
          <mxGeometry x="1480" y="3470" width="260" height="30" as="geometry" />
        </mxCell>
        <mxCell id="ASqiGz5f3JUgUEJh9aH_-79" value="&lt;b&gt;&lt;font style=&quot;font-size: 18px;&quot;&gt;Leds&lt;/font&gt;&lt;/b&gt;" style="text;html=1;align=center;verticalAlign=middle;whiteSpace=wrap;rounded=0;" vertex="1" parent="1">
          <mxGeometry x="1870" y="3470" width="260" height="30" as="geometry" />
        </mxCell>
        <mxCell id="ASqiGz5f3JUgUEJh9aH_-80" value="&lt;b&gt;&lt;font style=&quot;font-size: 18px;&quot;&gt;MEF Completa&lt;/font&gt;&lt;/b&gt;" style="text;html=1;align=center;verticalAlign=middle;whiteSpace=wrap;rounded=0;" vertex="1" parent="1">
          <mxGeometry x="30" y="3350" width="260" height="30" as="geometry" />
        </mxCell>
      </root>
    </mxGraphModel>
  </diagram>
</mxfile>
